M48
; DRILL file {KiCad 9.0.2+1} date 2025-06-30T02:26:05+0200
; FORMAT={-:-/ absolute / inch / decimal}
; #@! TF.CreationDate,2025-06-30T02:26:05+02:00
; #@! TF.GenerationSoftware,Kicad,Pcbnew,9.0.2+1
; #@! TF.FileFunction,Plated,1,2,PTH
FMAT,2
INCH
; #@! TA.AperFunction,Plated,PTH,ViaDrill
T1C0.0118
; #@! TA.AperFunction,Plated,PTH,ViaDrill
T2C0.0157
; #@! TA.AperFunction,Plated,PTH,ViaDrill
T3C0.0236
; #@! TA.AperFunction,Plated,PTH,ComponentDrill
T4C0.0276
; #@! TA.AperFunction,Plated,PTH,ComponentDrill
T5C0.0295
; #@! TA.AperFunction,Plated,PTH,ComponentDrill
T6C0.0315
; #@! TA.AperFunction,Plated,PTH,ComponentDrill
T7C0.0354
; #@! TA.AperFunction,Plated,PTH,ComponentDrill
T8C0.0394
; #@! TA.AperFunction,Plated,PTH,ComponentDrill
T9C0.0433
%
G90
G05
T1
X4.08Y-4.13
X4.08Y-4.205
X4.08Y-4.585
X4.085Y-4.975
X4.0925Y-2.4625
X4.095Y-3.88
X4.1Y-4.24
X4.105Y-4.535
X4.1075Y-4.1025
X4.11Y-4.07
X4.11Y-4.995
X4.115Y-4.505
X4.125Y-4.215
X4.1275Y-3.4525
X4.135Y-2.565
X4.135Y-3.635
X4.135Y-4.145
X4.135Y-4.65
X4.135Y-5.045
X4.1375Y-3.3975
X4.16Y-4.3
X4.165Y-5.26
X4.17Y-3.405
X4.185Y-4.635
X4.185Y-4.67
X4.19Y-4.79
X4.195Y-5.215
X4.1975Y-3.6025
X4.21Y-4.93
X4.215Y-4.77
X4.235Y-4.655
X4.235Y-5.245
X4.2425Y-5.0875
X4.245Y-4.24
X4.245Y-4.425
X4.245Y-4.46
X4.245Y-4.685
X4.25Y-4.075
X4.25Y-4.145
X4.25Y-4.34
X4.25Y-4.51
X4.25Y-4.94
X4.25Y-4.985
X4.255Y-3.065
X4.255Y-4.025
X4.26Y-4.185
X4.27Y-4.29
X4.275Y-4.6075
X4.28Y-2.505
X4.2825Y-3.9975
X4.285Y-4.385
X4.285Y-4.51
X4.295Y-4.43
X4.295Y-4.91
X4.295Y-5.095
X4.3Y-4.08
X4.3025Y-4.0475
X4.305Y-4.115
X4.305Y-5.2
X4.3075Y-4.2125
X4.31Y-4.345
X4.31Y-4.82
X4.31Y-5.25
X4.32Y-4.555
X4.3217Y-4.6667
X4.3225Y-5.0775
X4.3325Y-4.0025
X4.34Y-4.77
X4.355Y-5.09
X4.36Y-4.58
X4.37Y-4.96
X4.375Y-1.895
X4.3825Y-4.8075
X4.39Y-4.62
X4.39Y-4.67
X4.41Y-3.605
X4.41Y-4.265
X4.41Y-4.405
X4.42Y-4.11
X4.425Y-4.355
X4.43Y-4.53
X4.43Y-4.81
X4.435Y-4.18
X4.435Y-4.705
X4.435Y-5.12
X4.435Y-5.205
X4.455Y-3.62
X4.455Y-4.76
X4.464Y-5.051
X4.465Y-4.035
X4.47Y-3.405
X4.4715Y-2.66
X4.475Y-2.315
X4.475Y-4.23
X4.475Y-4.5
X4.475Y-4.785
X4.4875Y-4.1525
X4.495Y-4.075
X4.495Y-4.33
X4.51Y-3.85
X4.51Y-4.23
X4.51Y-4.38
X4.51Y-4.415
X4.5125Y-5.1225
X4.515Y-4.485
X4.52Y-3.88
X4.52Y-4.18
X4.525Y-3.4
X4.525Y-4.745
X4.525Y-4.655
X4.54Y-4.795
X4.545Y-4.495
X4.549Y-5.036
X4.55Y-4.23
X4.555Y-4.635
X4.555Y-4.67
X4.57Y-5.01
X4.5775Y-4.5325
X4.58Y-4.165
X4.58Y-4.495
X4.58Y-4.725
X4.585Y-4.23
X4.585Y-4.315
X4.59Y-4.465
X4.6Y-3.56
X4.605Y-2.795
X4.605Y-4.29
X4.605Y-4.515
X4.61Y-4.155
X4.62Y-4.795
X4.62Y-5.125
X4.625Y-3.615
X4.625Y-3.65
X4.625Y-4.32
X4.625Y-4.37
X4.63Y-3.455
X4.63Y-4.465
X4.635Y-2.725
X4.635Y-4.5
X4.64Y-4.23
X4.655Y-4.18
X4.655Y-4.53
X4.66Y-4.385
X4.6625Y-1.8575
X4.67Y-3.67
X4.67Y-4.99
X4.675Y-4.23
X4.68Y-4.63
X4.685Y-4.485
X4.685Y-4.735
X4.69Y-3.51
X4.695Y-4.32
X4.705Y-3.57
X4.7075Y-5.1225
X4.7142Y-4.1108
X4.72Y-4.835
X4.72Y-5.007
X4.7219Y-4.5331
X4.725Y-2.255
X4.725Y-4.39
X4.73Y-4.46
X4.74Y-3.81
X4.7416Y-3.9234
X4.745Y-2.405
X4.745Y-4.09
X4.755Y-2.625
X4.76Y-3.67
X4.765Y-3.535
X4.765Y-4.5
X4.77Y-4.725
X4.77Y-4.785
X4.7725Y-3.6075
X4.775Y-5.005
X4.78Y-4.45
X4.7825Y-4.0875
X4.785Y-3.175
X4.79Y-4.305
X4.795Y-4.65
X4.8Y-4.5
X4.8Y-4.715
X4.8135Y-3.8415
X4.815Y-2.43
X4.82Y-4.915
X4.82Y-5.135
X4.825Y-3.61
X4.835Y-3.555
X4.835Y-4.27
X4.835Y-4.81
X4.84Y-2.675
X4.84Y-3.07
X4.84Y-3.385
X4.84Y-3.905
X4.84Y-4.325
X4.84Y-4.36
X4.845Y-3.84
X4.85Y-2.98
X4.85Y-4.095
X4.855Y-4.66
X4.8625Y-4.4525
X4.8675Y-4.1625
X4.87Y-2.76
X4.87Y-5.005
X4.875Y-4.31
X4.88Y-3.07
X4.88Y-3.895
X4.885Y-2.62
X4.885Y-2.9
X4.8973Y-4.135
X4.9Y-4.075
X4.9Y-4.34
X4.905Y-3.3
X4.905Y-4.22
X4.915Y-3.19
X4.915Y-3.33
X4.915Y-3.845
X4.915Y-3.93
X4.9325Y-3.3775
X4.94Y-2.85
X4.945Y-3.155
X4.95Y-3.325
X4.95Y-4.715
X4.955Y-3.46
X4.96Y-3.02
X4.96Y-4.615
X4.97Y-4.545
X4.97Y-5.01
X4.975Y-2.875
X4.98Y-3.835
X4.985Y-4.715
X4.995Y-4.615
X5.005Y-2.895
X5.0175Y-3.3725
X5.02Y-3.77
X5.02Y-4.185
X5.03Y-4.815
X5.035Y-4.475
X5.0375Y-4.5325
X5.045Y-4.265
X5.05Y-3.21
X5.055Y-4.205
X5.055Y-5.24
X5.065Y-2.01
X5.065Y-4.915
X5.07Y-5.007
X5.0734Y-2.8692
X5.075Y-3.07
X5.075Y-4.59
X5.08Y-4.02
X5.08Y-5.3
X5.09Y-4.73
X5.09Y-5.24
X5.1Y-3.005
X5.11Y-3.695
X5.11Y-4.125
X5.11Y-4.275
X5.115Y-4.685
X5.12Y-3.19
X5.12Y-3.37
X5.12Y-4.72
X5.125Y-3.305
X5.1375Y-4.8325
X5.1383Y-4.2917
X5.1425Y-5.1525
X5.145Y-3.705
X5.145Y-4.03
X5.15Y-3.815
X5.1525Y-4.9325
X5.155Y-3.78
X5.155Y-4.785
X5.16Y-3.905
X5.165Y-2.8
X5.165Y-4.525
X5.185Y-2.7
X5.19Y-2.985
X5.195Y-4.195
X5.2Y-2.79
X5.2Y-4.155
X5.205Y-4.3
X5.205Y-4.335
X5.205Y-4.47
X5.21Y-3.18
X5.21Y-4.37
X5.2125Y-4.5825
X5.215Y-4.615
X5.22Y-4.65
X5.225Y-2.715
X5.235Y-3.33
X5.24Y-2.46
X5.24Y-2.87
X5.24Y-3.53
X5.24Y-3.64
X5.27Y-4.805
X5.2725Y-5.1075
X5.275Y-4.92
X5.28Y-2.89
X5.28Y-4.57
X5.285Y-2.53
X5.285Y-4.075
X5.285Y-4.155
X5.29Y-3.065
X5.295Y-4.205
X5.305Y-4.59
X5.305Y-5.23
X5.31Y-5.165
X5.32Y-2.865
X5.325Y-4.075
X5.325Y-4.185
X5.33Y-3.08
X5.33Y-5.005
X5.345Y-4.775
X5.35Y-1.9
X5.35Y-5.245
X5.355Y-4.5
X5.36Y-4.185
X5.36Y-4.325
X5.36Y-4.445
X5.365Y-2.975
X5.37Y-4.8
X5.375Y-2.385
X5.375Y-4.055
X5.375Y-4.285
X5.375Y-5.0
X5.385Y-4.525
X5.395Y-4.465
X5.4Y-4.08
X5.405Y-2.47
X5.405Y-3.65
X5.41Y-4.17
X5.41Y-4.935
X5.415Y-2.385
X5.4175Y-3.5725
X5.42Y-3.345
X5.42Y-4.585
X5.42Y-4.905
X5.43Y-3.48
X5.435Y-3.115
X5.435Y-4.435
X5.435Y-4.965
X5.45Y-4.075
X5.455Y-2.845
X5.455Y-4.325
X5.455Y-5.27
X5.46Y-4.805
X5.465Y-4.225
X5.4707Y-4.9457
X5.4775Y-3.8925
X5.48Y-4.06
X5.48Y-4.155
X5.485Y-3.295
X5.49Y-2.845
X5.4975Y-4.2875
X5.515Y-3.395
X5.515Y-3.555
X5.52Y-4.455
X5.525Y-4.19
X5.5325Y-4.0375
X5.54Y-4.815
X5.555Y-4.08
X5.57Y-4.32
X5.585Y-4.93
X5.5875Y-4.7575
X5.59Y-3.25
X5.615Y-4.455
X5.615Y-4.57
X5.62Y-3.55
X5.62Y-5.245
X5.635Y-4.82
X5.645Y-4.6
X5.65Y-2.485
X5.65Y-4.455
X5.655Y-3.21
X5.655Y-4.91
X5.665Y-4.75
X5.67Y-3.555
X5.67Y-3.92
X5.67Y-4.94
X5.675Y-2.66
X5.675Y-4.055
X5.685Y-5.305
X5.69Y-3.82
X5.69Y-3.875
X5.7Y-1.9
X5.705Y-4.95
X5.71Y-3.01
X5.71Y-3.61
X5.715Y-3.395
X5.7175Y-3.9425
X5.72Y-2.93
X5.725Y-4.055
X5.73Y-5.12
X5.735Y-3.64
X5.735Y-5.235
X5.74Y-3.125
X5.74Y-4.805
X5.75Y-4.745
X5.755Y-4.61
X5.76Y-4.295
X5.76Y-4.445
X5.765Y-3.805
X5.7675Y-4.0375
X5.775Y-3.945
X5.79Y-4.235
X5.79Y-4.94
X5.7925Y-4.6275
X5.795Y-3.485
X5.795Y-4.065
X5.795Y-4.77
X5.795Y-5.25
X5.7965Y-5.1115
X5.83Y-4.305
X5.8325Y-3.9275
X5.835Y-5.2
X5.85Y-5.28
X5.855Y-4.96
X5.865Y-3.915
X5.865Y-4.1625
X5.875Y-4.235
X5.885Y-4.19
X5.89Y-4.45
X5.895Y-2.635
X5.895Y-4.965
X5.905Y-3.49
X5.915Y-4.04
X5.915Y-4.785
X5.92Y-3.46
X5.925Y-5.205
X5.9254Y-5.2904
X5.93Y-5.12
X5.9325Y-2.8125
X5.94Y-4.575
X5.945Y-3.915
X5.955Y-4.04
X5.965Y-4.95
X5.9675Y-3.5925
X5.97Y-3.95
X5.975Y-4.47
X5.975Y-4.575
X5.9825Y-3.8225
X5.985Y-3.67
X5.995Y-4.045
X5.995Y-5.285
X6.005Y-3.6
X6.01Y-3.9
X6.02Y-2.875
X6.02Y-4.95
X6.025Y-4.06
X6.03Y-4.56
X6.0425Y-3.8975
X6.055Y-4.115
X6.055Y-4.15
X6.055Y-4.62
X6.055Y-5.26
X6.06Y-4.95
X6.065Y-4.795
X6.08Y-3.635
X6.08Y-3.895
X6.09Y-3.005
X6.095Y-5.255
X6.12Y-4.8
X6.1375Y-5.1075
X6.15Y-5.28
X6.16Y-5.215
X6.225Y-4.095
X6.225Y-4.13
X6.23Y-4.82
X6.23Y-5.12
X6.245Y-4.56
X6.26Y-5.11
X6.265Y-3.665
X6.27Y-5.255
X6.275Y-4.655
X6.275Y-4.725
X6.28Y-4.62
X6.285Y-3.94
X6.295Y-4.34
X6.305Y-5.29
X6.32Y-3.94
X6.32Y-4.07
X6.3515Y-4.7935
X6.355Y-4.075
X6.3575Y-3.9425
X6.38Y-4.34
X6.385Y-4.43
X6.39Y-3.945
X6.395Y-4.08
X6.395Y-4.855
X6.4Y-2.615
X6.4125Y-5.1425
X6.42Y-5.25
X6.43Y-4.865
X6.45Y-4.62
X6.465Y-4.725
X6.48Y-5.17
X6.515Y-4.855
X6.54Y-4.97
X6.545Y-5.255
X6.56Y-4.905
X6.56Y-4.94
X6.565Y-4.845
X6.575Y-4.875
X6.58Y-5.13
X6.61Y-3.74
X6.615Y-4.335
X6.62Y-5.13
X6.635Y-3.94
X6.645Y-3.565
X6.645Y-4.045
X6.645Y-4.935
X6.645Y-5.04
X6.65Y-4.74
X6.67Y-3.94
X6.67Y-4.025
X6.675Y-4.945
X6.675Y-5.165
X6.69Y-3.565
X6.69Y-5.23
X6.7014Y-4.6714
X6.705Y-5.18
X6.725Y-4.705
X6.725Y-4.855
X6.76Y-4.595
X6.76Y-4.725
X6.7675Y-4.9675
X6.77Y-5.205
X6.785Y-4.57
X6.79Y-4.755
X6.8Y-3.68
X6.815Y-4.78
X6.8393Y-2.5857
X6.84Y-4.81
X6.87Y-5.245
X6.8725Y-5.2825
X6.92Y-1.89
X6.945Y-5.245
X6.95Y-1.835
X6.9575Y-3.7875
X6.965Y-4.43
X6.965Y-4.51
X6.965Y-5.275
X6.97Y-4.395
X6.975Y-4.32
X7.005Y-4.835
X7.03Y-5.245
X7.04Y-4.87
X7.045Y-4.83
X7.07Y-4.795
X7.09Y-3.315
X7.11Y-3.745
X7.115Y-3.34
X7.135Y-4.535
X7.155Y-4.185
X7.17Y-4.535
X7.17Y-4.57
X7.175Y-4.48
X7.175Y-4.63
X7.2175Y-4.8275
X7.255Y-3.705
X7.255Y-3.745
X7.255Y-4.5
X7.255Y-4.535
X7.255Y-4.57
X7.255Y-4.83
X7.26Y-3.785
X7.26Y-4.185
X7.285Y-4.6
X7.335Y-3.67
X7.34Y-4.815
X7.3975Y-4.3125
T2
X4.125Y-3.925
X4.14Y-1.93
X4.15Y-3.78
X4.18Y-2.35
X4.19Y-3.135
X4.22Y-3.53
X4.225Y-3.03
X4.24Y-2.875
X4.27Y-2.66
X4.3Y-3.6
X4.34Y-3.49
X4.35Y-3.03
X4.39Y-3.71
X4.4Y-2.48
X4.41Y-2.14
X4.45Y-2.89
X4.45Y-3.27
X4.475Y-1.8
X4.48Y-3.52
X4.545Y-2.375
X4.58Y-3.13
X4.58Y-3.91
X4.58Y-4.05
X4.63Y-2.65
X4.7Y-3.09
X4.71Y-2.93
X4.72Y-2.13
X4.73Y-3.265
X4.795Y-2.875
X4.88Y-2.1
X4.88Y-2.27
X5.06Y-2.43
X5.16Y-2.18
X5.19Y-5.24
X5.225Y-3.935
X5.27Y-3.41
X5.305Y-3.185
X5.37Y-2.52
X5.375Y-3.94
X5.48Y-3.52
X5.5Y-2.7
X5.52Y-2.18
X5.535Y-3.22
X5.535Y-3.45
X5.535Y-3.93
X5.55Y-2.49
X5.58Y-2.96
X5.63Y-3.64
X5.75Y-2.065
X5.77Y-3.22
X5.79Y-2.5
X5.83Y-2.76
X5.845Y-3.45
X5.885Y-3.705
X5.97Y-2.23
X5.97Y-4.255
X6.12Y-2.71
X6.12Y-2.785
X6.165Y-3.66
X6.175Y-3.445
X6.18Y-3.92
X6.18Y-4.48
X6.225Y-4.73
X6.24Y-4.27
X6.26Y-2.135
X6.295Y-3.05
X6.41Y-4.47
X6.45Y-3.935
X6.46Y-3.375
X6.46Y-3.64
X6.46Y-4.2
X6.575Y-4.385
X6.59Y-4.72
X6.62Y-2.22
X6.72Y-4.36
X6.82Y-5.185
X6.835Y-4.96
X6.92Y-4.68
X6.935Y-2.1
X6.955Y-3.9
X7.0Y-2.91
X7.005Y-3.605
X7.03Y-4.955
X7.21Y-2.34
X7.32Y-4.76
X7.5Y-4.45
X7.51Y-3.93
X7.63Y-3.46
X7.65Y-2.02
X7.895Y-3.905
X7.9Y-4.31
X7.915Y-5.25
T3
X4.1275Y-4.7875
X5.94Y-3.17
T4
X4.2Y-2.94
X4.2Y-3.24
X4.35Y-2.94
X4.35Y-3.24
X4.5Y-2.94
X4.5Y-3.24
X4.65Y-2.94
X4.65Y-3.24
X4.8Y-2.94
X4.8Y-3.24
X4.95Y-2.94
X4.95Y-3.24
X5.07Y-3.3539
X5.07Y-3.478
X5.07Y-3.602
X5.07Y-3.726
X5.07Y-3.85
X5.1Y-2.94
X5.1Y-3.24
X5.25Y-2.94
X5.25Y-3.24
X5.37Y-3.3539
X5.37Y-3.478
X5.37Y-3.602
X5.37Y-3.726
X5.37Y-3.85
X5.4Y-2.93
X5.4Y-3.23
X6.07Y-2.67
X6.07Y-2.82
X6.37Y-2.67
X6.37Y-2.82
X6.46Y-2.67
X6.46Y-2.82
X6.76Y-2.67
X6.76Y-2.82
X6.85Y-2.67
X6.85Y-2.82
X7.1359Y-4.39
X7.1359Y-4.69
X7.15Y-2.67
X7.15Y-2.82
X7.286Y-4.39
X7.286Y-4.69
X7.29Y-1.85
X7.29Y-2.15
X7.29Y-2.25
X7.29Y-2.55
X7.39Y-4.8
X7.436Y-4.39
X7.436Y-4.69
X7.588Y-4.39
X7.588Y-4.69
X7.69Y-4.8
X7.72Y-2.94
X7.72Y-3.24
X7.742Y-4.39
X7.742Y-4.69
X7.864Y-2.94
X7.864Y-3.24
X7.896Y-4.39
X7.896Y-4.69
T5
X4.172Y-2.77
X4.222Y-2.77
X4.272Y-2.77
X4.4476Y-2.77
X4.4976Y-2.77
X4.5476Y-2.77
X4.7232Y-2.77
X4.7732Y-2.77
X4.8232Y-2.77
X4.9988Y-2.77
X5.0488Y-2.77
X5.0988Y-2.77
X5.2744Y-2.77
X5.3244Y-2.77
X5.3744Y-2.77
X5.55Y-2.77
X5.6Y-2.77
X5.65Y-2.77
T6
X4.17Y-4.8608
X4.17Y-5.1608
X4.2016Y-3.91
X4.27Y-4.8608
X4.27Y-5.1608
X4.29Y-3.42
X4.29Y-3.72
X4.3Y-3.91
X4.37Y-4.8608
X4.37Y-5.1608
X4.47Y-4.8608
X4.47Y-5.1608
X4.57Y-4.8608
X4.57Y-5.1608
X4.59Y-3.42
X4.59Y-3.72
X4.6208Y-4.69
X4.67Y-4.8608
X4.67Y-5.1608
X4.7192Y-4.69
X4.77Y-4.8608
X4.77Y-5.1608
X4.87Y-4.8608
X4.87Y-5.1608
X4.89Y-3.42
X4.89Y-3.72
X4.97Y-4.8608
X4.97Y-5.1608
X5.07Y-4.8608
X5.07Y-5.1608
X5.1Y-3.9708
X5.1Y-4.0692
X5.11Y-4.4224
X5.11Y-4.5208
X5.22Y-5.0308
X5.22Y-5.1292
X5.24Y-4.4216
X5.24Y-4.52
X5.37Y-4.3908
X5.37Y-4.6908
X5.37Y-4.8608
X5.37Y-5.1608
X5.47Y-4.3908
X5.47Y-4.6908
X5.47Y-4.8608
X5.47Y-5.1608
X5.57Y-4.3908
X5.57Y-4.6908
X5.57Y-4.8608
X5.57Y-5.1608
X5.67Y-4.3908
X5.67Y-4.6908
X5.67Y-4.8608
X5.67Y-5.1608
X5.77Y-4.3908
X5.77Y-4.6908
X5.77Y-4.8608
X5.77Y-5.1608
X5.87Y-4.3908
X5.87Y-4.6908
X5.87Y-4.8608
X5.87Y-5.1608
X5.97Y-4.3908
X5.97Y-4.6908
X5.97Y-4.8608
X5.97Y-5.1608
X6.07Y-4.3908
X6.07Y-4.6908
X6.07Y-4.8608
X6.07Y-5.1608
X6.17Y-4.3908
X6.17Y-4.6908
X6.17Y-4.8608
X6.17Y-5.1608
X6.27Y-4.8608
X6.27Y-5.1608
X6.41Y-4.78
X6.4108Y-4.54
X6.4116Y-5.08
X6.5084Y-4.78
X6.5092Y-4.54
X6.51Y-5.08
X7.08Y-5.0608
X7.08Y-5.1592
X7.57Y-1.8733
X7.57Y-2.1733
X7.5705Y-2.4083
X7.5705Y-2.7083
X7.67Y-1.8733
X7.67Y-2.1733
X7.6705Y-2.4083
X7.6705Y-2.7083
X7.77Y-1.8733
X7.77Y-2.1733
X7.7705Y-2.4083
X7.7705Y-2.7083
T7
X5.5298Y-3.79
X5.53Y-3.09
X5.6298Y-3.79
X5.63Y-3.09
X5.8298Y-3.79
X5.83Y-3.09
X5.9298Y-3.79
X5.93Y-3.09
X6.1298Y-3.79
X6.13Y-3.09
X6.2298Y-3.79
X6.23Y-3.09
X6.4298Y-3.79
X6.5298Y-3.09
X6.5298Y-3.79
X6.6298Y-3.09
X6.8298Y-3.09
X6.9298Y-3.09
X7.1298Y-3.09
X7.2298Y-3.09
X7.4298Y-3.09
X7.5298Y-3.09
T8
X4.19Y-4.05
X4.19Y-4.15
X4.19Y-4.25
X4.19Y-4.35
X4.19Y-4.45
X4.19Y-4.55
X4.7Y-1.9
X4.7Y-2.5
X4.8Y-1.9
X4.8Y-2.5
X4.9Y-1.9
X4.9Y-2.5
X5.0Y-1.9
X5.0Y-2.5
X5.1Y-1.9
X5.1Y-2.5
X5.2Y-1.9
X5.2Y-2.5
X6.2Y-1.9
X6.2Y-2.5
X6.3Y-1.9
X6.3Y-2.5
X6.4Y-1.9
X6.4Y-2.5
X6.5Y-1.9
X6.5Y-2.5
X6.6Y-1.9
X6.6Y-2.5
X6.7Y-1.9
X6.7Y-2.5
X7.855Y-4.16
T9
X6.71Y-5.1034
X6.81Y-5.1034
X6.91Y-5.1034
M30
