%TF.GenerationSoftware,KiCad,Pcbnew,9.0.2+1*%
%TF.CreationDate,2025-06-30T02:26:09+02:00*%
%TF.ProjectId,isa_debug_card,6973615f-6465-4627-9567-5f636172642e,rev?*%
%TF.SameCoordinates,Original*%
%TF.FileFunction,Legend,Bot*%
%TF.FilePolarity,Positive*%
%FSLAX46Y46*%
G04 Gerber Fmt 4.6, Leading zero omitted, Abs format (unit mm)*
G04 Created by KiCad (PCBNEW 9.0.2+1) date 2025-06-30 02:26:09*
%MOMM*%
%LPD*%
G01*
G04 APERTURE LIST*
%ADD10C,0.100000*%
%ADD11C,0.150000*%
%ADD12C,0.400000*%
%ADD13C,0.300000*%
%ADD14C,0.220000*%
%ADD15C,0.187500*%
%ADD16C,0.200000*%
%ADD17C,0.250000*%
%ADD18C,0.000000*%
G04 APERTURE END LIST*
D10*
X189484000Y-83820000D02*
X189484000Y-103251000D01*
D11*
X137414000Y-95123000D02*
X137414000Y-83820000D01*
D10*
X163068000Y-94742000D02*
X163068000Y-83820000D01*
D11*
X137414000Y-110490000D02*
X137414000Y-97282000D01*
X168910000Y-103251000D02*
X168910000Y-83820000D01*
D10*
X184404000Y-103251000D02*
X184404000Y-83820000D01*
D11*
X137414000Y-83820000D02*
X167894000Y-83820000D01*
D10*
X157988000Y-97282000D02*
X157988000Y-110490000D01*
D11*
X199390000Y-83820000D02*
X199390000Y-103251000D01*
D10*
X199390000Y-86741000D02*
X168910000Y-86741000D01*
X152908000Y-110490000D02*
X152908000Y-97282000D01*
D11*
X168910000Y-83820000D02*
X199390000Y-83820000D01*
X168910000Y-103251000D02*
X199390000Y-103251000D01*
X167894000Y-97282000D02*
X167894000Y-110490000D01*
X167894000Y-83820000D02*
X167894000Y-94742000D01*
D12*
X201676000Y-43815000D02*
X201676000Y-135001000D01*
D11*
X137414000Y-110490000D02*
X167894000Y-110490000D01*
D10*
X163068000Y-110490000D02*
X163068000Y-97282000D01*
X194564000Y-103251000D02*
X194564000Y-83820000D01*
X157988000Y-83820000D02*
X157988000Y-94742000D01*
D13*
X200533000Y-127508000D02*
X180975000Y-127508000D01*
D10*
X167894000Y-86741000D02*
X137414000Y-86741000D01*
X152908000Y-94742000D02*
X152908000Y-83820000D01*
G36*
X200279000Y-126921000D02*
G01*
X200279000Y-124350295D01*
X199360891Y-124350295D01*
X199360891Y-124717538D01*
X199055966Y-124717538D01*
X199055966Y-124350295D01*
X198442782Y-124350295D01*
X198442782Y-124717538D01*
X198137857Y-124717538D01*
X198137857Y-126921000D01*
X198747707Y-126921000D01*
X198747707Y-125084782D01*
X199055966Y-125084782D01*
X199055966Y-126553756D01*
X199360891Y-126553756D01*
X199360891Y-125084782D01*
X199665816Y-125084782D01*
X199665816Y-126921000D01*
X200279000Y-126921000D01*
G37*
G36*
X197833445Y-126553756D02*
G01*
X197833445Y-125452025D01*
X197528520Y-125452025D01*
X197528520Y-125084782D01*
X196610411Y-125084782D01*
X196610411Y-124717538D01*
X197528520Y-124717538D01*
X197528520Y-124350295D01*
X196302152Y-124350295D01*
X196302152Y-124717538D01*
X195997227Y-124717538D01*
X195997227Y-126553756D01*
X195692302Y-126553756D01*
X195692302Y-126921000D01*
X196302152Y-126921000D01*
X196302152Y-126553756D01*
X196610411Y-126553756D01*
X196610411Y-125452025D01*
X197220261Y-125452025D01*
X197220261Y-126553756D01*
X196610411Y-126553756D01*
X196610411Y-126921000D01*
X197528520Y-126921000D01*
X197528520Y-126553756D01*
X197833445Y-126553756D01*
G37*
G36*
X195387890Y-124717538D02*
G01*
X195387890Y-124350295D01*
X194774706Y-124350295D01*
X194774706Y-124717538D01*
X194469781Y-124717538D01*
X194469781Y-126921000D01*
X195082965Y-126921000D01*
X195082965Y-124717538D01*
X195387890Y-124717538D01*
G37*
G36*
X194469781Y-124717538D02*
G01*
X194469781Y-124350295D01*
X193551672Y-124350295D01*
X193551672Y-124717538D01*
X193246747Y-124717538D01*
X193246747Y-126921000D01*
X193856597Y-126921000D01*
X193856597Y-124717538D01*
X194469781Y-124717538D01*
G37*
G36*
X192329151Y-126921000D02*
G01*
X192329151Y-126553756D01*
X192024226Y-126553756D01*
X192024226Y-124717538D01*
X192329151Y-124717538D01*
X192329151Y-124350295D01*
X191411042Y-124350295D01*
X191411042Y-126553756D01*
X191106117Y-126553756D01*
X191106117Y-126921000D01*
X192329151Y-126921000D01*
G37*
G36*
X192024226Y-123248564D02*
G01*
X191411042Y-123248564D01*
X191411042Y-123983051D01*
X192024226Y-123983051D01*
X192024226Y-123248564D01*
G37*
G36*
X190191855Y-124717538D02*
G01*
X190496780Y-124717538D01*
X190496780Y-126553756D01*
X190191855Y-126553756D01*
X190191855Y-126921000D01*
X188660563Y-126921000D01*
X188660563Y-126553756D01*
X188355638Y-126553756D01*
X188355638Y-126186512D01*
X188965488Y-126186512D01*
X188965488Y-126553756D01*
X189883596Y-126553756D01*
X189883596Y-125452025D01*
X188355638Y-125452025D01*
X188355638Y-125084782D01*
X188965488Y-125084782D01*
X189883596Y-125084782D01*
X189883596Y-124717538D01*
X188965488Y-124717538D01*
X188965488Y-125084782D01*
X188355638Y-125084782D01*
X188355638Y-124717538D01*
X188660563Y-124717538D01*
X188660563Y-124350295D01*
X190191855Y-124350295D01*
X190191855Y-124717538D01*
G37*
G36*
X188051226Y-126921000D02*
G01*
X188051226Y-126553756D01*
X187746301Y-126553756D01*
X187746301Y-123615808D01*
X188051226Y-123615808D01*
X188051226Y-123248564D01*
X187133117Y-123248564D01*
X187133117Y-125084782D01*
X186828192Y-125084782D01*
X186828192Y-124717538D01*
X186519933Y-124717538D01*
X186519933Y-124350295D01*
X185910083Y-124350295D01*
X185910083Y-124717538D01*
X186215008Y-124717538D01*
X186215008Y-125084782D01*
X186519933Y-125084782D01*
X186519933Y-125819269D01*
X186215008Y-125819269D01*
X186215008Y-126186512D01*
X185910083Y-126186512D01*
X185910083Y-126921000D01*
X186519933Y-126921000D01*
X186519933Y-126186512D01*
X186828192Y-126186512D01*
X186828192Y-125819269D01*
X187133117Y-125819269D01*
X187133117Y-126921000D01*
X188051226Y-126921000D01*
G37*
G36*
X185300746Y-123615808D02*
G01*
X185605671Y-123615808D01*
X185605671Y-124717538D01*
X185300746Y-124717538D01*
X185300746Y-125084782D01*
X185605671Y-125084782D01*
X185605671Y-126553756D01*
X185300746Y-126553756D01*
X185300746Y-126921000D01*
X183769453Y-126921000D01*
X183769453Y-126553756D01*
X184074378Y-126553756D01*
X184992487Y-126553756D01*
X184992487Y-125084782D01*
X184074378Y-125084782D01*
X184074378Y-126553756D01*
X183769453Y-126553756D01*
X183464528Y-126553756D01*
X183464528Y-125084782D01*
X183769453Y-125084782D01*
X183769453Y-124717538D01*
X184074378Y-124717538D01*
X184992487Y-124717538D01*
X184992487Y-123615808D01*
X184074378Y-123615808D01*
X184074378Y-124717538D01*
X183769453Y-124717538D01*
X183464528Y-124717538D01*
X183464528Y-123615808D01*
X183769453Y-123615808D01*
X183769453Y-123248564D01*
X185300746Y-123248564D01*
X185300746Y-123615808D01*
G37*
G36*
X182546932Y-123615808D02*
G01*
X182855191Y-123615808D01*
X182855191Y-123983051D01*
X183160116Y-123983051D01*
X183160116Y-126553756D01*
X182855191Y-126553756D01*
X182855191Y-126921000D01*
X181323898Y-126921000D01*
X181323898Y-126553756D01*
X181628823Y-126553756D01*
X182546932Y-126553756D01*
X182546932Y-125084782D01*
X181628823Y-125084782D01*
X181628823Y-126553756D01*
X181323898Y-126553756D01*
X181018973Y-126553756D01*
X181018973Y-125084782D01*
X181323898Y-125084782D01*
X181323898Y-124717538D01*
X182546932Y-124717538D01*
X182546932Y-123983051D01*
X182242007Y-123983051D01*
X182242007Y-123615808D01*
X181628823Y-123615808D01*
X181628823Y-123248564D01*
X182546932Y-123248564D01*
X182546932Y-123615808D01*
G37*
D14*
X196578549Y-86229083D02*
X197435692Y-86229083D01*
X197007121Y-86229083D02*
X197007121Y-84529083D01*
X197007121Y-84529083D02*
X197149978Y-84771940D01*
X197149978Y-84771940D02*
X197292835Y-84933845D01*
X197292835Y-84933845D02*
X197435692Y-85014797D01*
X197364264Y-88318369D02*
X196221407Y-88318369D01*
X198221406Y-90002893D02*
X197935692Y-90002893D01*
X197935692Y-90002893D02*
X197792835Y-90083845D01*
X197792835Y-90083845D02*
X197649978Y-90245750D01*
X197649978Y-90245750D02*
X197578549Y-90569560D01*
X197578549Y-90569560D02*
X197578549Y-91136226D01*
X197578549Y-91136226D02*
X197649978Y-91460036D01*
X197649978Y-91460036D02*
X197792835Y-91621941D01*
X197792835Y-91621941D02*
X197935692Y-91702893D01*
X197935692Y-91702893D02*
X198221406Y-91702893D01*
X198221406Y-91702893D02*
X198364264Y-91621941D01*
X198364264Y-91621941D02*
X198507121Y-91460036D01*
X198507121Y-91460036D02*
X198578549Y-91136226D01*
X198578549Y-91136226D02*
X198578549Y-90569560D01*
X198578549Y-90569560D02*
X198507121Y-90245750D01*
X198507121Y-90245750D02*
X198364264Y-90083845D01*
X198364264Y-90083845D02*
X198221406Y-90002893D01*
X196935692Y-91702893D02*
X196935692Y-90002893D01*
X196935692Y-90002893D02*
X196078549Y-91702893D01*
X196078549Y-91702893D02*
X196078549Y-90002893D01*
X198221406Y-92739798D02*
X197935692Y-92739798D01*
X197935692Y-92739798D02*
X197792835Y-92820750D01*
X197792835Y-92820750D02*
X197649978Y-92982655D01*
X197649978Y-92982655D02*
X197578549Y-93306465D01*
X197578549Y-93306465D02*
X197578549Y-93873131D01*
X197578549Y-93873131D02*
X197649978Y-94196941D01*
X197649978Y-94196941D02*
X197792835Y-94358846D01*
X197792835Y-94358846D02*
X197935692Y-94439798D01*
X197935692Y-94439798D02*
X198221406Y-94439798D01*
X198221406Y-94439798D02*
X198364264Y-94358846D01*
X198364264Y-94358846D02*
X198507121Y-94196941D01*
X198507121Y-94196941D02*
X198578549Y-93873131D01*
X198578549Y-93873131D02*
X198578549Y-93306465D01*
X198578549Y-93306465D02*
X198507121Y-92982655D01*
X198507121Y-92982655D02*
X198364264Y-92820750D01*
X198364264Y-92820750D02*
X198221406Y-92739798D01*
X196935692Y-94439798D02*
X196935692Y-92739798D01*
X196935692Y-92739798D02*
X196078549Y-94439798D01*
X196078549Y-94439798D02*
X196078549Y-92739798D01*
X197364264Y-96529084D02*
X196221407Y-96529084D01*
X197364264Y-99265989D02*
X196221407Y-99265989D01*
X198221406Y-100950513D02*
X197935692Y-100950513D01*
X197935692Y-100950513D02*
X197792835Y-101031465D01*
X197792835Y-101031465D02*
X197649978Y-101193370D01*
X197649978Y-101193370D02*
X197578549Y-101517180D01*
X197578549Y-101517180D02*
X197578549Y-102083846D01*
X197578549Y-102083846D02*
X197649978Y-102407656D01*
X197649978Y-102407656D02*
X197792835Y-102569561D01*
X197792835Y-102569561D02*
X197935692Y-102650513D01*
X197935692Y-102650513D02*
X198221406Y-102650513D01*
X198221406Y-102650513D02*
X198364264Y-102569561D01*
X198364264Y-102569561D02*
X198507121Y-102407656D01*
X198507121Y-102407656D02*
X198578549Y-102083846D01*
X198578549Y-102083846D02*
X198578549Y-101517180D01*
X198578549Y-101517180D02*
X198507121Y-101193370D01*
X198507121Y-101193370D02*
X198364264Y-101031465D01*
X198364264Y-101031465D02*
X198221406Y-100950513D01*
X196935692Y-102650513D02*
X196935692Y-100950513D01*
X196935692Y-100950513D02*
X196078549Y-102650513D01*
X196078549Y-102650513D02*
X196078549Y-100950513D01*
X192609692Y-84690988D02*
X192538264Y-84610035D01*
X192538264Y-84610035D02*
X192395407Y-84529083D01*
X192395407Y-84529083D02*
X192038264Y-84529083D01*
X192038264Y-84529083D02*
X191895407Y-84610035D01*
X191895407Y-84610035D02*
X191823978Y-84690988D01*
X191823978Y-84690988D02*
X191752549Y-84852892D01*
X191752549Y-84852892D02*
X191752549Y-85014797D01*
X191752549Y-85014797D02*
X191823978Y-85257654D01*
X191823978Y-85257654D02*
X192681121Y-86229083D01*
X192681121Y-86229083D02*
X191752549Y-86229083D01*
X192538264Y-88318369D02*
X191395407Y-88318369D01*
X192538264Y-91055274D02*
X191395407Y-91055274D01*
X192538264Y-93792179D02*
X191395407Y-93792179D01*
X193395406Y-95476703D02*
X193109692Y-95476703D01*
X193109692Y-95476703D02*
X192966835Y-95557655D01*
X192966835Y-95557655D02*
X192823978Y-95719560D01*
X192823978Y-95719560D02*
X192752549Y-96043370D01*
X192752549Y-96043370D02*
X192752549Y-96610036D01*
X192752549Y-96610036D02*
X192823978Y-96933846D01*
X192823978Y-96933846D02*
X192966835Y-97095751D01*
X192966835Y-97095751D02*
X193109692Y-97176703D01*
X193109692Y-97176703D02*
X193395406Y-97176703D01*
X193395406Y-97176703D02*
X193538264Y-97095751D01*
X193538264Y-97095751D02*
X193681121Y-96933846D01*
X193681121Y-96933846D02*
X193752549Y-96610036D01*
X193752549Y-96610036D02*
X193752549Y-96043370D01*
X193752549Y-96043370D02*
X193681121Y-95719560D01*
X193681121Y-95719560D02*
X193538264Y-95557655D01*
X193538264Y-95557655D02*
X193395406Y-95476703D01*
X192109692Y-97176703D02*
X192109692Y-95476703D01*
X192109692Y-95476703D02*
X191252549Y-97176703D01*
X191252549Y-97176703D02*
X191252549Y-95476703D01*
X193395406Y-98213608D02*
X193109692Y-98213608D01*
X193109692Y-98213608D02*
X192966835Y-98294560D01*
X192966835Y-98294560D02*
X192823978Y-98456465D01*
X192823978Y-98456465D02*
X192752549Y-98780275D01*
X192752549Y-98780275D02*
X192752549Y-99346941D01*
X192752549Y-99346941D02*
X192823978Y-99670751D01*
X192823978Y-99670751D02*
X192966835Y-99832656D01*
X192966835Y-99832656D02*
X193109692Y-99913608D01*
X193109692Y-99913608D02*
X193395406Y-99913608D01*
X193395406Y-99913608D02*
X193538264Y-99832656D01*
X193538264Y-99832656D02*
X193681121Y-99670751D01*
X193681121Y-99670751D02*
X193752549Y-99346941D01*
X193752549Y-99346941D02*
X193752549Y-98780275D01*
X193752549Y-98780275D02*
X193681121Y-98456465D01*
X193681121Y-98456465D02*
X193538264Y-98294560D01*
X193538264Y-98294560D02*
X193395406Y-98213608D01*
X192109692Y-99913608D02*
X192109692Y-98213608D01*
X192109692Y-98213608D02*
X191252549Y-99913608D01*
X191252549Y-99913608D02*
X191252549Y-98213608D01*
X193395406Y-100950513D02*
X193109692Y-100950513D01*
X193109692Y-100950513D02*
X192966835Y-101031465D01*
X192966835Y-101031465D02*
X192823978Y-101193370D01*
X192823978Y-101193370D02*
X192752549Y-101517180D01*
X192752549Y-101517180D02*
X192752549Y-102083846D01*
X192752549Y-102083846D02*
X192823978Y-102407656D01*
X192823978Y-102407656D02*
X192966835Y-102569561D01*
X192966835Y-102569561D02*
X193109692Y-102650513D01*
X193109692Y-102650513D02*
X193395406Y-102650513D01*
X193395406Y-102650513D02*
X193538264Y-102569561D01*
X193538264Y-102569561D02*
X193681121Y-102407656D01*
X193681121Y-102407656D02*
X193752549Y-102083846D01*
X193752549Y-102083846D02*
X193752549Y-101517180D01*
X193752549Y-101517180D02*
X193681121Y-101193370D01*
X193681121Y-101193370D02*
X193538264Y-101031465D01*
X193538264Y-101031465D02*
X193395406Y-100950513D01*
X192109692Y-102650513D02*
X192109692Y-100950513D01*
X192109692Y-100950513D02*
X191252549Y-102650513D01*
X191252549Y-102650513D02*
X191252549Y-100950513D01*
X155962264Y-98548274D02*
X154819407Y-98548274D01*
X156819406Y-100232798D02*
X156533692Y-100232798D01*
X156533692Y-100232798D02*
X156390835Y-100313750D01*
X156390835Y-100313750D02*
X156247978Y-100475655D01*
X156247978Y-100475655D02*
X156176549Y-100799465D01*
X156176549Y-100799465D02*
X156176549Y-101366131D01*
X156176549Y-101366131D02*
X156247978Y-101689941D01*
X156247978Y-101689941D02*
X156390835Y-101851846D01*
X156390835Y-101851846D02*
X156533692Y-101932798D01*
X156533692Y-101932798D02*
X156819406Y-101932798D01*
X156819406Y-101932798D02*
X156962264Y-101851846D01*
X156962264Y-101851846D02*
X157105121Y-101689941D01*
X157105121Y-101689941D02*
X157176549Y-101366131D01*
X157176549Y-101366131D02*
X157176549Y-100799465D01*
X157176549Y-100799465D02*
X157105121Y-100475655D01*
X157105121Y-100475655D02*
X156962264Y-100313750D01*
X156962264Y-100313750D02*
X156819406Y-100232798D01*
X155533692Y-101932798D02*
X155533692Y-100232798D01*
X155533692Y-100232798D02*
X154676549Y-101932798D01*
X154676549Y-101932798D02*
X154676549Y-100232798D01*
X156819406Y-102969703D02*
X156533692Y-102969703D01*
X156533692Y-102969703D02*
X156390835Y-103050655D01*
X156390835Y-103050655D02*
X156247978Y-103212560D01*
X156247978Y-103212560D02*
X156176549Y-103536370D01*
X156176549Y-103536370D02*
X156176549Y-104103036D01*
X156176549Y-104103036D02*
X156247978Y-104426846D01*
X156247978Y-104426846D02*
X156390835Y-104588751D01*
X156390835Y-104588751D02*
X156533692Y-104669703D01*
X156533692Y-104669703D02*
X156819406Y-104669703D01*
X156819406Y-104669703D02*
X156962264Y-104588751D01*
X156962264Y-104588751D02*
X157105121Y-104426846D01*
X157105121Y-104426846D02*
X157176549Y-104103036D01*
X157176549Y-104103036D02*
X157176549Y-103536370D01*
X157176549Y-103536370D02*
X157105121Y-103212560D01*
X157105121Y-103212560D02*
X156962264Y-103050655D01*
X156962264Y-103050655D02*
X156819406Y-102969703D01*
X155533692Y-104669703D02*
X155533692Y-102969703D01*
X155533692Y-102969703D02*
X154676549Y-104669703D01*
X154676549Y-104669703D02*
X154676549Y-102969703D01*
X156819406Y-105706608D02*
X156533692Y-105706608D01*
X156533692Y-105706608D02*
X156390835Y-105787560D01*
X156390835Y-105787560D02*
X156247978Y-105949465D01*
X156247978Y-105949465D02*
X156176549Y-106273275D01*
X156176549Y-106273275D02*
X156176549Y-106839941D01*
X156176549Y-106839941D02*
X156247978Y-107163751D01*
X156247978Y-107163751D02*
X156390835Y-107325656D01*
X156390835Y-107325656D02*
X156533692Y-107406608D01*
X156533692Y-107406608D02*
X156819406Y-107406608D01*
X156819406Y-107406608D02*
X156962264Y-107325656D01*
X156962264Y-107325656D02*
X157105121Y-107163751D01*
X157105121Y-107163751D02*
X157176549Y-106839941D01*
X157176549Y-106839941D02*
X157176549Y-106273275D01*
X157176549Y-106273275D02*
X157105121Y-105949465D01*
X157105121Y-105949465D02*
X156962264Y-105787560D01*
X156962264Y-105787560D02*
X156819406Y-105706608D01*
X155533692Y-107406608D02*
X155533692Y-105706608D01*
X155533692Y-105706608D02*
X154676549Y-107406608D01*
X154676549Y-107406608D02*
X154676549Y-105706608D01*
X156819406Y-108443513D02*
X156533692Y-108443513D01*
X156533692Y-108443513D02*
X156390835Y-108524465D01*
X156390835Y-108524465D02*
X156247978Y-108686370D01*
X156247978Y-108686370D02*
X156176549Y-109010180D01*
X156176549Y-109010180D02*
X156176549Y-109576846D01*
X156176549Y-109576846D02*
X156247978Y-109900656D01*
X156247978Y-109900656D02*
X156390835Y-110062561D01*
X156390835Y-110062561D02*
X156533692Y-110143513D01*
X156533692Y-110143513D02*
X156819406Y-110143513D01*
X156819406Y-110143513D02*
X156962264Y-110062561D01*
X156962264Y-110062561D02*
X157105121Y-109900656D01*
X157105121Y-109900656D02*
X157176549Y-109576846D01*
X157176549Y-109576846D02*
X157176549Y-109010180D01*
X157176549Y-109010180D02*
X157105121Y-108686370D01*
X157105121Y-108686370D02*
X156962264Y-108524465D01*
X156962264Y-108524465D02*
X156819406Y-108443513D01*
X155533692Y-110143513D02*
X155533692Y-108443513D01*
X155533692Y-108443513D02*
X154676549Y-110143513D01*
X154676549Y-110143513D02*
X154676549Y-108443513D01*
D10*
X193371115Y-104266466D02*
X192609211Y-104266466D01*
X191371115Y-104123609D02*
X190609211Y-104123609D01*
X190609211Y-104409323D02*
X191371115Y-104409323D01*
X189228258Y-104647419D02*
X189323496Y-104599800D01*
X189323496Y-104599800D02*
X189371115Y-104552180D01*
X189371115Y-104552180D02*
X189418734Y-104456942D01*
X189418734Y-104456942D02*
X189418734Y-104171228D01*
X189418734Y-104171228D02*
X189371115Y-104075990D01*
X189371115Y-104075990D02*
X189323496Y-104028371D01*
X189323496Y-104028371D02*
X189228258Y-103980752D01*
X189228258Y-103980752D02*
X189085401Y-103980752D01*
X189085401Y-103980752D02*
X188990163Y-104028371D01*
X188990163Y-104028371D02*
X188942544Y-104075990D01*
X188942544Y-104075990D02*
X188894925Y-104171228D01*
X188894925Y-104171228D02*
X188894925Y-104456942D01*
X188894925Y-104456942D02*
X188942544Y-104552180D01*
X188942544Y-104552180D02*
X188990163Y-104599800D01*
X188990163Y-104599800D02*
X189085401Y-104647419D01*
X189085401Y-104647419D02*
X189228258Y-104647419D01*
X188609210Y-103980752D02*
X188228258Y-103980752D01*
X188466353Y-104647419D02*
X188466353Y-103790276D01*
X188466353Y-103790276D02*
X188418734Y-103695038D01*
X188418734Y-103695038D02*
X188323496Y-103647419D01*
X188323496Y-103647419D02*
X188228258Y-103647419D01*
X188037781Y-103980752D02*
X187656829Y-103980752D01*
X187894924Y-104647419D02*
X187894924Y-103790276D01*
X187894924Y-103790276D02*
X187847305Y-103695038D01*
X187847305Y-103695038D02*
X187752067Y-103647419D01*
X187752067Y-103647419D02*
X187656829Y-103647419D01*
X183133018Y-104599800D02*
X183228256Y-104647419D01*
X183228256Y-104647419D02*
X183418732Y-104647419D01*
X183418732Y-104647419D02*
X183513970Y-104599800D01*
X183513970Y-104599800D02*
X183561589Y-104504561D01*
X183561589Y-104504561D02*
X183561589Y-104123609D01*
X183561589Y-104123609D02*
X183513970Y-104028371D01*
X183513970Y-104028371D02*
X183418732Y-103980752D01*
X183418732Y-103980752D02*
X183228256Y-103980752D01*
X183228256Y-103980752D02*
X183133018Y-104028371D01*
X183133018Y-104028371D02*
X183085399Y-104123609D01*
X183085399Y-104123609D02*
X183085399Y-104218847D01*
X183085399Y-104218847D02*
X183561589Y-104314085D01*
X182656827Y-104647419D02*
X182656827Y-103980752D01*
X182656827Y-104075990D02*
X182609208Y-104028371D01*
X182609208Y-104028371D02*
X182513970Y-103980752D01*
X182513970Y-103980752D02*
X182371113Y-103980752D01*
X182371113Y-103980752D02*
X182275875Y-104028371D01*
X182275875Y-104028371D02*
X182228256Y-104123609D01*
X182228256Y-104123609D02*
X182228256Y-104647419D01*
X182228256Y-104123609D02*
X182180637Y-104028371D01*
X182180637Y-104028371D02*
X182085399Y-103980752D01*
X182085399Y-103980752D02*
X181942542Y-103980752D01*
X181942542Y-103980752D02*
X181847303Y-104028371D01*
X181847303Y-104028371D02*
X181799684Y-104123609D01*
X181799684Y-104123609D02*
X181799684Y-104647419D01*
X181323494Y-103980752D02*
X181323494Y-104980752D01*
X181323494Y-104028371D02*
X181228256Y-103980752D01*
X181228256Y-103980752D02*
X181037780Y-103980752D01*
X181037780Y-103980752D02*
X180942542Y-104028371D01*
X180942542Y-104028371D02*
X180894923Y-104075990D01*
X180894923Y-104075990D02*
X180847304Y-104171228D01*
X180847304Y-104171228D02*
X180847304Y-104456942D01*
X180847304Y-104456942D02*
X180894923Y-104552180D01*
X180894923Y-104552180D02*
X180942542Y-104599800D01*
X180942542Y-104599800D02*
X181037780Y-104647419D01*
X181037780Y-104647419D02*
X181228256Y-104647419D01*
X181228256Y-104647419D02*
X181323494Y-104599800D01*
X180561589Y-103980752D02*
X180180637Y-103980752D01*
X180418732Y-103647419D02*
X180418732Y-104504561D01*
X180418732Y-104504561D02*
X180371113Y-104599800D01*
X180371113Y-104599800D02*
X180275875Y-104647419D01*
X180275875Y-104647419D02*
X180180637Y-104647419D01*
X179942541Y-103980752D02*
X179704446Y-104647419D01*
X179466351Y-103980752D02*
X179704446Y-104647419D01*
X179704446Y-104647419D02*
X179799684Y-104885514D01*
X179799684Y-104885514D02*
X179847303Y-104933133D01*
X179847303Y-104933133D02*
X179942541Y-104980752D01*
X178323493Y-104123609D02*
X177561589Y-104123609D01*
X177561589Y-104409323D02*
X178323493Y-104409323D01*
X175894922Y-104647419D02*
X175894922Y-103647419D01*
X175894922Y-104599800D02*
X175990160Y-104647419D01*
X175990160Y-104647419D02*
X176180636Y-104647419D01*
X176180636Y-104647419D02*
X176275874Y-104599800D01*
X176275874Y-104599800D02*
X176323493Y-104552180D01*
X176323493Y-104552180D02*
X176371112Y-104456942D01*
X176371112Y-104456942D02*
X176371112Y-104171228D01*
X176371112Y-104171228D02*
X176323493Y-104075990D01*
X176323493Y-104075990D02*
X176275874Y-104028371D01*
X176275874Y-104028371D02*
X176180636Y-103980752D01*
X176180636Y-103980752D02*
X175990160Y-103980752D01*
X175990160Y-103980752D02*
X175894922Y-104028371D01*
X175275874Y-104647419D02*
X175371112Y-104599800D01*
X175371112Y-104599800D02*
X175418731Y-104552180D01*
X175418731Y-104552180D02*
X175466350Y-104456942D01*
X175466350Y-104456942D02*
X175466350Y-104171228D01*
X175466350Y-104171228D02*
X175418731Y-104075990D01*
X175418731Y-104075990D02*
X175371112Y-104028371D01*
X175371112Y-104028371D02*
X175275874Y-103980752D01*
X175275874Y-103980752D02*
X175133017Y-103980752D01*
X175133017Y-103980752D02*
X175037779Y-104028371D01*
X175037779Y-104028371D02*
X174990160Y-104075990D01*
X174990160Y-104075990D02*
X174942541Y-104171228D01*
X174942541Y-104171228D02*
X174942541Y-104456942D01*
X174942541Y-104456942D02*
X174990160Y-104552180D01*
X174990160Y-104552180D02*
X175037779Y-104599800D01*
X175037779Y-104599800D02*
X175133017Y-104647419D01*
X175133017Y-104647419D02*
X175275874Y-104647419D01*
X174513969Y-103980752D02*
X174513969Y-104647419D01*
X174513969Y-104075990D02*
X174466350Y-104028371D01*
X174466350Y-104028371D02*
X174371112Y-103980752D01*
X174371112Y-103980752D02*
X174228255Y-103980752D01*
X174228255Y-103980752D02*
X174133017Y-104028371D01*
X174133017Y-104028371D02*
X174085398Y-104123609D01*
X174085398Y-104123609D02*
X174085398Y-104647419D01*
X173561588Y-103647419D02*
X173656826Y-103837895D01*
X173275874Y-103980752D02*
X172894922Y-103980752D01*
X173133017Y-103647419D02*
X173133017Y-104504561D01*
X173133017Y-104504561D02*
X173085398Y-104599800D01*
X173085398Y-104599800D02*
X172990160Y-104647419D01*
X172990160Y-104647419D02*
X172894922Y-104647419D01*
X171371112Y-104599800D02*
X171466350Y-104647419D01*
X171466350Y-104647419D02*
X171656826Y-104647419D01*
X171656826Y-104647419D02*
X171752064Y-104599800D01*
X171752064Y-104599800D02*
X171799683Y-104552180D01*
X171799683Y-104552180D02*
X171847302Y-104456942D01*
X171847302Y-104456942D02*
X171847302Y-104171228D01*
X171847302Y-104171228D02*
X171799683Y-104075990D01*
X171799683Y-104075990D02*
X171752064Y-104028371D01*
X171752064Y-104028371D02*
X171656826Y-103980752D01*
X171656826Y-103980752D02*
X171466350Y-103980752D01*
X171466350Y-103980752D02*
X171371112Y-104028371D01*
X170513969Y-104647419D02*
X170513969Y-104123609D01*
X170513969Y-104123609D02*
X170561588Y-104028371D01*
X170561588Y-104028371D02*
X170656826Y-103980752D01*
X170656826Y-103980752D02*
X170847302Y-103980752D01*
X170847302Y-103980752D02*
X170942540Y-104028371D01*
X170513969Y-104599800D02*
X170609207Y-104647419D01*
X170609207Y-104647419D02*
X170847302Y-104647419D01*
X170847302Y-104647419D02*
X170942540Y-104599800D01*
X170942540Y-104599800D02*
X170990159Y-104504561D01*
X170990159Y-104504561D02*
X170990159Y-104409323D01*
X170990159Y-104409323D02*
X170942540Y-104314085D01*
X170942540Y-104314085D02*
X170847302Y-104266466D01*
X170847302Y-104266466D02*
X170609207Y-104266466D01*
X170609207Y-104266466D02*
X170513969Y-104218847D01*
X170037778Y-104647419D02*
X170037778Y-103980752D01*
X170037778Y-104171228D02*
X169990159Y-104075990D01*
X169990159Y-104075990D02*
X169942540Y-104028371D01*
X169942540Y-104028371D02*
X169847302Y-103980752D01*
X169847302Y-103980752D02*
X169752064Y-103980752D01*
X169037778Y-104599800D02*
X169133016Y-104647419D01*
X169133016Y-104647419D02*
X169323492Y-104647419D01*
X169323492Y-104647419D02*
X169418730Y-104599800D01*
X169418730Y-104599800D02*
X169466349Y-104504561D01*
X169466349Y-104504561D02*
X169466349Y-104123609D01*
X169466349Y-104123609D02*
X169418730Y-104028371D01*
X169418730Y-104028371D02*
X169323492Y-103980752D01*
X169323492Y-103980752D02*
X169133016Y-103980752D01*
X169133016Y-103980752D02*
X169037778Y-104028371D01*
X169037778Y-104028371D02*
X168990159Y-104123609D01*
X168990159Y-104123609D02*
X168990159Y-104218847D01*
X168990159Y-104218847D02*
X169466349Y-104314085D01*
D15*
X148371502Y-53627132D02*
X148871502Y-53627132D01*
X148871502Y-54412846D02*
X148871502Y-52912846D01*
X148871502Y-52912846D02*
X148157216Y-52912846D01*
X147585788Y-54412846D02*
X147585788Y-53412846D01*
X147585788Y-53698560D02*
X147514359Y-53555703D01*
X147514359Y-53555703D02*
X147442931Y-53484275D01*
X147442931Y-53484275D02*
X147300073Y-53412846D01*
X147300073Y-53412846D02*
X147157216Y-53412846D01*
X146085788Y-54341418D02*
X146228645Y-54412846D01*
X146228645Y-54412846D02*
X146514360Y-54412846D01*
X146514360Y-54412846D02*
X146657217Y-54341418D01*
X146657217Y-54341418D02*
X146728645Y-54198560D01*
X146728645Y-54198560D02*
X146728645Y-53627132D01*
X146728645Y-53627132D02*
X146657217Y-53484275D01*
X146657217Y-53484275D02*
X146514360Y-53412846D01*
X146514360Y-53412846D02*
X146228645Y-53412846D01*
X146228645Y-53412846D02*
X146085788Y-53484275D01*
X146085788Y-53484275D02*
X146014360Y-53627132D01*
X146014360Y-53627132D02*
X146014360Y-53769989D01*
X146014360Y-53769989D02*
X146728645Y-53912846D01*
X144728646Y-53412846D02*
X144728646Y-54912846D01*
X144728646Y-54341418D02*
X144871503Y-54412846D01*
X144871503Y-54412846D02*
X145157217Y-54412846D01*
X145157217Y-54412846D02*
X145300074Y-54341418D01*
X145300074Y-54341418D02*
X145371503Y-54269989D01*
X145371503Y-54269989D02*
X145442931Y-54127132D01*
X145442931Y-54127132D02*
X145442931Y-53698560D01*
X145442931Y-53698560D02*
X145371503Y-53555703D01*
X145371503Y-53555703D02*
X145300074Y-53484275D01*
X145300074Y-53484275D02*
X145157217Y-53412846D01*
X145157217Y-53412846D02*
X144871503Y-53412846D01*
X144871503Y-53412846D02*
X144728646Y-53484275D01*
X142228646Y-54412846D02*
X142228646Y-52912846D01*
X142228646Y-54341418D02*
X142371503Y-54412846D01*
X142371503Y-54412846D02*
X142657217Y-54412846D01*
X142657217Y-54412846D02*
X142800074Y-54341418D01*
X142800074Y-54341418D02*
X142871503Y-54269989D01*
X142871503Y-54269989D02*
X142942931Y-54127132D01*
X142942931Y-54127132D02*
X142942931Y-53698560D01*
X142942931Y-53698560D02*
X142871503Y-53555703D01*
X142871503Y-53555703D02*
X142800074Y-53484275D01*
X142800074Y-53484275D02*
X142657217Y-53412846D01*
X142657217Y-53412846D02*
X142371503Y-53412846D01*
X142371503Y-53412846D02*
X142228646Y-53484275D01*
X141514360Y-54412846D02*
X141514360Y-53412846D01*
X141514360Y-52912846D02*
X141585788Y-52984275D01*
X141585788Y-52984275D02*
X141514360Y-53055703D01*
X141514360Y-53055703D02*
X141442931Y-52984275D01*
X141442931Y-52984275D02*
X141514360Y-52912846D01*
X141514360Y-52912846D02*
X141514360Y-53055703D01*
X140871502Y-54341418D02*
X140728645Y-54412846D01*
X140728645Y-54412846D02*
X140442931Y-54412846D01*
X140442931Y-54412846D02*
X140300074Y-54341418D01*
X140300074Y-54341418D02*
X140228645Y-54198560D01*
X140228645Y-54198560D02*
X140228645Y-54127132D01*
X140228645Y-54127132D02*
X140300074Y-53984275D01*
X140300074Y-53984275D02*
X140442931Y-53912846D01*
X140442931Y-53912846D02*
X140657217Y-53912846D01*
X140657217Y-53912846D02*
X140800074Y-53841418D01*
X140800074Y-53841418D02*
X140871502Y-53698560D01*
X140871502Y-53698560D02*
X140871502Y-53627132D01*
X140871502Y-53627132D02*
X140800074Y-53484275D01*
X140800074Y-53484275D02*
X140657217Y-53412846D01*
X140657217Y-53412846D02*
X140442931Y-53412846D01*
X140442931Y-53412846D02*
X140300074Y-53484275D01*
X139585788Y-53412846D02*
X139585788Y-54912846D01*
X139585788Y-53484275D02*
X139442931Y-53412846D01*
X139442931Y-53412846D02*
X139157216Y-53412846D01*
X139157216Y-53412846D02*
X139014359Y-53484275D01*
X139014359Y-53484275D02*
X138942931Y-53555703D01*
X138942931Y-53555703D02*
X138871502Y-53698560D01*
X138871502Y-53698560D02*
X138871502Y-54127132D01*
X138871502Y-54127132D02*
X138942931Y-54269989D01*
X138942931Y-54269989D02*
X139014359Y-54341418D01*
X139014359Y-54341418D02*
X139157216Y-54412846D01*
X139157216Y-54412846D02*
X139442931Y-54412846D01*
X139442931Y-54412846D02*
X139585788Y-54341418D01*
X138228645Y-54269989D02*
X138157216Y-54341418D01*
X138157216Y-54341418D02*
X138228645Y-54412846D01*
X138228645Y-54412846D02*
X138300073Y-54341418D01*
X138300073Y-54341418D02*
X138228645Y-54269989D01*
X138228645Y-54269989D02*
X138228645Y-54412846D01*
X138228645Y-53484275D02*
X138157216Y-53555703D01*
X138157216Y-53555703D02*
X138228645Y-53627132D01*
X138228645Y-53627132D02*
X138300073Y-53555703D01*
X138300073Y-53555703D02*
X138228645Y-53484275D01*
X138228645Y-53484275D02*
X138228645Y-53627132D01*
X136157216Y-53555703D02*
X136300073Y-53484275D01*
X136300073Y-53484275D02*
X136371502Y-53412846D01*
X136371502Y-53412846D02*
X136442930Y-53269989D01*
X136442930Y-53269989D02*
X136442930Y-53198560D01*
X136442930Y-53198560D02*
X136371502Y-53055703D01*
X136371502Y-53055703D02*
X136300073Y-52984275D01*
X136300073Y-52984275D02*
X136157216Y-52912846D01*
X136157216Y-52912846D02*
X135871502Y-52912846D01*
X135871502Y-52912846D02*
X135728645Y-52984275D01*
X135728645Y-52984275D02*
X135657216Y-53055703D01*
X135657216Y-53055703D02*
X135585787Y-53198560D01*
X135585787Y-53198560D02*
X135585787Y-53269989D01*
X135585787Y-53269989D02*
X135657216Y-53412846D01*
X135657216Y-53412846D02*
X135728645Y-53484275D01*
X135728645Y-53484275D02*
X135871502Y-53555703D01*
X135871502Y-53555703D02*
X136157216Y-53555703D01*
X136157216Y-53555703D02*
X136300073Y-53627132D01*
X136300073Y-53627132D02*
X136371502Y-53698560D01*
X136371502Y-53698560D02*
X136442930Y-53841418D01*
X136442930Y-53841418D02*
X136442930Y-54127132D01*
X136442930Y-54127132D02*
X136371502Y-54269989D01*
X136371502Y-54269989D02*
X136300073Y-54341418D01*
X136300073Y-54341418D02*
X136157216Y-54412846D01*
X136157216Y-54412846D02*
X135871502Y-54412846D01*
X135871502Y-54412846D02*
X135728645Y-54341418D01*
X135728645Y-54341418D02*
X135657216Y-54269989D01*
X135657216Y-54269989D02*
X135585787Y-54127132D01*
X135585787Y-54127132D02*
X135585787Y-53841418D01*
X135585787Y-53841418D02*
X135657216Y-53698560D01*
X135657216Y-53698560D02*
X135728645Y-53627132D01*
X135728645Y-53627132D02*
X135871502Y-53555703D01*
X134728645Y-53555703D02*
X134871502Y-53484275D01*
X134871502Y-53484275D02*
X134942931Y-53412846D01*
X134942931Y-53412846D02*
X135014359Y-53269989D01*
X135014359Y-53269989D02*
X135014359Y-53198560D01*
X135014359Y-53198560D02*
X134942931Y-53055703D01*
X134942931Y-53055703D02*
X134871502Y-52984275D01*
X134871502Y-52984275D02*
X134728645Y-52912846D01*
X134728645Y-52912846D02*
X134442931Y-52912846D01*
X134442931Y-52912846D02*
X134300074Y-52984275D01*
X134300074Y-52984275D02*
X134228645Y-53055703D01*
X134228645Y-53055703D02*
X134157216Y-53198560D01*
X134157216Y-53198560D02*
X134157216Y-53269989D01*
X134157216Y-53269989D02*
X134228645Y-53412846D01*
X134228645Y-53412846D02*
X134300074Y-53484275D01*
X134300074Y-53484275D02*
X134442931Y-53555703D01*
X134442931Y-53555703D02*
X134728645Y-53555703D01*
X134728645Y-53555703D02*
X134871502Y-53627132D01*
X134871502Y-53627132D02*
X134942931Y-53698560D01*
X134942931Y-53698560D02*
X135014359Y-53841418D01*
X135014359Y-53841418D02*
X135014359Y-54127132D01*
X135014359Y-54127132D02*
X134942931Y-54269989D01*
X134942931Y-54269989D02*
X134871502Y-54341418D01*
X134871502Y-54341418D02*
X134728645Y-54412846D01*
X134728645Y-54412846D02*
X134442931Y-54412846D01*
X134442931Y-54412846D02*
X134300074Y-54341418D01*
X134300074Y-54341418D02*
X134228645Y-54269989D01*
X134228645Y-54269989D02*
X134157216Y-54127132D01*
X134157216Y-54127132D02*
X134157216Y-53841418D01*
X134157216Y-53841418D02*
X134228645Y-53698560D01*
X134228645Y-53698560D02*
X134300074Y-53627132D01*
X134300074Y-53627132D02*
X134442931Y-53555703D01*
X133514360Y-54269989D02*
X133442931Y-54341418D01*
X133442931Y-54341418D02*
X133514360Y-54412846D01*
X133514360Y-54412846D02*
X133585788Y-54341418D01*
X133585788Y-54341418D02*
X133514360Y-54269989D01*
X133514360Y-54269989D02*
X133514360Y-54412846D01*
X132585788Y-53555703D02*
X132728645Y-53484275D01*
X132728645Y-53484275D02*
X132800074Y-53412846D01*
X132800074Y-53412846D02*
X132871502Y-53269989D01*
X132871502Y-53269989D02*
X132871502Y-53198560D01*
X132871502Y-53198560D02*
X132800074Y-53055703D01*
X132800074Y-53055703D02*
X132728645Y-52984275D01*
X132728645Y-52984275D02*
X132585788Y-52912846D01*
X132585788Y-52912846D02*
X132300074Y-52912846D01*
X132300074Y-52912846D02*
X132157217Y-52984275D01*
X132157217Y-52984275D02*
X132085788Y-53055703D01*
X132085788Y-53055703D02*
X132014359Y-53198560D01*
X132014359Y-53198560D02*
X132014359Y-53269989D01*
X132014359Y-53269989D02*
X132085788Y-53412846D01*
X132085788Y-53412846D02*
X132157217Y-53484275D01*
X132157217Y-53484275D02*
X132300074Y-53555703D01*
X132300074Y-53555703D02*
X132585788Y-53555703D01*
X132585788Y-53555703D02*
X132728645Y-53627132D01*
X132728645Y-53627132D02*
X132800074Y-53698560D01*
X132800074Y-53698560D02*
X132871502Y-53841418D01*
X132871502Y-53841418D02*
X132871502Y-54127132D01*
X132871502Y-54127132D02*
X132800074Y-54269989D01*
X132800074Y-54269989D02*
X132728645Y-54341418D01*
X132728645Y-54341418D02*
X132585788Y-54412846D01*
X132585788Y-54412846D02*
X132300074Y-54412846D01*
X132300074Y-54412846D02*
X132157217Y-54341418D01*
X132157217Y-54341418D02*
X132085788Y-54269989D01*
X132085788Y-54269989D02*
X132014359Y-54127132D01*
X132014359Y-54127132D02*
X132014359Y-53841418D01*
X132014359Y-53841418D02*
X132085788Y-53698560D01*
X132085788Y-53698560D02*
X132157217Y-53627132D01*
X132157217Y-53627132D02*
X132300074Y-53555703D01*
X131157217Y-53555703D02*
X131300074Y-53484275D01*
X131300074Y-53484275D02*
X131371503Y-53412846D01*
X131371503Y-53412846D02*
X131442931Y-53269989D01*
X131442931Y-53269989D02*
X131442931Y-53198560D01*
X131442931Y-53198560D02*
X131371503Y-53055703D01*
X131371503Y-53055703D02*
X131300074Y-52984275D01*
X131300074Y-52984275D02*
X131157217Y-52912846D01*
X131157217Y-52912846D02*
X130871503Y-52912846D01*
X130871503Y-52912846D02*
X130728646Y-52984275D01*
X130728646Y-52984275D02*
X130657217Y-53055703D01*
X130657217Y-53055703D02*
X130585788Y-53198560D01*
X130585788Y-53198560D02*
X130585788Y-53269989D01*
X130585788Y-53269989D02*
X130657217Y-53412846D01*
X130657217Y-53412846D02*
X130728646Y-53484275D01*
X130728646Y-53484275D02*
X130871503Y-53555703D01*
X130871503Y-53555703D02*
X131157217Y-53555703D01*
X131157217Y-53555703D02*
X131300074Y-53627132D01*
X131300074Y-53627132D02*
X131371503Y-53698560D01*
X131371503Y-53698560D02*
X131442931Y-53841418D01*
X131442931Y-53841418D02*
X131442931Y-54127132D01*
X131442931Y-54127132D02*
X131371503Y-54269989D01*
X131371503Y-54269989D02*
X131300074Y-54341418D01*
X131300074Y-54341418D02*
X131157217Y-54412846D01*
X131157217Y-54412846D02*
X130871503Y-54412846D01*
X130871503Y-54412846D02*
X130728646Y-54341418D01*
X130728646Y-54341418D02*
X130657217Y-54269989D01*
X130657217Y-54269989D02*
X130585788Y-54127132D01*
X130585788Y-54127132D02*
X130585788Y-53841418D01*
X130585788Y-53841418D02*
X130657217Y-53698560D01*
X130657217Y-53698560D02*
X130728646Y-53627132D01*
X130728646Y-53627132D02*
X130871503Y-53555703D01*
X129728646Y-53555703D02*
X129871503Y-53484275D01*
X129871503Y-53484275D02*
X129942932Y-53412846D01*
X129942932Y-53412846D02*
X130014360Y-53269989D01*
X130014360Y-53269989D02*
X130014360Y-53198560D01*
X130014360Y-53198560D02*
X129942932Y-53055703D01*
X129942932Y-53055703D02*
X129871503Y-52984275D01*
X129871503Y-52984275D02*
X129728646Y-52912846D01*
X129728646Y-52912846D02*
X129442932Y-52912846D01*
X129442932Y-52912846D02*
X129300075Y-52984275D01*
X129300075Y-52984275D02*
X129228646Y-53055703D01*
X129228646Y-53055703D02*
X129157217Y-53198560D01*
X129157217Y-53198560D02*
X129157217Y-53269989D01*
X129157217Y-53269989D02*
X129228646Y-53412846D01*
X129228646Y-53412846D02*
X129300075Y-53484275D01*
X129300075Y-53484275D02*
X129442932Y-53555703D01*
X129442932Y-53555703D02*
X129728646Y-53555703D01*
X129728646Y-53555703D02*
X129871503Y-53627132D01*
X129871503Y-53627132D02*
X129942932Y-53698560D01*
X129942932Y-53698560D02*
X130014360Y-53841418D01*
X130014360Y-53841418D02*
X130014360Y-54127132D01*
X130014360Y-54127132D02*
X129942932Y-54269989D01*
X129942932Y-54269989D02*
X129871503Y-54341418D01*
X129871503Y-54341418D02*
X129728646Y-54412846D01*
X129728646Y-54412846D02*
X129442932Y-54412846D01*
X129442932Y-54412846D02*
X129300075Y-54341418D01*
X129300075Y-54341418D02*
X129228646Y-54269989D01*
X129228646Y-54269989D02*
X129157217Y-54127132D01*
X129157217Y-54127132D02*
X129157217Y-53841418D01*
X129157217Y-53841418D02*
X129228646Y-53698560D01*
X129228646Y-53698560D02*
X129300075Y-53627132D01*
X129300075Y-53627132D02*
X129442932Y-53555703D01*
X128300075Y-53555703D02*
X128442932Y-53484275D01*
X128442932Y-53484275D02*
X128514361Y-53412846D01*
X128514361Y-53412846D02*
X128585789Y-53269989D01*
X128585789Y-53269989D02*
X128585789Y-53198560D01*
X128585789Y-53198560D02*
X128514361Y-53055703D01*
X128514361Y-53055703D02*
X128442932Y-52984275D01*
X128442932Y-52984275D02*
X128300075Y-52912846D01*
X128300075Y-52912846D02*
X128014361Y-52912846D01*
X128014361Y-52912846D02*
X127871504Y-52984275D01*
X127871504Y-52984275D02*
X127800075Y-53055703D01*
X127800075Y-53055703D02*
X127728646Y-53198560D01*
X127728646Y-53198560D02*
X127728646Y-53269989D01*
X127728646Y-53269989D02*
X127800075Y-53412846D01*
X127800075Y-53412846D02*
X127871504Y-53484275D01*
X127871504Y-53484275D02*
X128014361Y-53555703D01*
X128014361Y-53555703D02*
X128300075Y-53555703D01*
X128300075Y-53555703D02*
X128442932Y-53627132D01*
X128442932Y-53627132D02*
X128514361Y-53698560D01*
X128514361Y-53698560D02*
X128585789Y-53841418D01*
X128585789Y-53841418D02*
X128585789Y-54127132D01*
X128585789Y-54127132D02*
X128514361Y-54269989D01*
X128514361Y-54269989D02*
X128442932Y-54341418D01*
X128442932Y-54341418D02*
X128300075Y-54412846D01*
X128300075Y-54412846D02*
X128014361Y-54412846D01*
X128014361Y-54412846D02*
X127871504Y-54341418D01*
X127871504Y-54341418D02*
X127800075Y-54269989D01*
X127800075Y-54269989D02*
X127728646Y-54127132D01*
X127728646Y-54127132D02*
X127728646Y-53841418D01*
X127728646Y-53841418D02*
X127800075Y-53698560D01*
X127800075Y-53698560D02*
X127871504Y-53627132D01*
X127871504Y-53627132D02*
X128014361Y-53555703D01*
X136300075Y-56827762D02*
X136300075Y-55327762D01*
X136300075Y-55327762D02*
X135800075Y-56399191D01*
X135800075Y-56399191D02*
X135300075Y-55327762D01*
X135300075Y-55327762D02*
X135300075Y-56827762D01*
X134585789Y-56827762D02*
X134585789Y-55327762D01*
X134585789Y-56042048D02*
X133728646Y-56042048D01*
X133728646Y-56827762D02*
X133728646Y-55327762D01*
X133157217Y-55827762D02*
X132371503Y-55827762D01*
X132371503Y-55827762D02*
X133157217Y-56827762D01*
X133157217Y-56827762D02*
X132371503Y-56827762D01*
X131728645Y-56756334D02*
X131728645Y-56827762D01*
X131728645Y-56827762D02*
X131800074Y-56970619D01*
X131800074Y-56970619D02*
X131871502Y-57042048D01*
X129942931Y-56827762D02*
X129942931Y-55327762D01*
X129085788Y-56827762D02*
X129728645Y-55970619D01*
X129085788Y-55327762D02*
X129942931Y-56184905D01*
X128442931Y-56827762D02*
X128442931Y-55327762D01*
X128442931Y-56042048D02*
X127585788Y-56042048D01*
X127585788Y-56827762D02*
X127585788Y-55327762D01*
X127014359Y-55827762D02*
X126228645Y-55827762D01*
X126228645Y-55827762D02*
X127014359Y-56827762D01*
X127014359Y-56827762D02*
X126228645Y-56827762D01*
X148871502Y-59242678D02*
X148871502Y-57742678D01*
X148871502Y-57742678D02*
X148371502Y-58814107D01*
X148371502Y-58814107D02*
X147871502Y-57742678D01*
X147871502Y-57742678D02*
X147871502Y-59242678D01*
X146514359Y-59242678D02*
X146514359Y-58456964D01*
X146514359Y-58456964D02*
X146585787Y-58314107D01*
X146585787Y-58314107D02*
X146728644Y-58242678D01*
X146728644Y-58242678D02*
X147014359Y-58242678D01*
X147014359Y-58242678D02*
X147157216Y-58314107D01*
X146514359Y-59171250D02*
X146657216Y-59242678D01*
X146657216Y-59242678D02*
X147014359Y-59242678D01*
X147014359Y-59242678D02*
X147157216Y-59171250D01*
X147157216Y-59171250D02*
X147228644Y-59028392D01*
X147228644Y-59028392D02*
X147228644Y-58885535D01*
X147228644Y-58885535D02*
X147157216Y-58742678D01*
X147157216Y-58742678D02*
X147014359Y-58671250D01*
X147014359Y-58671250D02*
X146657216Y-58671250D01*
X146657216Y-58671250D02*
X146514359Y-58599821D01*
X145942930Y-59242678D02*
X145157216Y-58242678D01*
X145942930Y-58242678D02*
X145157216Y-59242678D01*
X142657215Y-59242678D02*
X143514358Y-59242678D01*
X143085787Y-59242678D02*
X143085787Y-57742678D01*
X143085787Y-57742678D02*
X143228644Y-57956964D01*
X143228644Y-57956964D02*
X143371501Y-58099821D01*
X143371501Y-58099821D02*
X143514358Y-58171250D01*
X141942930Y-59242678D02*
X141657216Y-59242678D01*
X141657216Y-59242678D02*
X141514359Y-59171250D01*
X141514359Y-59171250D02*
X141442930Y-59099821D01*
X141442930Y-59099821D02*
X141300073Y-58885535D01*
X141300073Y-58885535D02*
X141228644Y-58599821D01*
X141228644Y-58599821D02*
X141228644Y-58028392D01*
X141228644Y-58028392D02*
X141300073Y-57885535D01*
X141300073Y-57885535D02*
X141371502Y-57814107D01*
X141371502Y-57814107D02*
X141514359Y-57742678D01*
X141514359Y-57742678D02*
X141800073Y-57742678D01*
X141800073Y-57742678D02*
X141942930Y-57814107D01*
X141942930Y-57814107D02*
X142014359Y-57885535D01*
X142014359Y-57885535D02*
X142085787Y-58028392D01*
X142085787Y-58028392D02*
X142085787Y-58385535D01*
X142085787Y-58385535D02*
X142014359Y-58528392D01*
X142014359Y-58528392D02*
X141942930Y-58599821D01*
X141942930Y-58599821D02*
X141800073Y-58671250D01*
X141800073Y-58671250D02*
X141514359Y-58671250D01*
X141514359Y-58671250D02*
X141371502Y-58599821D01*
X141371502Y-58599821D02*
X141300073Y-58528392D01*
X141300073Y-58528392D02*
X141228644Y-58385535D01*
X140585788Y-59099821D02*
X140514359Y-59171250D01*
X140514359Y-59171250D02*
X140585788Y-59242678D01*
X140585788Y-59242678D02*
X140657216Y-59171250D01*
X140657216Y-59171250D02*
X140585788Y-59099821D01*
X140585788Y-59099821D02*
X140585788Y-59242678D01*
X139800073Y-59242678D02*
X139514359Y-59242678D01*
X139514359Y-59242678D02*
X139371502Y-59171250D01*
X139371502Y-59171250D02*
X139300073Y-59099821D01*
X139300073Y-59099821D02*
X139157216Y-58885535D01*
X139157216Y-58885535D02*
X139085787Y-58599821D01*
X139085787Y-58599821D02*
X139085787Y-58028392D01*
X139085787Y-58028392D02*
X139157216Y-57885535D01*
X139157216Y-57885535D02*
X139228645Y-57814107D01*
X139228645Y-57814107D02*
X139371502Y-57742678D01*
X139371502Y-57742678D02*
X139657216Y-57742678D01*
X139657216Y-57742678D02*
X139800073Y-57814107D01*
X139800073Y-57814107D02*
X139871502Y-57885535D01*
X139871502Y-57885535D02*
X139942930Y-58028392D01*
X139942930Y-58028392D02*
X139942930Y-58385535D01*
X139942930Y-58385535D02*
X139871502Y-58528392D01*
X139871502Y-58528392D02*
X139800073Y-58599821D01*
X139800073Y-58599821D02*
X139657216Y-58671250D01*
X139657216Y-58671250D02*
X139371502Y-58671250D01*
X139371502Y-58671250D02*
X139228645Y-58599821D01*
X139228645Y-58599821D02*
X139157216Y-58528392D01*
X139157216Y-58528392D02*
X139085787Y-58385535D01*
X138371502Y-59242678D02*
X138085788Y-59242678D01*
X138085788Y-59242678D02*
X137942931Y-59171250D01*
X137942931Y-59171250D02*
X137871502Y-59099821D01*
X137871502Y-59099821D02*
X137728645Y-58885535D01*
X137728645Y-58885535D02*
X137657216Y-58599821D01*
X137657216Y-58599821D02*
X137657216Y-58028392D01*
X137657216Y-58028392D02*
X137728645Y-57885535D01*
X137728645Y-57885535D02*
X137800074Y-57814107D01*
X137800074Y-57814107D02*
X137942931Y-57742678D01*
X137942931Y-57742678D02*
X138228645Y-57742678D01*
X138228645Y-57742678D02*
X138371502Y-57814107D01*
X138371502Y-57814107D02*
X138442931Y-57885535D01*
X138442931Y-57885535D02*
X138514359Y-58028392D01*
X138514359Y-58028392D02*
X138514359Y-58385535D01*
X138514359Y-58385535D02*
X138442931Y-58528392D01*
X138442931Y-58528392D02*
X138371502Y-58599821D01*
X138371502Y-58599821D02*
X138228645Y-58671250D01*
X138228645Y-58671250D02*
X137942931Y-58671250D01*
X137942931Y-58671250D02*
X137800074Y-58599821D01*
X137800074Y-58599821D02*
X137728645Y-58528392D01*
X137728645Y-58528392D02*
X137657216Y-58385535D01*
X136942931Y-59242678D02*
X136657217Y-59242678D01*
X136657217Y-59242678D02*
X136514360Y-59171250D01*
X136514360Y-59171250D02*
X136442931Y-59099821D01*
X136442931Y-59099821D02*
X136300074Y-58885535D01*
X136300074Y-58885535D02*
X136228645Y-58599821D01*
X136228645Y-58599821D02*
X136228645Y-58028392D01*
X136228645Y-58028392D02*
X136300074Y-57885535D01*
X136300074Y-57885535D02*
X136371503Y-57814107D01*
X136371503Y-57814107D02*
X136514360Y-57742678D01*
X136514360Y-57742678D02*
X136800074Y-57742678D01*
X136800074Y-57742678D02*
X136942931Y-57814107D01*
X136942931Y-57814107D02*
X137014360Y-57885535D01*
X137014360Y-57885535D02*
X137085788Y-58028392D01*
X137085788Y-58028392D02*
X137085788Y-58385535D01*
X137085788Y-58385535D02*
X137014360Y-58528392D01*
X137014360Y-58528392D02*
X136942931Y-58599821D01*
X136942931Y-58599821D02*
X136800074Y-58671250D01*
X136800074Y-58671250D02*
X136514360Y-58671250D01*
X136514360Y-58671250D02*
X136371503Y-58599821D01*
X136371503Y-58599821D02*
X136300074Y-58528392D01*
X136300074Y-58528392D02*
X136228645Y-58385535D01*
X134442932Y-59242678D02*
X134442932Y-57742678D01*
X134442932Y-57742678D02*
X133942932Y-58814107D01*
X133942932Y-58814107D02*
X133442932Y-57742678D01*
X133442932Y-57742678D02*
X133442932Y-59242678D01*
X132728646Y-59242678D02*
X132728646Y-57742678D01*
X132728646Y-58456964D02*
X131871503Y-58456964D01*
X131871503Y-59242678D02*
X131871503Y-57742678D01*
X131300074Y-58242678D02*
X130514360Y-58242678D01*
X130514360Y-58242678D02*
X131300074Y-59242678D01*
X131300074Y-59242678D02*
X130514360Y-59242678D01*
D11*
X198275411Y-107502438D02*
X198370649Y-107454819D01*
X198370649Y-107454819D02*
X198513506Y-107454819D01*
X198513506Y-107454819D02*
X198656363Y-107502438D01*
X198656363Y-107502438D02*
X198751601Y-107597676D01*
X198751601Y-107597676D02*
X198799220Y-107692914D01*
X198799220Y-107692914D02*
X198846839Y-107883390D01*
X198846839Y-107883390D02*
X198846839Y-108026247D01*
X198846839Y-108026247D02*
X198799220Y-108216723D01*
X198799220Y-108216723D02*
X198751601Y-108311961D01*
X198751601Y-108311961D02*
X198656363Y-108407200D01*
X198656363Y-108407200D02*
X198513506Y-108454819D01*
X198513506Y-108454819D02*
X198418268Y-108454819D01*
X198418268Y-108454819D02*
X198275411Y-108407200D01*
X198275411Y-108407200D02*
X198227792Y-108359580D01*
X198227792Y-108359580D02*
X198227792Y-108026247D01*
X198227792Y-108026247D02*
X198418268Y-108026247D01*
X197799220Y-108454819D02*
X197799220Y-107454819D01*
X197799220Y-107454819D02*
X197227792Y-108454819D01*
X197227792Y-108454819D02*
X197227792Y-107454819D01*
X196751601Y-108454819D02*
X196751601Y-107454819D01*
X196751601Y-107454819D02*
X196513506Y-107454819D01*
X196513506Y-107454819D02*
X196370649Y-107502438D01*
X196370649Y-107502438D02*
X196275411Y-107597676D01*
X196275411Y-107597676D02*
X196227792Y-107692914D01*
X196227792Y-107692914D02*
X196180173Y-107883390D01*
X196180173Y-107883390D02*
X196180173Y-108026247D01*
X196180173Y-108026247D02*
X196227792Y-108216723D01*
X196227792Y-108216723D02*
X196275411Y-108311961D01*
X196275411Y-108311961D02*
X196370649Y-108407200D01*
X196370649Y-108407200D02*
X196513506Y-108454819D01*
X196513506Y-108454819D02*
X196751601Y-108454819D01*
D10*
X197609734Y-129491800D02*
X197466877Y-129539419D01*
X197466877Y-129539419D02*
X197228782Y-129539419D01*
X197228782Y-129539419D02*
X197133544Y-129491800D01*
X197133544Y-129491800D02*
X197085925Y-129444180D01*
X197085925Y-129444180D02*
X197038306Y-129348942D01*
X197038306Y-129348942D02*
X197038306Y-129253704D01*
X197038306Y-129253704D02*
X197085925Y-129158466D01*
X197085925Y-129158466D02*
X197133544Y-129110847D01*
X197133544Y-129110847D02*
X197228782Y-129063228D01*
X197228782Y-129063228D02*
X197419258Y-129015609D01*
X197419258Y-129015609D02*
X197514496Y-128967990D01*
X197514496Y-128967990D02*
X197562115Y-128920371D01*
X197562115Y-128920371D02*
X197609734Y-128825133D01*
X197609734Y-128825133D02*
X197609734Y-128729895D01*
X197609734Y-128729895D02*
X197562115Y-128634657D01*
X197562115Y-128634657D02*
X197514496Y-128587038D01*
X197514496Y-128587038D02*
X197419258Y-128539419D01*
X197419258Y-128539419D02*
X197181163Y-128539419D01*
X197181163Y-128539419D02*
X197038306Y-128587038D01*
X196609734Y-128872752D02*
X196609734Y-129872752D01*
X196609734Y-128920371D02*
X196514496Y-128872752D01*
X196514496Y-128872752D02*
X196324020Y-128872752D01*
X196324020Y-128872752D02*
X196228782Y-128920371D01*
X196228782Y-128920371D02*
X196181163Y-128967990D01*
X196181163Y-128967990D02*
X196133544Y-129063228D01*
X196133544Y-129063228D02*
X196133544Y-129348942D01*
X196133544Y-129348942D02*
X196181163Y-129444180D01*
X196181163Y-129444180D02*
X196228782Y-129491800D01*
X196228782Y-129491800D02*
X196324020Y-129539419D01*
X196324020Y-129539419D02*
X196514496Y-129539419D01*
X196514496Y-129539419D02*
X196609734Y-129491800D01*
X195324020Y-129491800D02*
X195419258Y-129539419D01*
X195419258Y-129539419D02*
X195609734Y-129539419D01*
X195609734Y-129539419D02*
X195704972Y-129491800D01*
X195704972Y-129491800D02*
X195752591Y-129396561D01*
X195752591Y-129396561D02*
X195752591Y-129015609D01*
X195752591Y-129015609D02*
X195704972Y-128920371D01*
X195704972Y-128920371D02*
X195609734Y-128872752D01*
X195609734Y-128872752D02*
X195419258Y-128872752D01*
X195419258Y-128872752D02*
X195324020Y-128920371D01*
X195324020Y-128920371D02*
X195276401Y-129015609D01*
X195276401Y-129015609D02*
X195276401Y-129110847D01*
X195276401Y-129110847D02*
X195752591Y-129206085D01*
X194419258Y-129491800D02*
X194514496Y-129539419D01*
X194514496Y-129539419D02*
X194704972Y-129539419D01*
X194704972Y-129539419D02*
X194800210Y-129491800D01*
X194800210Y-129491800D02*
X194847829Y-129444180D01*
X194847829Y-129444180D02*
X194895448Y-129348942D01*
X194895448Y-129348942D02*
X194895448Y-129063228D01*
X194895448Y-129063228D02*
X194847829Y-128967990D01*
X194847829Y-128967990D02*
X194800210Y-128920371D01*
X194800210Y-128920371D02*
X194704972Y-128872752D01*
X194704972Y-128872752D02*
X194514496Y-128872752D01*
X194514496Y-128872752D02*
X194419258Y-128920371D01*
X193990686Y-129539419D02*
X193990686Y-128872752D01*
X193990686Y-128539419D02*
X194038305Y-128587038D01*
X194038305Y-128587038D02*
X193990686Y-128634657D01*
X193990686Y-128634657D02*
X193943067Y-128587038D01*
X193943067Y-128587038D02*
X193990686Y-128539419D01*
X193990686Y-128539419D02*
X193990686Y-128634657D01*
X193085925Y-129539419D02*
X193085925Y-129015609D01*
X193085925Y-129015609D02*
X193133544Y-128920371D01*
X193133544Y-128920371D02*
X193228782Y-128872752D01*
X193228782Y-128872752D02*
X193419258Y-128872752D01*
X193419258Y-128872752D02*
X193514496Y-128920371D01*
X193085925Y-129491800D02*
X193181163Y-129539419D01*
X193181163Y-129539419D02*
X193419258Y-129539419D01*
X193419258Y-129539419D02*
X193514496Y-129491800D01*
X193514496Y-129491800D02*
X193562115Y-129396561D01*
X193562115Y-129396561D02*
X193562115Y-129301323D01*
X193562115Y-129301323D02*
X193514496Y-129206085D01*
X193514496Y-129206085D02*
X193419258Y-129158466D01*
X193419258Y-129158466D02*
X193181163Y-129158466D01*
X193181163Y-129158466D02*
X193085925Y-129110847D01*
X192466877Y-129539419D02*
X192562115Y-129491800D01*
X192562115Y-129491800D02*
X192609734Y-129396561D01*
X192609734Y-129396561D02*
X192609734Y-128539419D01*
X191466876Y-128872752D02*
X191085924Y-128872752D01*
X191324019Y-128539419D02*
X191324019Y-129396561D01*
X191324019Y-129396561D02*
X191276400Y-129491800D01*
X191276400Y-129491800D02*
X191181162Y-129539419D01*
X191181162Y-129539419D02*
X191085924Y-129539419D01*
X190752590Y-129539419D02*
X190752590Y-128539419D01*
X190324019Y-129539419D02*
X190324019Y-129015609D01*
X190324019Y-129015609D02*
X190371638Y-128920371D01*
X190371638Y-128920371D02*
X190466876Y-128872752D01*
X190466876Y-128872752D02*
X190609733Y-128872752D01*
X190609733Y-128872752D02*
X190704971Y-128920371D01*
X190704971Y-128920371D02*
X190752590Y-128967990D01*
X189419257Y-129539419D02*
X189419257Y-129015609D01*
X189419257Y-129015609D02*
X189466876Y-128920371D01*
X189466876Y-128920371D02*
X189562114Y-128872752D01*
X189562114Y-128872752D02*
X189752590Y-128872752D01*
X189752590Y-128872752D02*
X189847828Y-128920371D01*
X189419257Y-129491800D02*
X189514495Y-129539419D01*
X189514495Y-129539419D02*
X189752590Y-129539419D01*
X189752590Y-129539419D02*
X189847828Y-129491800D01*
X189847828Y-129491800D02*
X189895447Y-129396561D01*
X189895447Y-129396561D02*
X189895447Y-129301323D01*
X189895447Y-129301323D02*
X189847828Y-129206085D01*
X189847828Y-129206085D02*
X189752590Y-129158466D01*
X189752590Y-129158466D02*
X189514495Y-129158466D01*
X189514495Y-129158466D02*
X189419257Y-129110847D01*
X188943066Y-128872752D02*
X188943066Y-129539419D01*
X188943066Y-128967990D02*
X188895447Y-128920371D01*
X188895447Y-128920371D02*
X188800209Y-128872752D01*
X188800209Y-128872752D02*
X188657352Y-128872752D01*
X188657352Y-128872752D02*
X188562114Y-128920371D01*
X188562114Y-128920371D02*
X188514495Y-129015609D01*
X188514495Y-129015609D02*
X188514495Y-129539419D01*
X188038304Y-129539419D02*
X188038304Y-128539419D01*
X187943066Y-129158466D02*
X187657352Y-129539419D01*
X187657352Y-128872752D02*
X188038304Y-129253704D01*
X187276399Y-129491800D02*
X187181161Y-129539419D01*
X187181161Y-129539419D02*
X186990685Y-129539419D01*
X186990685Y-129539419D02*
X186895447Y-129491800D01*
X186895447Y-129491800D02*
X186847828Y-129396561D01*
X186847828Y-129396561D02*
X186847828Y-129348942D01*
X186847828Y-129348942D02*
X186895447Y-129253704D01*
X186895447Y-129253704D02*
X186990685Y-129206085D01*
X186990685Y-129206085D02*
X187133542Y-129206085D01*
X187133542Y-129206085D02*
X187228780Y-129158466D01*
X187228780Y-129158466D02*
X187276399Y-129063228D01*
X187276399Y-129063228D02*
X187276399Y-129015609D01*
X187276399Y-129015609D02*
X187228780Y-128920371D01*
X187228780Y-128920371D02*
X187133542Y-128872752D01*
X187133542Y-128872752D02*
X186990685Y-128872752D01*
X186990685Y-128872752D02*
X186895447Y-128920371D01*
X185800208Y-128872752D02*
X185419256Y-128872752D01*
X185657351Y-128539419D02*
X185657351Y-129396561D01*
X185657351Y-129396561D02*
X185609732Y-129491800D01*
X185609732Y-129491800D02*
X185514494Y-129539419D01*
X185514494Y-129539419D02*
X185419256Y-129539419D01*
X184943065Y-129539419D02*
X185038303Y-129491800D01*
X185038303Y-129491800D02*
X185085922Y-129444180D01*
X185085922Y-129444180D02*
X185133541Y-129348942D01*
X185133541Y-129348942D02*
X185133541Y-129063228D01*
X185133541Y-129063228D02*
X185085922Y-128967990D01*
X185085922Y-128967990D02*
X185038303Y-128920371D01*
X185038303Y-128920371D02*
X184943065Y-128872752D01*
X184943065Y-128872752D02*
X184800208Y-128872752D01*
X184800208Y-128872752D02*
X184704970Y-128920371D01*
X184704970Y-128920371D02*
X184657351Y-128967990D01*
X184657351Y-128967990D02*
X184609732Y-129063228D01*
X184609732Y-129063228D02*
X184609732Y-129348942D01*
X184609732Y-129348942D02*
X184657351Y-129444180D01*
X184657351Y-129444180D02*
X184704970Y-129491800D01*
X184704970Y-129491800D02*
X184800208Y-129539419D01*
X184800208Y-129539419D02*
X184943065Y-129539419D01*
X184181160Y-129444180D02*
X184133541Y-129491800D01*
X184133541Y-129491800D02*
X184181160Y-129539419D01*
X184181160Y-129539419D02*
X184228779Y-129491800D01*
X184228779Y-129491800D02*
X184181160Y-129444180D01*
X184181160Y-129444180D02*
X184181160Y-129539419D01*
X184181160Y-128920371D02*
X184133541Y-128967990D01*
X184133541Y-128967990D02*
X184181160Y-129015609D01*
X184181160Y-129015609D02*
X184228779Y-128967990D01*
X184228779Y-128967990D02*
X184181160Y-128920371D01*
X184181160Y-128920371D02*
X184181160Y-129015609D01*
D14*
X161113692Y-84646703D02*
X161042264Y-84565750D01*
X161042264Y-84565750D02*
X160899407Y-84484798D01*
X160899407Y-84484798D02*
X160542264Y-84484798D01*
X160542264Y-84484798D02*
X160399407Y-84565750D01*
X160399407Y-84565750D02*
X160327978Y-84646703D01*
X160327978Y-84646703D02*
X160256549Y-84808607D01*
X160256549Y-84808607D02*
X160256549Y-84970512D01*
X160256549Y-84970512D02*
X160327978Y-85213369D01*
X160327978Y-85213369D02*
X161185121Y-86184798D01*
X161185121Y-86184798D02*
X160256549Y-86184798D01*
X161042264Y-88274084D02*
X159899407Y-88274084D01*
X161042264Y-91010989D02*
X159899407Y-91010989D01*
X161899406Y-92695513D02*
X161613692Y-92695513D01*
X161613692Y-92695513D02*
X161470835Y-92776465D01*
X161470835Y-92776465D02*
X161327978Y-92938370D01*
X161327978Y-92938370D02*
X161256549Y-93262180D01*
X161256549Y-93262180D02*
X161256549Y-93828846D01*
X161256549Y-93828846D02*
X161327978Y-94152656D01*
X161327978Y-94152656D02*
X161470835Y-94314561D01*
X161470835Y-94314561D02*
X161613692Y-94395513D01*
X161613692Y-94395513D02*
X161899406Y-94395513D01*
X161899406Y-94395513D02*
X162042264Y-94314561D01*
X162042264Y-94314561D02*
X162185121Y-94152656D01*
X162185121Y-94152656D02*
X162256549Y-93828846D01*
X162256549Y-93828846D02*
X162256549Y-93262180D01*
X162256549Y-93262180D02*
X162185121Y-92938370D01*
X162185121Y-92938370D02*
X162042264Y-92776465D01*
X162042264Y-92776465D02*
X161899406Y-92695513D01*
X160613692Y-94395513D02*
X160613692Y-92695513D01*
X160613692Y-92695513D02*
X159756549Y-94395513D01*
X159756549Y-94395513D02*
X159756549Y-92695513D01*
D16*
X114451088Y-99717249D02*
X114451088Y-100817249D01*
X114451088Y-100817249D02*
X114517755Y-101037249D01*
X114517755Y-101037249D02*
X114651088Y-101183916D01*
X114651088Y-101183916D02*
X114851088Y-101257249D01*
X114851088Y-101257249D02*
X114984422Y-101257249D01*
X113984421Y-99717249D02*
X113184421Y-99717249D01*
X113584421Y-101257249D02*
X113584421Y-99717249D01*
X112784421Y-100817249D02*
X112117754Y-100817249D01*
X112917754Y-101257249D02*
X112451088Y-99717249D01*
X112451088Y-99717249D02*
X111984421Y-101257249D01*
X110784421Y-99790582D02*
X110917754Y-99717249D01*
X110917754Y-99717249D02*
X111117754Y-99717249D01*
X111117754Y-99717249D02*
X111317754Y-99790582D01*
X111317754Y-99790582D02*
X111451088Y-99937249D01*
X111451088Y-99937249D02*
X111517754Y-100083916D01*
X111517754Y-100083916D02*
X111584421Y-100377249D01*
X111584421Y-100377249D02*
X111584421Y-100597249D01*
X111584421Y-100597249D02*
X111517754Y-100890582D01*
X111517754Y-100890582D02*
X111451088Y-101037249D01*
X111451088Y-101037249D02*
X111317754Y-101183916D01*
X111317754Y-101183916D02*
X111117754Y-101257249D01*
X111117754Y-101257249D02*
X110984421Y-101257249D01*
X110984421Y-101257249D02*
X110784421Y-101183916D01*
X110784421Y-101183916D02*
X110717754Y-101110582D01*
X110717754Y-101110582D02*
X110717754Y-100597249D01*
X110717754Y-100597249D02*
X110984421Y-100597249D01*
X110117754Y-101110582D02*
X110051088Y-101183916D01*
X110051088Y-101183916D02*
X110117754Y-101257249D01*
X110117754Y-101257249D02*
X110184421Y-101183916D01*
X110184421Y-101183916D02*
X110117754Y-101110582D01*
X110117754Y-101110582D02*
X110117754Y-101257249D01*
X110117754Y-100303916D02*
X110051088Y-100377249D01*
X110051088Y-100377249D02*
X110117754Y-100450582D01*
X110117754Y-100450582D02*
X110184421Y-100377249D01*
X110184421Y-100377249D02*
X110117754Y-100303916D01*
X110117754Y-100303916D02*
X110117754Y-100450582D01*
X113051088Y-103736563D02*
X113851088Y-103736563D01*
X113451088Y-103736563D02*
X113451088Y-102196563D01*
X113451088Y-102196563D02*
X113584421Y-102416563D01*
X113584421Y-102416563D02*
X113717755Y-102563230D01*
X113717755Y-102563230D02*
X113851088Y-102636563D01*
X111584421Y-102196563D02*
X110784421Y-102196563D01*
X111184421Y-103736563D02*
X111184421Y-102196563D01*
X110317754Y-103736563D02*
X110317754Y-102196563D01*
X110317754Y-102196563D02*
X109851088Y-103296563D01*
X109851088Y-103296563D02*
X109384421Y-102196563D01*
X109384421Y-102196563D02*
X109384421Y-103736563D01*
X108784421Y-103663230D02*
X108584421Y-103736563D01*
X108584421Y-103736563D02*
X108251088Y-103736563D01*
X108251088Y-103736563D02*
X108117754Y-103663230D01*
X108117754Y-103663230D02*
X108051088Y-103589896D01*
X108051088Y-103589896D02*
X107984421Y-103443230D01*
X107984421Y-103443230D02*
X107984421Y-103296563D01*
X107984421Y-103296563D02*
X108051088Y-103149896D01*
X108051088Y-103149896D02*
X108117754Y-103076563D01*
X108117754Y-103076563D02*
X108251088Y-103003230D01*
X108251088Y-103003230D02*
X108517754Y-102929896D01*
X108517754Y-102929896D02*
X108651088Y-102856563D01*
X108651088Y-102856563D02*
X108717754Y-102783230D01*
X108717754Y-102783230D02*
X108784421Y-102636563D01*
X108784421Y-102636563D02*
X108784421Y-102489896D01*
X108784421Y-102489896D02*
X108717754Y-102343230D01*
X108717754Y-102343230D02*
X108651088Y-102269896D01*
X108651088Y-102269896D02*
X108517754Y-102196563D01*
X108517754Y-102196563D02*
X108184421Y-102196563D01*
X108184421Y-102196563D02*
X107984421Y-102269896D01*
X113851088Y-104822544D02*
X113784421Y-104749210D01*
X113784421Y-104749210D02*
X113651088Y-104675877D01*
X113651088Y-104675877D02*
X113317755Y-104675877D01*
X113317755Y-104675877D02*
X113184421Y-104749210D01*
X113184421Y-104749210D02*
X113117755Y-104822544D01*
X113117755Y-104822544D02*
X113051088Y-104969210D01*
X113051088Y-104969210D02*
X113051088Y-105115877D01*
X113051088Y-105115877D02*
X113117755Y-105335877D01*
X113117755Y-105335877D02*
X113917755Y-106215877D01*
X113917755Y-106215877D02*
X113051088Y-106215877D01*
X111584421Y-104675877D02*
X110784421Y-104675877D01*
X111184421Y-106215877D02*
X111184421Y-104675877D01*
X109517754Y-106069210D02*
X109584421Y-106142544D01*
X109584421Y-106142544D02*
X109784421Y-106215877D01*
X109784421Y-106215877D02*
X109917754Y-106215877D01*
X109917754Y-106215877D02*
X110117754Y-106142544D01*
X110117754Y-106142544D02*
X110251088Y-105995877D01*
X110251088Y-105995877D02*
X110317754Y-105849210D01*
X110317754Y-105849210D02*
X110384421Y-105555877D01*
X110384421Y-105555877D02*
X110384421Y-105335877D01*
X110384421Y-105335877D02*
X110317754Y-105042544D01*
X110317754Y-105042544D02*
X110251088Y-104895877D01*
X110251088Y-104895877D02*
X110117754Y-104749210D01*
X110117754Y-104749210D02*
X109917754Y-104675877D01*
X109917754Y-104675877D02*
X109784421Y-104675877D01*
X109784421Y-104675877D02*
X109584421Y-104749210D01*
X109584421Y-104749210D02*
X109517754Y-104822544D01*
X108917754Y-106215877D02*
X108917754Y-104675877D01*
X108117754Y-106215877D02*
X108717754Y-105335877D01*
X108117754Y-104675877D02*
X108917754Y-105555877D01*
X113917755Y-107155191D02*
X113051088Y-107155191D01*
X113051088Y-107155191D02*
X113517755Y-107741858D01*
X113517755Y-107741858D02*
X113317755Y-107741858D01*
X113317755Y-107741858D02*
X113184421Y-107815191D01*
X113184421Y-107815191D02*
X113117755Y-107888524D01*
X113117755Y-107888524D02*
X113051088Y-108035191D01*
X113051088Y-108035191D02*
X113051088Y-108401858D01*
X113051088Y-108401858D02*
X113117755Y-108548524D01*
X113117755Y-108548524D02*
X113184421Y-108621858D01*
X113184421Y-108621858D02*
X113317755Y-108695191D01*
X113317755Y-108695191D02*
X113717755Y-108695191D01*
X113717755Y-108695191D02*
X113851088Y-108621858D01*
X113851088Y-108621858D02*
X113917755Y-108548524D01*
X110651088Y-107228524D02*
X110784421Y-107155191D01*
X110784421Y-107155191D02*
X110984421Y-107155191D01*
X110984421Y-107155191D02*
X111184421Y-107228524D01*
X111184421Y-107228524D02*
X111317755Y-107375191D01*
X111317755Y-107375191D02*
X111384421Y-107521858D01*
X111384421Y-107521858D02*
X111451088Y-107815191D01*
X111451088Y-107815191D02*
X111451088Y-108035191D01*
X111451088Y-108035191D02*
X111384421Y-108328524D01*
X111384421Y-108328524D02*
X111317755Y-108475191D01*
X111317755Y-108475191D02*
X111184421Y-108621858D01*
X111184421Y-108621858D02*
X110984421Y-108695191D01*
X110984421Y-108695191D02*
X110851088Y-108695191D01*
X110851088Y-108695191D02*
X110651088Y-108621858D01*
X110651088Y-108621858D02*
X110584421Y-108548524D01*
X110584421Y-108548524D02*
X110584421Y-108035191D01*
X110584421Y-108035191D02*
X110851088Y-108035191D01*
X109984421Y-108695191D02*
X109984421Y-107155191D01*
X109984421Y-107155191D02*
X109184421Y-108695191D01*
X109184421Y-108695191D02*
X109184421Y-107155191D01*
X108517754Y-108695191D02*
X108517754Y-107155191D01*
X108517754Y-107155191D02*
X108184421Y-107155191D01*
X108184421Y-107155191D02*
X107984421Y-107228524D01*
X107984421Y-107228524D02*
X107851088Y-107375191D01*
X107851088Y-107375191D02*
X107784421Y-107521858D01*
X107784421Y-107521858D02*
X107717754Y-107815191D01*
X107717754Y-107815191D02*
X107717754Y-108035191D01*
X107717754Y-108035191D02*
X107784421Y-108328524D01*
X107784421Y-108328524D02*
X107851088Y-108475191D01*
X107851088Y-108475191D02*
X107984421Y-108621858D01*
X107984421Y-108621858D02*
X108184421Y-108695191D01*
X108184421Y-108695191D02*
X108517754Y-108695191D01*
X113184421Y-110147838D02*
X113184421Y-111174505D01*
X113517755Y-109561172D02*
X113851088Y-110661172D01*
X113851088Y-110661172D02*
X112984421Y-110661172D01*
X111584421Y-109634505D02*
X110784421Y-109634505D01*
X111184421Y-111174505D02*
X111184421Y-109634505D01*
X110317754Y-111174505D02*
X110317754Y-109634505D01*
X110317754Y-109634505D02*
X109984421Y-109634505D01*
X109984421Y-109634505D02*
X109784421Y-109707838D01*
X109784421Y-109707838D02*
X109651088Y-109854505D01*
X109651088Y-109854505D02*
X109584421Y-110001172D01*
X109584421Y-110001172D02*
X109517754Y-110294505D01*
X109517754Y-110294505D02*
X109517754Y-110514505D01*
X109517754Y-110514505D02*
X109584421Y-110807838D01*
X109584421Y-110807838D02*
X109651088Y-110954505D01*
X109651088Y-110954505D02*
X109784421Y-111101172D01*
X109784421Y-111101172D02*
X109984421Y-111174505D01*
X109984421Y-111174505D02*
X110317754Y-111174505D01*
X108651088Y-109634505D02*
X108384421Y-109634505D01*
X108384421Y-109634505D02*
X108251088Y-109707838D01*
X108251088Y-109707838D02*
X108117754Y-109854505D01*
X108117754Y-109854505D02*
X108051088Y-110147838D01*
X108051088Y-110147838D02*
X108051088Y-110661172D01*
X108051088Y-110661172D02*
X108117754Y-110954505D01*
X108117754Y-110954505D02*
X108251088Y-111101172D01*
X108251088Y-111101172D02*
X108384421Y-111174505D01*
X108384421Y-111174505D02*
X108651088Y-111174505D01*
X108651088Y-111174505D02*
X108784421Y-111101172D01*
X108784421Y-111101172D02*
X108917754Y-110954505D01*
X108917754Y-110954505D02*
X108984421Y-110661172D01*
X108984421Y-110661172D02*
X108984421Y-110147838D01*
X108984421Y-110147838D02*
X108917754Y-109854505D01*
X108917754Y-109854505D02*
X108784421Y-109707838D01*
X108784421Y-109707838D02*
X108651088Y-109634505D01*
X113117755Y-112113819D02*
X113784421Y-112113819D01*
X113784421Y-112113819D02*
X113851088Y-112847152D01*
X113851088Y-112847152D02*
X113784421Y-112773819D01*
X113784421Y-112773819D02*
X113651088Y-112700486D01*
X113651088Y-112700486D02*
X113317755Y-112700486D01*
X113317755Y-112700486D02*
X113184421Y-112773819D01*
X113184421Y-112773819D02*
X113117755Y-112847152D01*
X113117755Y-112847152D02*
X113051088Y-112993819D01*
X113051088Y-112993819D02*
X113051088Y-113360486D01*
X113051088Y-113360486D02*
X113117755Y-113507152D01*
X113117755Y-113507152D02*
X113184421Y-113580486D01*
X113184421Y-113580486D02*
X113317755Y-113653819D01*
X113317755Y-113653819D02*
X113651088Y-113653819D01*
X113651088Y-113653819D02*
X113784421Y-113580486D01*
X113784421Y-113580486D02*
X113851088Y-113507152D01*
X111584421Y-112113819D02*
X110784421Y-112113819D01*
X111184421Y-113653819D02*
X111184421Y-112113819D01*
X110317754Y-113653819D02*
X110317754Y-112113819D01*
X110317754Y-112113819D02*
X109984421Y-112113819D01*
X109984421Y-112113819D02*
X109784421Y-112187152D01*
X109784421Y-112187152D02*
X109651088Y-112333819D01*
X109651088Y-112333819D02*
X109584421Y-112480486D01*
X109584421Y-112480486D02*
X109517754Y-112773819D01*
X109517754Y-112773819D02*
X109517754Y-112993819D01*
X109517754Y-112993819D02*
X109584421Y-113287152D01*
X109584421Y-113287152D02*
X109651088Y-113433819D01*
X109651088Y-113433819D02*
X109784421Y-113580486D01*
X109784421Y-113580486D02*
X109984421Y-113653819D01*
X109984421Y-113653819D02*
X110317754Y-113653819D01*
X108917754Y-113653819D02*
X108917754Y-112113819D01*
X113184421Y-114593133D02*
X113451088Y-114593133D01*
X113451088Y-114593133D02*
X113584421Y-114666466D01*
X113584421Y-114666466D02*
X113651088Y-114739800D01*
X113651088Y-114739800D02*
X113784421Y-114959800D01*
X113784421Y-114959800D02*
X113851088Y-115253133D01*
X113851088Y-115253133D02*
X113851088Y-115839800D01*
X113851088Y-115839800D02*
X113784421Y-115986466D01*
X113784421Y-115986466D02*
X113717755Y-116059800D01*
X113717755Y-116059800D02*
X113584421Y-116133133D01*
X113584421Y-116133133D02*
X113317755Y-116133133D01*
X113317755Y-116133133D02*
X113184421Y-116059800D01*
X113184421Y-116059800D02*
X113117755Y-115986466D01*
X113117755Y-115986466D02*
X113051088Y-115839800D01*
X113051088Y-115839800D02*
X113051088Y-115473133D01*
X113051088Y-115473133D02*
X113117755Y-115326466D01*
X113117755Y-115326466D02*
X113184421Y-115253133D01*
X113184421Y-115253133D02*
X113317755Y-115179800D01*
X113317755Y-115179800D02*
X113584421Y-115179800D01*
X113584421Y-115179800D02*
X113717755Y-115253133D01*
X113717755Y-115253133D02*
X113784421Y-115326466D01*
X113784421Y-115326466D02*
X113851088Y-115473133D01*
X111384421Y-115546466D02*
X110317755Y-115546466D01*
X110851088Y-116133133D02*
X110851088Y-114959800D01*
X108984422Y-114593133D02*
X109651088Y-114593133D01*
X109651088Y-114593133D02*
X109717755Y-115326466D01*
X109717755Y-115326466D02*
X109651088Y-115253133D01*
X109651088Y-115253133D02*
X109517755Y-115179800D01*
X109517755Y-115179800D02*
X109184422Y-115179800D01*
X109184422Y-115179800D02*
X109051088Y-115253133D01*
X109051088Y-115253133D02*
X108984422Y-115326466D01*
X108984422Y-115326466D02*
X108917755Y-115473133D01*
X108917755Y-115473133D02*
X108917755Y-115839800D01*
X108917755Y-115839800D02*
X108984422Y-115986466D01*
X108984422Y-115986466D02*
X109051088Y-116059800D01*
X109051088Y-116059800D02*
X109184422Y-116133133D01*
X109184422Y-116133133D02*
X109517755Y-116133133D01*
X109517755Y-116133133D02*
X109651088Y-116059800D01*
X109651088Y-116059800D02*
X109717755Y-115986466D01*
X108517755Y-114593133D02*
X108051089Y-116133133D01*
X108051089Y-116133133D02*
X107584422Y-114593133D01*
D17*
X192151669Y-82578000D02*
X191894527Y-82673238D01*
X191894527Y-82673238D02*
X191465955Y-82673238D01*
X191465955Y-82673238D02*
X191294527Y-82578000D01*
X191294527Y-82578000D02*
X191208812Y-82482761D01*
X191208812Y-82482761D02*
X191123098Y-82292285D01*
X191123098Y-82292285D02*
X191123098Y-82101809D01*
X191123098Y-82101809D02*
X191208812Y-81911333D01*
X191208812Y-81911333D02*
X191294527Y-81816095D01*
X191294527Y-81816095D02*
X191465955Y-81720857D01*
X191465955Y-81720857D02*
X191808812Y-81625619D01*
X191808812Y-81625619D02*
X191980241Y-81530380D01*
X191980241Y-81530380D02*
X192065955Y-81435142D01*
X192065955Y-81435142D02*
X192151669Y-81244666D01*
X192151669Y-81244666D02*
X192151669Y-81054190D01*
X192151669Y-81054190D02*
X192065955Y-80863714D01*
X192065955Y-80863714D02*
X191980241Y-80768476D01*
X191980241Y-80768476D02*
X191808812Y-80673238D01*
X191808812Y-80673238D02*
X191380241Y-80673238D01*
X191380241Y-80673238D02*
X191123098Y-80768476D01*
X190523098Y-80673238D02*
X190094526Y-82673238D01*
X190094526Y-82673238D02*
X189751669Y-81244666D01*
X189751669Y-81244666D02*
X189408812Y-82673238D01*
X189408812Y-82673238D02*
X188980241Y-80673238D01*
X187351669Y-82673238D02*
X188380240Y-82673238D01*
X187865955Y-82673238D02*
X187865955Y-80673238D01*
X187865955Y-80673238D02*
X188037383Y-80958952D01*
X188037383Y-80958952D02*
X188208812Y-81149428D01*
X188208812Y-81149428D02*
X188380240Y-81244666D01*
X184694525Y-83435142D02*
X184780240Y-83339904D01*
X184780240Y-83339904D02*
X184951668Y-83054190D01*
X184951668Y-83054190D02*
X185037383Y-82863714D01*
X185037383Y-82863714D02*
X185123097Y-82578000D01*
X185123097Y-82578000D02*
X185208811Y-82101809D01*
X185208811Y-82101809D02*
X185208811Y-81720857D01*
X185208811Y-81720857D02*
X185123097Y-81244666D01*
X185123097Y-81244666D02*
X185037383Y-80958952D01*
X185037383Y-80958952D02*
X184951668Y-80768476D01*
X184951668Y-80768476D02*
X184780240Y-80482761D01*
X184780240Y-80482761D02*
X184694525Y-80387523D01*
X184008811Y-82673238D02*
X184008811Y-80673238D01*
X184008811Y-80673238D02*
X183408811Y-82101809D01*
X183408811Y-82101809D02*
X182808811Y-80673238D01*
X182808811Y-80673238D02*
X182808811Y-82673238D01*
X181608811Y-80673238D02*
X181265954Y-80673238D01*
X181265954Y-80673238D02*
X181094525Y-80768476D01*
X181094525Y-80768476D02*
X180923097Y-80958952D01*
X180923097Y-80958952D02*
X180837382Y-81339904D01*
X180837382Y-81339904D02*
X180837382Y-82006571D01*
X180837382Y-82006571D02*
X180923097Y-82387523D01*
X180923097Y-82387523D02*
X181094525Y-82578000D01*
X181094525Y-82578000D02*
X181265954Y-82673238D01*
X181265954Y-82673238D02*
X181608811Y-82673238D01*
X181608811Y-82673238D02*
X181780240Y-82578000D01*
X181780240Y-82578000D02*
X181951668Y-82387523D01*
X181951668Y-82387523D02*
X182037382Y-82006571D01*
X182037382Y-82006571D02*
X182037382Y-81339904D01*
X182037382Y-81339904D02*
X181951668Y-80958952D01*
X181951668Y-80958952D02*
X181780240Y-80768476D01*
X181780240Y-80768476D02*
X181608811Y-80673238D01*
X180065954Y-82673238D02*
X180065954Y-80673238D01*
X180065954Y-80673238D02*
X179637383Y-80673238D01*
X179637383Y-80673238D02*
X179380240Y-80768476D01*
X179380240Y-80768476D02*
X179208811Y-80958952D01*
X179208811Y-80958952D02*
X179123097Y-81149428D01*
X179123097Y-81149428D02*
X179037383Y-81530380D01*
X179037383Y-81530380D02*
X179037383Y-81816095D01*
X179037383Y-81816095D02*
X179123097Y-82197047D01*
X179123097Y-82197047D02*
X179208811Y-82387523D01*
X179208811Y-82387523D02*
X179380240Y-82578000D01*
X179380240Y-82578000D02*
X179637383Y-82673238D01*
X179637383Y-82673238D02*
X180065954Y-82673238D01*
X178265954Y-81625619D02*
X177665954Y-81625619D01*
X177408811Y-82673238D02*
X178265954Y-82673238D01*
X178265954Y-82673238D02*
X178265954Y-80673238D01*
X178265954Y-80673238D02*
X177408811Y-80673238D01*
X176808812Y-83435142D02*
X176723097Y-83339904D01*
X176723097Y-83339904D02*
X176551669Y-83054190D01*
X176551669Y-83054190D02*
X176465955Y-82863714D01*
X176465955Y-82863714D02*
X176380240Y-82578000D01*
X176380240Y-82578000D02*
X176294526Y-82101809D01*
X176294526Y-82101809D02*
X176294526Y-81720857D01*
X176294526Y-81720857D02*
X176380240Y-81244666D01*
X176380240Y-81244666D02*
X176465955Y-80958952D01*
X176465955Y-80958952D02*
X176551669Y-80768476D01*
X176551669Y-80768476D02*
X176723097Y-80482761D01*
X176723097Y-80482761D02*
X176808812Y-80387523D01*
D14*
X166725406Y-97495893D02*
X166439692Y-97495893D01*
X166439692Y-97495893D02*
X166296835Y-97576845D01*
X166296835Y-97576845D02*
X166153978Y-97738750D01*
X166153978Y-97738750D02*
X166082549Y-98062560D01*
X166082549Y-98062560D02*
X166082549Y-98629226D01*
X166082549Y-98629226D02*
X166153978Y-98953036D01*
X166153978Y-98953036D02*
X166296835Y-99114941D01*
X166296835Y-99114941D02*
X166439692Y-99195893D01*
X166439692Y-99195893D02*
X166725406Y-99195893D01*
X166725406Y-99195893D02*
X166868264Y-99114941D01*
X166868264Y-99114941D02*
X167011121Y-98953036D01*
X167011121Y-98953036D02*
X167082549Y-98629226D01*
X167082549Y-98629226D02*
X167082549Y-98062560D01*
X167082549Y-98062560D02*
X167011121Y-97738750D01*
X167011121Y-97738750D02*
X166868264Y-97576845D01*
X166868264Y-97576845D02*
X166725406Y-97495893D01*
X165439692Y-99195893D02*
X165439692Y-97495893D01*
X165439692Y-97495893D02*
X164582549Y-99195893D01*
X164582549Y-99195893D02*
X164582549Y-97495893D01*
X165868264Y-101285179D02*
X164725407Y-101285179D01*
X166725406Y-102969703D02*
X166439692Y-102969703D01*
X166439692Y-102969703D02*
X166296835Y-103050655D01*
X166296835Y-103050655D02*
X166153978Y-103212560D01*
X166153978Y-103212560D02*
X166082549Y-103536370D01*
X166082549Y-103536370D02*
X166082549Y-104103036D01*
X166082549Y-104103036D02*
X166153978Y-104426846D01*
X166153978Y-104426846D02*
X166296835Y-104588751D01*
X166296835Y-104588751D02*
X166439692Y-104669703D01*
X166439692Y-104669703D02*
X166725406Y-104669703D01*
X166725406Y-104669703D02*
X166868264Y-104588751D01*
X166868264Y-104588751D02*
X167011121Y-104426846D01*
X167011121Y-104426846D02*
X167082549Y-104103036D01*
X167082549Y-104103036D02*
X167082549Y-103536370D01*
X167082549Y-103536370D02*
X167011121Y-103212560D01*
X167011121Y-103212560D02*
X166868264Y-103050655D01*
X166868264Y-103050655D02*
X166725406Y-102969703D01*
X165439692Y-104669703D02*
X165439692Y-102969703D01*
X165439692Y-102969703D02*
X164582549Y-104669703D01*
X164582549Y-104669703D02*
X164582549Y-102969703D01*
X165868264Y-106758989D02*
X164725407Y-106758989D01*
X166725406Y-108443513D02*
X166439692Y-108443513D01*
X166439692Y-108443513D02*
X166296835Y-108524465D01*
X166296835Y-108524465D02*
X166153978Y-108686370D01*
X166153978Y-108686370D02*
X166082549Y-109010180D01*
X166082549Y-109010180D02*
X166082549Y-109576846D01*
X166082549Y-109576846D02*
X166153978Y-109900656D01*
X166153978Y-109900656D02*
X166296835Y-110062561D01*
X166296835Y-110062561D02*
X166439692Y-110143513D01*
X166439692Y-110143513D02*
X166725406Y-110143513D01*
X166725406Y-110143513D02*
X166868264Y-110062561D01*
X166868264Y-110062561D02*
X167011121Y-109900656D01*
X167011121Y-109900656D02*
X167082549Y-109576846D01*
X167082549Y-109576846D02*
X167082549Y-109010180D01*
X167082549Y-109010180D02*
X167011121Y-108686370D01*
X167011121Y-108686370D02*
X166868264Y-108524465D01*
X166868264Y-108524465D02*
X166725406Y-108443513D01*
X165439692Y-110143513D02*
X165439692Y-108443513D01*
X165439692Y-108443513D02*
X164582549Y-110143513D01*
X164582549Y-110143513D02*
X164582549Y-108443513D01*
X187601121Y-84529083D02*
X186672549Y-84529083D01*
X186672549Y-84529083D02*
X187172549Y-85176702D01*
X187172549Y-85176702D02*
X186958264Y-85176702D01*
X186958264Y-85176702D02*
X186815407Y-85257654D01*
X186815407Y-85257654D02*
X186743978Y-85338607D01*
X186743978Y-85338607D02*
X186672549Y-85500511D01*
X186672549Y-85500511D02*
X186672549Y-85905273D01*
X186672549Y-85905273D02*
X186743978Y-86067178D01*
X186743978Y-86067178D02*
X186815407Y-86148131D01*
X186815407Y-86148131D02*
X186958264Y-86229083D01*
X186958264Y-86229083D02*
X187386835Y-86229083D01*
X187386835Y-86229083D02*
X187529692Y-86148131D01*
X187529692Y-86148131D02*
X187601121Y-86067178D01*
X187458264Y-91055274D02*
X186315407Y-91055274D01*
X188315406Y-92739798D02*
X188029692Y-92739798D01*
X188029692Y-92739798D02*
X187886835Y-92820750D01*
X187886835Y-92820750D02*
X187743978Y-92982655D01*
X187743978Y-92982655D02*
X187672549Y-93306465D01*
X187672549Y-93306465D02*
X187672549Y-93873131D01*
X187672549Y-93873131D02*
X187743978Y-94196941D01*
X187743978Y-94196941D02*
X187886835Y-94358846D01*
X187886835Y-94358846D02*
X188029692Y-94439798D01*
X188029692Y-94439798D02*
X188315406Y-94439798D01*
X188315406Y-94439798D02*
X188458264Y-94358846D01*
X188458264Y-94358846D02*
X188601121Y-94196941D01*
X188601121Y-94196941D02*
X188672549Y-93873131D01*
X188672549Y-93873131D02*
X188672549Y-93306465D01*
X188672549Y-93306465D02*
X188601121Y-92982655D01*
X188601121Y-92982655D02*
X188458264Y-92820750D01*
X188458264Y-92820750D02*
X188315406Y-92739798D01*
X187029692Y-94439798D02*
X187029692Y-92739798D01*
X187029692Y-92739798D02*
X186172549Y-94439798D01*
X186172549Y-94439798D02*
X186172549Y-92739798D01*
X187458264Y-96529084D02*
X186315407Y-96529084D01*
X188315406Y-98213608D02*
X188029692Y-98213608D01*
X188029692Y-98213608D02*
X187886835Y-98294560D01*
X187886835Y-98294560D02*
X187743978Y-98456465D01*
X187743978Y-98456465D02*
X187672549Y-98780275D01*
X187672549Y-98780275D02*
X187672549Y-99346941D01*
X187672549Y-99346941D02*
X187743978Y-99670751D01*
X187743978Y-99670751D02*
X187886835Y-99832656D01*
X187886835Y-99832656D02*
X188029692Y-99913608D01*
X188029692Y-99913608D02*
X188315406Y-99913608D01*
X188315406Y-99913608D02*
X188458264Y-99832656D01*
X188458264Y-99832656D02*
X188601121Y-99670751D01*
X188601121Y-99670751D02*
X188672549Y-99346941D01*
X188672549Y-99346941D02*
X188672549Y-98780275D01*
X188672549Y-98780275D02*
X188601121Y-98456465D01*
X188601121Y-98456465D02*
X188458264Y-98294560D01*
X188458264Y-98294560D02*
X188315406Y-98213608D01*
X187029692Y-99913608D02*
X187029692Y-98213608D01*
X187029692Y-98213608D02*
X186172549Y-99913608D01*
X186172549Y-99913608D02*
X186172549Y-98213608D01*
X156105121Y-84484798D02*
X155176549Y-84484798D01*
X155176549Y-84484798D02*
X155676549Y-85132417D01*
X155676549Y-85132417D02*
X155462264Y-85132417D01*
X155462264Y-85132417D02*
X155319407Y-85213369D01*
X155319407Y-85213369D02*
X155247978Y-85294322D01*
X155247978Y-85294322D02*
X155176549Y-85456226D01*
X155176549Y-85456226D02*
X155176549Y-85860988D01*
X155176549Y-85860988D02*
X155247978Y-86022893D01*
X155247978Y-86022893D02*
X155319407Y-86103846D01*
X155319407Y-86103846D02*
X155462264Y-86184798D01*
X155462264Y-86184798D02*
X155890835Y-86184798D01*
X155890835Y-86184798D02*
X156033692Y-86103846D01*
X156033692Y-86103846D02*
X156105121Y-86022893D01*
X155962264Y-88274084D02*
X154819407Y-88274084D01*
X155962264Y-91010989D02*
X154819407Y-91010989D01*
X155962264Y-93747894D02*
X154819407Y-93747894D01*
D12*
X199139843Y-64300580D02*
X200968414Y-65014866D01*
X200968414Y-65014866D02*
X199139843Y-65729152D01*
X197996985Y-65014866D02*
X196168414Y-65014866D01*
X193654127Y-65967247D02*
X194454127Y-64776771D01*
X195025556Y-65967247D02*
X195025556Y-63467247D01*
X195025556Y-63467247D02*
X194111270Y-63467247D01*
X194111270Y-63467247D02*
X193882699Y-63586295D01*
X193882699Y-63586295D02*
X193768413Y-63705342D01*
X193768413Y-63705342D02*
X193654127Y-63943438D01*
X193654127Y-63943438D02*
X193654127Y-64300580D01*
X193654127Y-64300580D02*
X193768413Y-64538676D01*
X193768413Y-64538676D02*
X193882699Y-64657723D01*
X193882699Y-64657723D02*
X194111270Y-64776771D01*
X194111270Y-64776771D02*
X195025556Y-64776771D01*
X192625556Y-64657723D02*
X191825556Y-64657723D01*
X191482699Y-65967247D02*
X192625556Y-65967247D01*
X192625556Y-65967247D02*
X192625556Y-63467247D01*
X192625556Y-63467247D02*
X191482699Y-63467247D01*
X190568413Y-65252961D02*
X189425556Y-65252961D01*
X190796984Y-65967247D02*
X189996984Y-63467247D01*
X189996984Y-63467247D02*
X189196984Y-65967247D01*
X187025555Y-65967247D02*
X187825555Y-64776771D01*
X188396984Y-65967247D02*
X188396984Y-63467247D01*
X188396984Y-63467247D02*
X187482698Y-63467247D01*
X187482698Y-63467247D02*
X187254127Y-63586295D01*
X187254127Y-63586295D02*
X187139841Y-63705342D01*
X187139841Y-63705342D02*
X187025555Y-63943438D01*
X187025555Y-63943438D02*
X187025555Y-64300580D01*
X187025555Y-64300580D02*
X187139841Y-64538676D01*
X187139841Y-64538676D02*
X187254127Y-64657723D01*
X187254127Y-64657723D02*
X187482698Y-64776771D01*
X187482698Y-64776771D02*
X188396984Y-64776771D01*
D14*
X161899406Y-97495893D02*
X161613692Y-97495893D01*
X161613692Y-97495893D02*
X161470835Y-97576845D01*
X161470835Y-97576845D02*
X161327978Y-97738750D01*
X161327978Y-97738750D02*
X161256549Y-98062560D01*
X161256549Y-98062560D02*
X161256549Y-98629226D01*
X161256549Y-98629226D02*
X161327978Y-98953036D01*
X161327978Y-98953036D02*
X161470835Y-99114941D01*
X161470835Y-99114941D02*
X161613692Y-99195893D01*
X161613692Y-99195893D02*
X161899406Y-99195893D01*
X161899406Y-99195893D02*
X162042264Y-99114941D01*
X162042264Y-99114941D02*
X162185121Y-98953036D01*
X162185121Y-98953036D02*
X162256549Y-98629226D01*
X162256549Y-98629226D02*
X162256549Y-98062560D01*
X162256549Y-98062560D02*
X162185121Y-97738750D01*
X162185121Y-97738750D02*
X162042264Y-97576845D01*
X162042264Y-97576845D02*
X161899406Y-97495893D01*
X160613692Y-99195893D02*
X160613692Y-97495893D01*
X160613692Y-97495893D02*
X159756549Y-99195893D01*
X159756549Y-99195893D02*
X159756549Y-97495893D01*
X161042264Y-101285179D02*
X159899407Y-101285179D01*
X161042264Y-104022084D02*
X159899407Y-104022084D01*
X161899406Y-105706608D02*
X161613692Y-105706608D01*
X161613692Y-105706608D02*
X161470835Y-105787560D01*
X161470835Y-105787560D02*
X161327978Y-105949465D01*
X161327978Y-105949465D02*
X161256549Y-106273275D01*
X161256549Y-106273275D02*
X161256549Y-106839941D01*
X161256549Y-106839941D02*
X161327978Y-107163751D01*
X161327978Y-107163751D02*
X161470835Y-107325656D01*
X161470835Y-107325656D02*
X161613692Y-107406608D01*
X161613692Y-107406608D02*
X161899406Y-107406608D01*
X161899406Y-107406608D02*
X162042264Y-107325656D01*
X162042264Y-107325656D02*
X162185121Y-107163751D01*
X162185121Y-107163751D02*
X162256549Y-106839941D01*
X162256549Y-106839941D02*
X162256549Y-106273275D01*
X162256549Y-106273275D02*
X162185121Y-105949465D01*
X162185121Y-105949465D02*
X162042264Y-105787560D01*
X162042264Y-105787560D02*
X161899406Y-105706608D01*
X160613692Y-107406608D02*
X160613692Y-105706608D01*
X160613692Y-105706608D02*
X159756549Y-107406608D01*
X159756549Y-107406608D02*
X159756549Y-105706608D01*
X161899406Y-108443513D02*
X161613692Y-108443513D01*
X161613692Y-108443513D02*
X161470835Y-108524465D01*
X161470835Y-108524465D02*
X161327978Y-108686370D01*
X161327978Y-108686370D02*
X161256549Y-109010180D01*
X161256549Y-109010180D02*
X161256549Y-109576846D01*
X161256549Y-109576846D02*
X161327978Y-109900656D01*
X161327978Y-109900656D02*
X161470835Y-110062561D01*
X161470835Y-110062561D02*
X161613692Y-110143513D01*
X161613692Y-110143513D02*
X161899406Y-110143513D01*
X161899406Y-110143513D02*
X162042264Y-110062561D01*
X162042264Y-110062561D02*
X162185121Y-109900656D01*
X162185121Y-109900656D02*
X162256549Y-109576846D01*
X162256549Y-109576846D02*
X162256549Y-109010180D01*
X162256549Y-109010180D02*
X162185121Y-108686370D01*
X162185121Y-108686370D02*
X162042264Y-108524465D01*
X162042264Y-108524465D02*
X161899406Y-108443513D01*
X160613692Y-110143513D02*
X160613692Y-108443513D01*
X160613692Y-108443513D02*
X159756549Y-110143513D01*
X159756549Y-110143513D02*
X159756549Y-108443513D01*
X151136121Y-86184798D02*
X151136121Y-84484798D01*
X151136121Y-84484798D02*
X150564692Y-84484798D01*
X150564692Y-84484798D02*
X150421835Y-84565750D01*
X150421835Y-84565750D02*
X150350406Y-84646703D01*
X150350406Y-84646703D02*
X150278978Y-84808607D01*
X150278978Y-84808607D02*
X150278978Y-85051465D01*
X150278978Y-85051465D02*
X150350406Y-85213369D01*
X150350406Y-85213369D02*
X150421835Y-85294322D01*
X150421835Y-85294322D02*
X150564692Y-85375274D01*
X150564692Y-85375274D02*
X151136121Y-85375274D01*
X149350406Y-84484798D02*
X149064692Y-84484798D01*
X149064692Y-84484798D02*
X148921835Y-84565750D01*
X148921835Y-84565750D02*
X148778978Y-84727655D01*
X148778978Y-84727655D02*
X148707549Y-85051465D01*
X148707549Y-85051465D02*
X148707549Y-85618131D01*
X148707549Y-85618131D02*
X148778978Y-85941941D01*
X148778978Y-85941941D02*
X148921835Y-86103846D01*
X148921835Y-86103846D02*
X149064692Y-86184798D01*
X149064692Y-86184798D02*
X149350406Y-86184798D01*
X149350406Y-86184798D02*
X149493264Y-86103846D01*
X149493264Y-86103846D02*
X149636121Y-85941941D01*
X149636121Y-85941941D02*
X149707549Y-85618131D01*
X149707549Y-85618131D02*
X149707549Y-85051465D01*
X149707549Y-85051465D02*
X149636121Y-84727655D01*
X149636121Y-84727655D02*
X149493264Y-84565750D01*
X149493264Y-84565750D02*
X149350406Y-84484798D01*
X148136120Y-86103846D02*
X147921835Y-86184798D01*
X147921835Y-86184798D02*
X147564692Y-86184798D01*
X147564692Y-86184798D02*
X147421835Y-86103846D01*
X147421835Y-86103846D02*
X147350406Y-86022893D01*
X147350406Y-86022893D02*
X147278977Y-85860988D01*
X147278977Y-85860988D02*
X147278977Y-85699084D01*
X147278977Y-85699084D02*
X147350406Y-85537179D01*
X147350406Y-85537179D02*
X147421835Y-85456226D01*
X147421835Y-85456226D02*
X147564692Y-85375274D01*
X147564692Y-85375274D02*
X147850406Y-85294322D01*
X147850406Y-85294322D02*
X147993263Y-85213369D01*
X147993263Y-85213369D02*
X148064692Y-85132417D01*
X148064692Y-85132417D02*
X148136120Y-84970512D01*
X148136120Y-84970512D02*
X148136120Y-84808607D01*
X148136120Y-84808607D02*
X148064692Y-84646703D01*
X148064692Y-84646703D02*
X147993263Y-84565750D01*
X147993263Y-84565750D02*
X147850406Y-84484798D01*
X147850406Y-84484798D02*
X147493263Y-84484798D01*
X147493263Y-84484798D02*
X147278977Y-84565750D01*
X146850406Y-84484798D02*
X145993264Y-84484798D01*
X146421835Y-86184798D02*
X146421835Y-84484798D01*
X144350407Y-86184798D02*
X144350407Y-84484798D01*
X144350407Y-84484798D02*
X143778978Y-84484798D01*
X143778978Y-84484798D02*
X143636121Y-84565750D01*
X143636121Y-84565750D02*
X143564692Y-84646703D01*
X143564692Y-84646703D02*
X143493264Y-84808607D01*
X143493264Y-84808607D02*
X143493264Y-85051465D01*
X143493264Y-85051465D02*
X143564692Y-85213369D01*
X143564692Y-85213369D02*
X143636121Y-85294322D01*
X143636121Y-85294322D02*
X143778978Y-85375274D01*
X143778978Y-85375274D02*
X144350407Y-85375274D01*
X142564692Y-84484798D02*
X142278978Y-84484798D01*
X142278978Y-84484798D02*
X142136121Y-84565750D01*
X142136121Y-84565750D02*
X141993264Y-84727655D01*
X141993264Y-84727655D02*
X141921835Y-85051465D01*
X141921835Y-85051465D02*
X141921835Y-85618131D01*
X141921835Y-85618131D02*
X141993264Y-85941941D01*
X141993264Y-85941941D02*
X142136121Y-86103846D01*
X142136121Y-86103846D02*
X142278978Y-86184798D01*
X142278978Y-86184798D02*
X142564692Y-86184798D01*
X142564692Y-86184798D02*
X142707550Y-86103846D01*
X142707550Y-86103846D02*
X142850407Y-85941941D01*
X142850407Y-85941941D02*
X142921835Y-85618131D01*
X142921835Y-85618131D02*
X142921835Y-85051465D01*
X142921835Y-85051465D02*
X142850407Y-84727655D01*
X142850407Y-84727655D02*
X142707550Y-84565750D01*
X142707550Y-84565750D02*
X142564692Y-84484798D01*
X140421835Y-86184798D02*
X140921835Y-85375274D01*
X141278978Y-86184798D02*
X141278978Y-84484798D01*
X141278978Y-84484798D02*
X140707549Y-84484798D01*
X140707549Y-84484798D02*
X140564692Y-84565750D01*
X140564692Y-84565750D02*
X140493263Y-84646703D01*
X140493263Y-84646703D02*
X140421835Y-84808607D01*
X140421835Y-84808607D02*
X140421835Y-85051465D01*
X140421835Y-85051465D02*
X140493263Y-85213369D01*
X140493263Y-85213369D02*
X140564692Y-85294322D01*
X140564692Y-85294322D02*
X140707549Y-85375274D01*
X140707549Y-85375274D02*
X141278978Y-85375274D01*
X139993263Y-84484798D02*
X139136121Y-84484798D01*
X139564692Y-86184798D02*
X139564692Y-84484798D01*
X146350407Y-87950274D02*
X146493264Y-87869322D01*
X146493264Y-87869322D02*
X146564693Y-87788370D01*
X146564693Y-87788370D02*
X146636121Y-87626465D01*
X146636121Y-87626465D02*
X146636121Y-87545512D01*
X146636121Y-87545512D02*
X146564693Y-87383608D01*
X146564693Y-87383608D02*
X146493264Y-87302655D01*
X146493264Y-87302655D02*
X146350407Y-87221703D01*
X146350407Y-87221703D02*
X146064693Y-87221703D01*
X146064693Y-87221703D02*
X145921836Y-87302655D01*
X145921836Y-87302655D02*
X145850407Y-87383608D01*
X145850407Y-87383608D02*
X145778978Y-87545512D01*
X145778978Y-87545512D02*
X145778978Y-87626465D01*
X145778978Y-87626465D02*
X145850407Y-87788370D01*
X145850407Y-87788370D02*
X145921836Y-87869322D01*
X145921836Y-87869322D02*
X146064693Y-87950274D01*
X146064693Y-87950274D02*
X146350407Y-87950274D01*
X146350407Y-87950274D02*
X146493264Y-88031227D01*
X146493264Y-88031227D02*
X146564693Y-88112179D01*
X146564693Y-88112179D02*
X146636121Y-88274084D01*
X146636121Y-88274084D02*
X146636121Y-88597893D01*
X146636121Y-88597893D02*
X146564693Y-88759798D01*
X146564693Y-88759798D02*
X146493264Y-88840751D01*
X146493264Y-88840751D02*
X146350407Y-88921703D01*
X146350407Y-88921703D02*
X146064693Y-88921703D01*
X146064693Y-88921703D02*
X145921836Y-88840751D01*
X145921836Y-88840751D02*
X145850407Y-88759798D01*
X145850407Y-88759798D02*
X145778978Y-88597893D01*
X145778978Y-88597893D02*
X145778978Y-88274084D01*
X145778978Y-88274084D02*
X145850407Y-88112179D01*
X145850407Y-88112179D02*
X145921836Y-88031227D01*
X145921836Y-88031227D02*
X146064693Y-87950274D01*
X144850407Y-87221703D02*
X144707550Y-87221703D01*
X144707550Y-87221703D02*
X144564693Y-87302655D01*
X144564693Y-87302655D02*
X144493265Y-87383608D01*
X144493265Y-87383608D02*
X144421836Y-87545512D01*
X144421836Y-87545512D02*
X144350407Y-87869322D01*
X144350407Y-87869322D02*
X144350407Y-88274084D01*
X144350407Y-88274084D02*
X144421836Y-88597893D01*
X144421836Y-88597893D02*
X144493265Y-88759798D01*
X144493265Y-88759798D02*
X144564693Y-88840751D01*
X144564693Y-88840751D02*
X144707550Y-88921703D01*
X144707550Y-88921703D02*
X144850407Y-88921703D01*
X144850407Y-88921703D02*
X144993265Y-88840751D01*
X144993265Y-88840751D02*
X145064693Y-88759798D01*
X145064693Y-88759798D02*
X145136122Y-88597893D01*
X145136122Y-88597893D02*
X145207550Y-88274084D01*
X145207550Y-88274084D02*
X145207550Y-87869322D01*
X145207550Y-87869322D02*
X145136122Y-87545512D01*
X145136122Y-87545512D02*
X145064693Y-87383608D01*
X145064693Y-87383608D02*
X144993265Y-87302655D01*
X144993265Y-87302655D02*
X144850407Y-87221703D01*
X143707551Y-88921703D02*
X143707551Y-87221703D01*
X143064694Y-88921703D02*
X143064694Y-88031227D01*
X143064694Y-88031227D02*
X143136122Y-87869322D01*
X143136122Y-87869322D02*
X143278979Y-87788370D01*
X143278979Y-87788370D02*
X143493265Y-87788370D01*
X143493265Y-87788370D02*
X143636122Y-87869322D01*
X143636122Y-87869322D02*
X143707551Y-87950274D01*
X146350407Y-90687179D02*
X146493264Y-90606227D01*
X146493264Y-90606227D02*
X146564693Y-90525275D01*
X146564693Y-90525275D02*
X146636121Y-90363370D01*
X146636121Y-90363370D02*
X146636121Y-90282417D01*
X146636121Y-90282417D02*
X146564693Y-90120513D01*
X146564693Y-90120513D02*
X146493264Y-90039560D01*
X146493264Y-90039560D02*
X146350407Y-89958608D01*
X146350407Y-89958608D02*
X146064693Y-89958608D01*
X146064693Y-89958608D02*
X145921836Y-90039560D01*
X145921836Y-90039560D02*
X145850407Y-90120513D01*
X145850407Y-90120513D02*
X145778978Y-90282417D01*
X145778978Y-90282417D02*
X145778978Y-90363370D01*
X145778978Y-90363370D02*
X145850407Y-90525275D01*
X145850407Y-90525275D02*
X145921836Y-90606227D01*
X145921836Y-90606227D02*
X146064693Y-90687179D01*
X146064693Y-90687179D02*
X146350407Y-90687179D01*
X146350407Y-90687179D02*
X146493264Y-90768132D01*
X146493264Y-90768132D02*
X146564693Y-90849084D01*
X146564693Y-90849084D02*
X146636121Y-91010989D01*
X146636121Y-91010989D02*
X146636121Y-91334798D01*
X146636121Y-91334798D02*
X146564693Y-91496703D01*
X146564693Y-91496703D02*
X146493264Y-91577656D01*
X146493264Y-91577656D02*
X146350407Y-91658608D01*
X146350407Y-91658608D02*
X146064693Y-91658608D01*
X146064693Y-91658608D02*
X145921836Y-91577656D01*
X145921836Y-91577656D02*
X145850407Y-91496703D01*
X145850407Y-91496703D02*
X145778978Y-91334798D01*
X145778978Y-91334798D02*
X145778978Y-91010989D01*
X145778978Y-91010989D02*
X145850407Y-90849084D01*
X145850407Y-90849084D02*
X145921836Y-90768132D01*
X145921836Y-90768132D02*
X146064693Y-90687179D01*
X144493265Y-90525275D02*
X144493265Y-91658608D01*
X144850407Y-89877656D02*
X145207550Y-91091941D01*
X145207550Y-91091941D02*
X144278979Y-91091941D01*
X143707551Y-91658608D02*
X143707551Y-89958608D01*
X143064694Y-91658608D02*
X143064694Y-90768132D01*
X143064694Y-90768132D02*
X143136122Y-90606227D01*
X143136122Y-90606227D02*
X143278979Y-90525275D01*
X143278979Y-90525275D02*
X143493265Y-90525275D01*
X143493265Y-90525275D02*
X143636122Y-90606227D01*
X143636122Y-90606227D02*
X143707551Y-90687179D01*
X146493264Y-94395513D02*
X146207550Y-94395513D01*
X146207550Y-94395513D02*
X146064693Y-94314561D01*
X146064693Y-94314561D02*
X145993264Y-94233608D01*
X145993264Y-94233608D02*
X145850407Y-93990751D01*
X145850407Y-93990751D02*
X145778978Y-93666941D01*
X145778978Y-93666941D02*
X145778978Y-93019322D01*
X145778978Y-93019322D02*
X145850407Y-92857418D01*
X145850407Y-92857418D02*
X145921836Y-92776465D01*
X145921836Y-92776465D02*
X146064693Y-92695513D01*
X146064693Y-92695513D02*
X146350407Y-92695513D01*
X146350407Y-92695513D02*
X146493264Y-92776465D01*
X146493264Y-92776465D02*
X146564693Y-92857418D01*
X146564693Y-92857418D02*
X146636121Y-93019322D01*
X146636121Y-93019322D02*
X146636121Y-93424084D01*
X146636121Y-93424084D02*
X146564693Y-93585989D01*
X146564693Y-93585989D02*
X146493264Y-93666941D01*
X146493264Y-93666941D02*
X146350407Y-93747894D01*
X146350407Y-93747894D02*
X146064693Y-93747894D01*
X146064693Y-93747894D02*
X145921836Y-93666941D01*
X145921836Y-93666941D02*
X145850407Y-93585989D01*
X145850407Y-93585989D02*
X145778978Y-93424084D01*
X144850407Y-92695513D02*
X144707550Y-92695513D01*
X144707550Y-92695513D02*
X144564693Y-92776465D01*
X144564693Y-92776465D02*
X144493265Y-92857418D01*
X144493265Y-92857418D02*
X144421836Y-93019322D01*
X144421836Y-93019322D02*
X144350407Y-93343132D01*
X144350407Y-93343132D02*
X144350407Y-93747894D01*
X144350407Y-93747894D02*
X144421836Y-94071703D01*
X144421836Y-94071703D02*
X144493265Y-94233608D01*
X144493265Y-94233608D02*
X144564693Y-94314561D01*
X144564693Y-94314561D02*
X144707550Y-94395513D01*
X144707550Y-94395513D02*
X144850407Y-94395513D01*
X144850407Y-94395513D02*
X144993265Y-94314561D01*
X144993265Y-94314561D02*
X145064693Y-94233608D01*
X145064693Y-94233608D02*
X145136122Y-94071703D01*
X145136122Y-94071703D02*
X145207550Y-93747894D01*
X145207550Y-93747894D02*
X145207550Y-93343132D01*
X145207550Y-93343132D02*
X145136122Y-93019322D01*
X145136122Y-93019322D02*
X145064693Y-92857418D01*
X145064693Y-92857418D02*
X144993265Y-92776465D01*
X144993265Y-92776465D02*
X144850407Y-92695513D01*
X143707551Y-94395513D02*
X143707551Y-92695513D01*
X143064694Y-94395513D02*
X143064694Y-93505037D01*
X143064694Y-93505037D02*
X143136122Y-93343132D01*
X143136122Y-93343132D02*
X143278979Y-93262180D01*
X143278979Y-93262180D02*
X143493265Y-93262180D01*
X143493265Y-93262180D02*
X143636122Y-93343132D01*
X143636122Y-93343132D02*
X143707551Y-93424084D01*
X165082549Y-86184798D02*
X165939692Y-86184798D01*
X165511121Y-86184798D02*
X165511121Y-84484798D01*
X165511121Y-84484798D02*
X165653978Y-84727655D01*
X165653978Y-84727655D02*
X165796835Y-84889560D01*
X165796835Y-84889560D02*
X165939692Y-84970512D01*
X165868264Y-88274084D02*
X164725407Y-88274084D01*
X166725406Y-89958608D02*
X166439692Y-89958608D01*
X166439692Y-89958608D02*
X166296835Y-90039560D01*
X166296835Y-90039560D02*
X166153978Y-90201465D01*
X166153978Y-90201465D02*
X166082549Y-90525275D01*
X166082549Y-90525275D02*
X166082549Y-91091941D01*
X166082549Y-91091941D02*
X166153978Y-91415751D01*
X166153978Y-91415751D02*
X166296835Y-91577656D01*
X166296835Y-91577656D02*
X166439692Y-91658608D01*
X166439692Y-91658608D02*
X166725406Y-91658608D01*
X166725406Y-91658608D02*
X166868264Y-91577656D01*
X166868264Y-91577656D02*
X167011121Y-91415751D01*
X167011121Y-91415751D02*
X167082549Y-91091941D01*
X167082549Y-91091941D02*
X167082549Y-90525275D01*
X167082549Y-90525275D02*
X167011121Y-90201465D01*
X167011121Y-90201465D02*
X166868264Y-90039560D01*
X166868264Y-90039560D02*
X166725406Y-89958608D01*
X165439692Y-91658608D02*
X165439692Y-89958608D01*
X165439692Y-89958608D02*
X164582549Y-91658608D01*
X164582549Y-91658608D02*
X164582549Y-89958608D01*
X165868264Y-93747894D02*
X164725407Y-93747894D01*
X147850407Y-97495893D02*
X146921835Y-97495893D01*
X146921835Y-97495893D02*
X147421835Y-98143512D01*
X147421835Y-98143512D02*
X147207550Y-98143512D01*
X147207550Y-98143512D02*
X147064693Y-98224464D01*
X147064693Y-98224464D02*
X146993264Y-98305417D01*
X146993264Y-98305417D02*
X146921835Y-98467321D01*
X146921835Y-98467321D02*
X146921835Y-98872083D01*
X146921835Y-98872083D02*
X146993264Y-99033988D01*
X146993264Y-99033988D02*
X147064693Y-99114941D01*
X147064693Y-99114941D02*
X147207550Y-99195893D01*
X147207550Y-99195893D02*
X147636121Y-99195893D01*
X147636121Y-99195893D02*
X147778978Y-99114941D01*
X147778978Y-99114941D02*
X147850407Y-99033988D01*
X145993264Y-97495893D02*
X145850407Y-97495893D01*
X145850407Y-97495893D02*
X145707550Y-97576845D01*
X145707550Y-97576845D02*
X145636122Y-97657798D01*
X145636122Y-97657798D02*
X145564693Y-97819702D01*
X145564693Y-97819702D02*
X145493264Y-98143512D01*
X145493264Y-98143512D02*
X145493264Y-98548274D01*
X145493264Y-98548274D02*
X145564693Y-98872083D01*
X145564693Y-98872083D02*
X145636122Y-99033988D01*
X145636122Y-99033988D02*
X145707550Y-99114941D01*
X145707550Y-99114941D02*
X145850407Y-99195893D01*
X145850407Y-99195893D02*
X145993264Y-99195893D01*
X145993264Y-99195893D02*
X146136122Y-99114941D01*
X146136122Y-99114941D02*
X146207550Y-99033988D01*
X146207550Y-99033988D02*
X146278979Y-98872083D01*
X146278979Y-98872083D02*
X146350407Y-98548274D01*
X146350407Y-98548274D02*
X146350407Y-98143512D01*
X146350407Y-98143512D02*
X146278979Y-97819702D01*
X146278979Y-97819702D02*
X146207550Y-97657798D01*
X146207550Y-97657798D02*
X146136122Y-97576845D01*
X146136122Y-97576845D02*
X145993264Y-97495893D01*
X144564693Y-97495893D02*
X144421836Y-97495893D01*
X144421836Y-97495893D02*
X144278979Y-97576845D01*
X144278979Y-97576845D02*
X144207551Y-97657798D01*
X144207551Y-97657798D02*
X144136122Y-97819702D01*
X144136122Y-97819702D02*
X144064693Y-98143512D01*
X144064693Y-98143512D02*
X144064693Y-98548274D01*
X144064693Y-98548274D02*
X144136122Y-98872083D01*
X144136122Y-98872083D02*
X144207551Y-99033988D01*
X144207551Y-99033988D02*
X144278979Y-99114941D01*
X144278979Y-99114941D02*
X144421836Y-99195893D01*
X144421836Y-99195893D02*
X144564693Y-99195893D01*
X144564693Y-99195893D02*
X144707551Y-99114941D01*
X144707551Y-99114941D02*
X144778979Y-99033988D01*
X144778979Y-99033988D02*
X144850408Y-98872083D01*
X144850408Y-98872083D02*
X144921836Y-98548274D01*
X144921836Y-98548274D02*
X144921836Y-98143512D01*
X144921836Y-98143512D02*
X144850408Y-97819702D01*
X144850408Y-97819702D02*
X144778979Y-97657798D01*
X144778979Y-97657798D02*
X144707551Y-97576845D01*
X144707551Y-97576845D02*
X144564693Y-97495893D01*
X143421837Y-99195893D02*
X143421837Y-97495893D01*
X142778980Y-99195893D02*
X142778980Y-98305417D01*
X142778980Y-98305417D02*
X142850408Y-98143512D01*
X142850408Y-98143512D02*
X142993265Y-98062560D01*
X142993265Y-98062560D02*
X143207551Y-98062560D01*
X143207551Y-98062560D02*
X143350408Y-98143512D01*
X143350408Y-98143512D02*
X143421837Y-98224464D01*
X147064693Y-100232798D02*
X147350407Y-100232798D01*
X147350407Y-100232798D02*
X147493264Y-100313750D01*
X147493264Y-100313750D02*
X147564693Y-100394703D01*
X147564693Y-100394703D02*
X147707550Y-100637560D01*
X147707550Y-100637560D02*
X147778978Y-100961369D01*
X147778978Y-100961369D02*
X147778978Y-101608988D01*
X147778978Y-101608988D02*
X147707550Y-101770893D01*
X147707550Y-101770893D02*
X147636121Y-101851846D01*
X147636121Y-101851846D02*
X147493264Y-101932798D01*
X147493264Y-101932798D02*
X147207550Y-101932798D01*
X147207550Y-101932798D02*
X147064693Y-101851846D01*
X147064693Y-101851846D02*
X146993264Y-101770893D01*
X146993264Y-101770893D02*
X146921835Y-101608988D01*
X146921835Y-101608988D02*
X146921835Y-101204226D01*
X146921835Y-101204226D02*
X146993264Y-101042322D01*
X146993264Y-101042322D02*
X147064693Y-100961369D01*
X147064693Y-100961369D02*
X147207550Y-100880417D01*
X147207550Y-100880417D02*
X147493264Y-100880417D01*
X147493264Y-100880417D02*
X147636121Y-100961369D01*
X147636121Y-100961369D02*
X147707550Y-101042322D01*
X147707550Y-101042322D02*
X147778978Y-101204226D01*
X146064693Y-100961369D02*
X146207550Y-100880417D01*
X146207550Y-100880417D02*
X146278979Y-100799465D01*
X146278979Y-100799465D02*
X146350407Y-100637560D01*
X146350407Y-100637560D02*
X146350407Y-100556607D01*
X146350407Y-100556607D02*
X146278979Y-100394703D01*
X146278979Y-100394703D02*
X146207550Y-100313750D01*
X146207550Y-100313750D02*
X146064693Y-100232798D01*
X146064693Y-100232798D02*
X145778979Y-100232798D01*
X145778979Y-100232798D02*
X145636122Y-100313750D01*
X145636122Y-100313750D02*
X145564693Y-100394703D01*
X145564693Y-100394703D02*
X145493264Y-100556607D01*
X145493264Y-100556607D02*
X145493264Y-100637560D01*
X145493264Y-100637560D02*
X145564693Y-100799465D01*
X145564693Y-100799465D02*
X145636122Y-100880417D01*
X145636122Y-100880417D02*
X145778979Y-100961369D01*
X145778979Y-100961369D02*
X146064693Y-100961369D01*
X146064693Y-100961369D02*
X146207550Y-101042322D01*
X146207550Y-101042322D02*
X146278979Y-101123274D01*
X146278979Y-101123274D02*
X146350407Y-101285179D01*
X146350407Y-101285179D02*
X146350407Y-101608988D01*
X146350407Y-101608988D02*
X146278979Y-101770893D01*
X146278979Y-101770893D02*
X146207550Y-101851846D01*
X146207550Y-101851846D02*
X146064693Y-101932798D01*
X146064693Y-101932798D02*
X145778979Y-101932798D01*
X145778979Y-101932798D02*
X145636122Y-101851846D01*
X145636122Y-101851846D02*
X145564693Y-101770893D01*
X145564693Y-101770893D02*
X145493264Y-101608988D01*
X145493264Y-101608988D02*
X145493264Y-101285179D01*
X145493264Y-101285179D02*
X145564693Y-101123274D01*
X145564693Y-101123274D02*
X145636122Y-101042322D01*
X145636122Y-101042322D02*
X145778979Y-100961369D01*
X144564693Y-100232798D02*
X144421836Y-100232798D01*
X144421836Y-100232798D02*
X144278979Y-100313750D01*
X144278979Y-100313750D02*
X144207551Y-100394703D01*
X144207551Y-100394703D02*
X144136122Y-100556607D01*
X144136122Y-100556607D02*
X144064693Y-100880417D01*
X144064693Y-100880417D02*
X144064693Y-101285179D01*
X144064693Y-101285179D02*
X144136122Y-101608988D01*
X144136122Y-101608988D02*
X144207551Y-101770893D01*
X144207551Y-101770893D02*
X144278979Y-101851846D01*
X144278979Y-101851846D02*
X144421836Y-101932798D01*
X144421836Y-101932798D02*
X144564693Y-101932798D01*
X144564693Y-101932798D02*
X144707551Y-101851846D01*
X144707551Y-101851846D02*
X144778979Y-101770893D01*
X144778979Y-101770893D02*
X144850408Y-101608988D01*
X144850408Y-101608988D02*
X144921836Y-101285179D01*
X144921836Y-101285179D02*
X144921836Y-100880417D01*
X144921836Y-100880417D02*
X144850408Y-100556607D01*
X144850408Y-100556607D02*
X144778979Y-100394703D01*
X144778979Y-100394703D02*
X144707551Y-100313750D01*
X144707551Y-100313750D02*
X144564693Y-100232798D01*
X143421837Y-101932798D02*
X143421837Y-100232798D01*
X142778980Y-101932798D02*
X142778980Y-101042322D01*
X142778980Y-101042322D02*
X142850408Y-100880417D01*
X142850408Y-100880417D02*
X142993265Y-100799465D01*
X142993265Y-100799465D02*
X143207551Y-100799465D01*
X143207551Y-100799465D02*
X143350408Y-100880417D01*
X143350408Y-100880417D02*
X143421837Y-100961369D01*
X145921836Y-102969703D02*
X146207550Y-102969703D01*
X146207550Y-102969703D02*
X146350407Y-103050655D01*
X146350407Y-103050655D02*
X146421836Y-103131608D01*
X146421836Y-103131608D02*
X146564693Y-103374465D01*
X146564693Y-103374465D02*
X146636121Y-103698274D01*
X146636121Y-103698274D02*
X146636121Y-104345893D01*
X146636121Y-104345893D02*
X146564693Y-104507798D01*
X146564693Y-104507798D02*
X146493264Y-104588751D01*
X146493264Y-104588751D02*
X146350407Y-104669703D01*
X146350407Y-104669703D02*
X146064693Y-104669703D01*
X146064693Y-104669703D02*
X145921836Y-104588751D01*
X145921836Y-104588751D02*
X145850407Y-104507798D01*
X145850407Y-104507798D02*
X145778978Y-104345893D01*
X145778978Y-104345893D02*
X145778978Y-103941131D01*
X145778978Y-103941131D02*
X145850407Y-103779227D01*
X145850407Y-103779227D02*
X145921836Y-103698274D01*
X145921836Y-103698274D02*
X146064693Y-103617322D01*
X146064693Y-103617322D02*
X146350407Y-103617322D01*
X146350407Y-103617322D02*
X146493264Y-103698274D01*
X146493264Y-103698274D02*
X146564693Y-103779227D01*
X146564693Y-103779227D02*
X146636121Y-103941131D01*
X144850407Y-102969703D02*
X144707550Y-102969703D01*
X144707550Y-102969703D02*
X144564693Y-103050655D01*
X144564693Y-103050655D02*
X144493265Y-103131608D01*
X144493265Y-103131608D02*
X144421836Y-103293512D01*
X144421836Y-103293512D02*
X144350407Y-103617322D01*
X144350407Y-103617322D02*
X144350407Y-104022084D01*
X144350407Y-104022084D02*
X144421836Y-104345893D01*
X144421836Y-104345893D02*
X144493265Y-104507798D01*
X144493265Y-104507798D02*
X144564693Y-104588751D01*
X144564693Y-104588751D02*
X144707550Y-104669703D01*
X144707550Y-104669703D02*
X144850407Y-104669703D01*
X144850407Y-104669703D02*
X144993265Y-104588751D01*
X144993265Y-104588751D02*
X145064693Y-104507798D01*
X145064693Y-104507798D02*
X145136122Y-104345893D01*
X145136122Y-104345893D02*
X145207550Y-104022084D01*
X145207550Y-104022084D02*
X145207550Y-103617322D01*
X145207550Y-103617322D02*
X145136122Y-103293512D01*
X145136122Y-103293512D02*
X145064693Y-103131608D01*
X145064693Y-103131608D02*
X144993265Y-103050655D01*
X144993265Y-103050655D02*
X144850407Y-102969703D01*
X143707551Y-104669703D02*
X143707551Y-102969703D01*
X143064694Y-104669703D02*
X143064694Y-103779227D01*
X143064694Y-103779227D02*
X143136122Y-103617322D01*
X143136122Y-103617322D02*
X143278979Y-103536370D01*
X143278979Y-103536370D02*
X143493265Y-103536370D01*
X143493265Y-103536370D02*
X143636122Y-103617322D01*
X143636122Y-103617322D02*
X143707551Y-103698274D01*
X146921835Y-107406608D02*
X147778978Y-107406608D01*
X147350407Y-107406608D02*
X147350407Y-105706608D01*
X147350407Y-105706608D02*
X147493264Y-105949465D01*
X147493264Y-105949465D02*
X147636121Y-106111370D01*
X147636121Y-106111370D02*
X147778978Y-106192322D01*
X146207550Y-107406608D02*
X145921836Y-107406608D01*
X145921836Y-107406608D02*
X145778979Y-107325656D01*
X145778979Y-107325656D02*
X145707550Y-107244703D01*
X145707550Y-107244703D02*
X145564693Y-107001846D01*
X145564693Y-107001846D02*
X145493264Y-106678036D01*
X145493264Y-106678036D02*
X145493264Y-106030417D01*
X145493264Y-106030417D02*
X145564693Y-105868513D01*
X145564693Y-105868513D02*
X145636122Y-105787560D01*
X145636122Y-105787560D02*
X145778979Y-105706608D01*
X145778979Y-105706608D02*
X146064693Y-105706608D01*
X146064693Y-105706608D02*
X146207550Y-105787560D01*
X146207550Y-105787560D02*
X146278979Y-105868513D01*
X146278979Y-105868513D02*
X146350407Y-106030417D01*
X146350407Y-106030417D02*
X146350407Y-106435179D01*
X146350407Y-106435179D02*
X146278979Y-106597084D01*
X146278979Y-106597084D02*
X146207550Y-106678036D01*
X146207550Y-106678036D02*
X146064693Y-106758989D01*
X146064693Y-106758989D02*
X145778979Y-106758989D01*
X145778979Y-106758989D02*
X145636122Y-106678036D01*
X145636122Y-106678036D02*
X145564693Y-106597084D01*
X145564693Y-106597084D02*
X145493264Y-106435179D01*
X144564693Y-105706608D02*
X144421836Y-105706608D01*
X144421836Y-105706608D02*
X144278979Y-105787560D01*
X144278979Y-105787560D02*
X144207551Y-105868513D01*
X144207551Y-105868513D02*
X144136122Y-106030417D01*
X144136122Y-106030417D02*
X144064693Y-106354227D01*
X144064693Y-106354227D02*
X144064693Y-106758989D01*
X144064693Y-106758989D02*
X144136122Y-107082798D01*
X144136122Y-107082798D02*
X144207551Y-107244703D01*
X144207551Y-107244703D02*
X144278979Y-107325656D01*
X144278979Y-107325656D02*
X144421836Y-107406608D01*
X144421836Y-107406608D02*
X144564693Y-107406608D01*
X144564693Y-107406608D02*
X144707551Y-107325656D01*
X144707551Y-107325656D02*
X144778979Y-107244703D01*
X144778979Y-107244703D02*
X144850408Y-107082798D01*
X144850408Y-107082798D02*
X144921836Y-106758989D01*
X144921836Y-106758989D02*
X144921836Y-106354227D01*
X144921836Y-106354227D02*
X144850408Y-106030417D01*
X144850408Y-106030417D02*
X144778979Y-105868513D01*
X144778979Y-105868513D02*
X144707551Y-105787560D01*
X144707551Y-105787560D02*
X144564693Y-105706608D01*
X143421837Y-107406608D02*
X143421837Y-105706608D01*
X142778980Y-107406608D02*
X142778980Y-106516132D01*
X142778980Y-106516132D02*
X142850408Y-106354227D01*
X142850408Y-106354227D02*
X142993265Y-106273275D01*
X142993265Y-106273275D02*
X143207551Y-106273275D01*
X143207551Y-106273275D02*
X143350408Y-106354227D01*
X143350408Y-106354227D02*
X143421837Y-106435179D01*
X147850407Y-108443513D02*
X146921835Y-108443513D01*
X146921835Y-108443513D02*
X147421835Y-109091132D01*
X147421835Y-109091132D02*
X147207550Y-109091132D01*
X147207550Y-109091132D02*
X147064693Y-109172084D01*
X147064693Y-109172084D02*
X146993264Y-109253037D01*
X146993264Y-109253037D02*
X146921835Y-109414941D01*
X146921835Y-109414941D02*
X146921835Y-109819703D01*
X146921835Y-109819703D02*
X146993264Y-109981608D01*
X146993264Y-109981608D02*
X147064693Y-110062561D01*
X147064693Y-110062561D02*
X147207550Y-110143513D01*
X147207550Y-110143513D02*
X147636121Y-110143513D01*
X147636121Y-110143513D02*
X147778978Y-110062561D01*
X147778978Y-110062561D02*
X147850407Y-109981608D01*
X146421836Y-108443513D02*
X145421836Y-108443513D01*
X145421836Y-108443513D02*
X146064693Y-110143513D01*
X144636122Y-109172084D02*
X144778979Y-109091132D01*
X144778979Y-109091132D02*
X144850408Y-109010180D01*
X144850408Y-109010180D02*
X144921836Y-108848275D01*
X144921836Y-108848275D02*
X144921836Y-108767322D01*
X144921836Y-108767322D02*
X144850408Y-108605418D01*
X144850408Y-108605418D02*
X144778979Y-108524465D01*
X144778979Y-108524465D02*
X144636122Y-108443513D01*
X144636122Y-108443513D02*
X144350408Y-108443513D01*
X144350408Y-108443513D02*
X144207551Y-108524465D01*
X144207551Y-108524465D02*
X144136122Y-108605418D01*
X144136122Y-108605418D02*
X144064693Y-108767322D01*
X144064693Y-108767322D02*
X144064693Y-108848275D01*
X144064693Y-108848275D02*
X144136122Y-109010180D01*
X144136122Y-109010180D02*
X144207551Y-109091132D01*
X144207551Y-109091132D02*
X144350408Y-109172084D01*
X144350408Y-109172084D02*
X144636122Y-109172084D01*
X144636122Y-109172084D02*
X144778979Y-109253037D01*
X144778979Y-109253037D02*
X144850408Y-109333989D01*
X144850408Y-109333989D02*
X144921836Y-109495894D01*
X144921836Y-109495894D02*
X144921836Y-109819703D01*
X144921836Y-109819703D02*
X144850408Y-109981608D01*
X144850408Y-109981608D02*
X144778979Y-110062561D01*
X144778979Y-110062561D02*
X144636122Y-110143513D01*
X144636122Y-110143513D02*
X144350408Y-110143513D01*
X144350408Y-110143513D02*
X144207551Y-110062561D01*
X144207551Y-110062561D02*
X144136122Y-109981608D01*
X144136122Y-109981608D02*
X144064693Y-109819703D01*
X144064693Y-109819703D02*
X144064693Y-109495894D01*
X144064693Y-109495894D02*
X144136122Y-109333989D01*
X144136122Y-109333989D02*
X144207551Y-109253037D01*
X144207551Y-109253037D02*
X144350408Y-109172084D01*
X143421837Y-110143513D02*
X143421837Y-108443513D01*
X142778980Y-110143513D02*
X142778980Y-109253037D01*
X142778980Y-109253037D02*
X142850408Y-109091132D01*
X142850408Y-109091132D02*
X142993265Y-109010180D01*
X142993265Y-109010180D02*
X143207551Y-109010180D01*
X143207551Y-109010180D02*
X143350408Y-109091132D01*
X143350408Y-109091132D02*
X143421837Y-109172084D01*
X181489264Y-86229083D02*
X181489264Y-84529083D01*
X181489264Y-84529083D02*
X180989264Y-85743369D01*
X180989264Y-85743369D02*
X180489264Y-84529083D01*
X180489264Y-84529083D02*
X180489264Y-86229083D01*
X179489263Y-84529083D02*
X179203549Y-84529083D01*
X179203549Y-84529083D02*
X179060692Y-84610035D01*
X179060692Y-84610035D02*
X178917835Y-84771940D01*
X178917835Y-84771940D02*
X178846406Y-85095750D01*
X178846406Y-85095750D02*
X178846406Y-85662416D01*
X178846406Y-85662416D02*
X178917835Y-85986226D01*
X178917835Y-85986226D02*
X179060692Y-86148131D01*
X179060692Y-86148131D02*
X179203549Y-86229083D01*
X179203549Y-86229083D02*
X179489263Y-86229083D01*
X179489263Y-86229083D02*
X179632121Y-86148131D01*
X179632121Y-86148131D02*
X179774978Y-85986226D01*
X179774978Y-85986226D02*
X179846406Y-85662416D01*
X179846406Y-85662416D02*
X179846406Y-85095750D01*
X179846406Y-85095750D02*
X179774978Y-84771940D01*
X179774978Y-84771940D02*
X179632121Y-84610035D01*
X179632121Y-84610035D02*
X179489263Y-84529083D01*
X178203549Y-86229083D02*
X178203549Y-84529083D01*
X178203549Y-84529083D02*
X177846406Y-84529083D01*
X177846406Y-84529083D02*
X177632120Y-84610035D01*
X177632120Y-84610035D02*
X177489263Y-84771940D01*
X177489263Y-84771940D02*
X177417834Y-84933845D01*
X177417834Y-84933845D02*
X177346406Y-85257654D01*
X177346406Y-85257654D02*
X177346406Y-85500511D01*
X177346406Y-85500511D02*
X177417834Y-85824321D01*
X177417834Y-85824321D02*
X177489263Y-85986226D01*
X177489263Y-85986226D02*
X177632120Y-86148131D01*
X177632120Y-86148131D02*
X177846406Y-86229083D01*
X177846406Y-86229083D02*
X178203549Y-86229083D01*
X176703549Y-85338607D02*
X176203549Y-85338607D01*
X175989263Y-86229083D02*
X176703549Y-86229083D01*
X176703549Y-86229083D02*
X176703549Y-84529083D01*
X176703549Y-84529083D02*
X175989263Y-84529083D01*
X182632121Y-88965988D02*
X182632121Y-87265988D01*
X182632121Y-87265988D02*
X182060692Y-87265988D01*
X182060692Y-87265988D02*
X181917835Y-87346940D01*
X181917835Y-87346940D02*
X181846406Y-87427893D01*
X181846406Y-87427893D02*
X181774978Y-87589797D01*
X181774978Y-87589797D02*
X181774978Y-87832655D01*
X181774978Y-87832655D02*
X181846406Y-87994559D01*
X181846406Y-87994559D02*
X181917835Y-88075512D01*
X181917835Y-88075512D02*
X182060692Y-88156464D01*
X182060692Y-88156464D02*
X182632121Y-88156464D01*
X180846406Y-87265988D02*
X180560692Y-87265988D01*
X180560692Y-87265988D02*
X180417835Y-87346940D01*
X180417835Y-87346940D02*
X180274978Y-87508845D01*
X180274978Y-87508845D02*
X180203549Y-87832655D01*
X180203549Y-87832655D02*
X180203549Y-88399321D01*
X180203549Y-88399321D02*
X180274978Y-88723131D01*
X180274978Y-88723131D02*
X180417835Y-88885036D01*
X180417835Y-88885036D02*
X180560692Y-88965988D01*
X180560692Y-88965988D02*
X180846406Y-88965988D01*
X180846406Y-88965988D02*
X180989264Y-88885036D01*
X180989264Y-88885036D02*
X181132121Y-88723131D01*
X181132121Y-88723131D02*
X181203549Y-88399321D01*
X181203549Y-88399321D02*
X181203549Y-87832655D01*
X181203549Y-87832655D02*
X181132121Y-87508845D01*
X181132121Y-87508845D02*
X180989264Y-87346940D01*
X180989264Y-87346940D02*
X180846406Y-87265988D01*
X179632120Y-88885036D02*
X179417835Y-88965988D01*
X179417835Y-88965988D02*
X179060692Y-88965988D01*
X179060692Y-88965988D02*
X178917835Y-88885036D01*
X178917835Y-88885036D02*
X178846406Y-88804083D01*
X178846406Y-88804083D02*
X178774977Y-88642178D01*
X178774977Y-88642178D02*
X178774977Y-88480274D01*
X178774977Y-88480274D02*
X178846406Y-88318369D01*
X178846406Y-88318369D02*
X178917835Y-88237416D01*
X178917835Y-88237416D02*
X179060692Y-88156464D01*
X179060692Y-88156464D02*
X179346406Y-88075512D01*
X179346406Y-88075512D02*
X179489263Y-87994559D01*
X179489263Y-87994559D02*
X179560692Y-87913607D01*
X179560692Y-87913607D02*
X179632120Y-87751702D01*
X179632120Y-87751702D02*
X179632120Y-87589797D01*
X179632120Y-87589797D02*
X179560692Y-87427893D01*
X179560692Y-87427893D02*
X179489263Y-87346940D01*
X179489263Y-87346940D02*
X179346406Y-87265988D01*
X179346406Y-87265988D02*
X178989263Y-87265988D01*
X178989263Y-87265988D02*
X178774977Y-87346940D01*
X178346406Y-87265988D02*
X177489264Y-87265988D01*
X177917835Y-88965988D02*
X177917835Y-87265988D01*
X182132121Y-90812417D02*
X181917835Y-90893369D01*
X181917835Y-90893369D02*
X181846406Y-90974321D01*
X181846406Y-90974321D02*
X181774978Y-91136226D01*
X181774978Y-91136226D02*
X181774978Y-91379083D01*
X181774978Y-91379083D02*
X181846406Y-91540988D01*
X181846406Y-91540988D02*
X181917835Y-91621941D01*
X181917835Y-91621941D02*
X182060692Y-91702893D01*
X182060692Y-91702893D02*
X182632121Y-91702893D01*
X182632121Y-91702893D02*
X182632121Y-90002893D01*
X182632121Y-90002893D02*
X182132121Y-90002893D01*
X182132121Y-90002893D02*
X181989264Y-90083845D01*
X181989264Y-90083845D02*
X181917835Y-90164798D01*
X181917835Y-90164798D02*
X181846406Y-90326702D01*
X181846406Y-90326702D02*
X181846406Y-90488607D01*
X181846406Y-90488607D02*
X181917835Y-90650512D01*
X181917835Y-90650512D02*
X181989264Y-90731464D01*
X181989264Y-90731464D02*
X182132121Y-90812417D01*
X182132121Y-90812417D02*
X182632121Y-90812417D01*
X181132121Y-90002893D02*
X181132121Y-91379083D01*
X181132121Y-91379083D02*
X181060692Y-91540988D01*
X181060692Y-91540988D02*
X180989264Y-91621941D01*
X180989264Y-91621941D02*
X180846406Y-91702893D01*
X180846406Y-91702893D02*
X180560692Y-91702893D01*
X180560692Y-91702893D02*
X180417835Y-91621941D01*
X180417835Y-91621941D02*
X180346406Y-91540988D01*
X180346406Y-91540988D02*
X180274978Y-91379083D01*
X180274978Y-91379083D02*
X180274978Y-90002893D01*
X179632120Y-91621941D02*
X179417835Y-91702893D01*
X179417835Y-91702893D02*
X179060692Y-91702893D01*
X179060692Y-91702893D02*
X178917835Y-91621941D01*
X178917835Y-91621941D02*
X178846406Y-91540988D01*
X178846406Y-91540988D02*
X178774977Y-91379083D01*
X178774977Y-91379083D02*
X178774977Y-91217179D01*
X178774977Y-91217179D02*
X178846406Y-91055274D01*
X178846406Y-91055274D02*
X178917835Y-90974321D01*
X178917835Y-90974321D02*
X179060692Y-90893369D01*
X179060692Y-90893369D02*
X179346406Y-90812417D01*
X179346406Y-90812417D02*
X179489263Y-90731464D01*
X179489263Y-90731464D02*
X179560692Y-90650512D01*
X179560692Y-90650512D02*
X179632120Y-90488607D01*
X179632120Y-90488607D02*
X179632120Y-90326702D01*
X179632120Y-90326702D02*
X179560692Y-90164798D01*
X179560692Y-90164798D02*
X179489263Y-90083845D01*
X179489263Y-90083845D02*
X179346406Y-90002893D01*
X179346406Y-90002893D02*
X178989263Y-90002893D01*
X178989263Y-90002893D02*
X178774977Y-90083845D01*
X176560692Y-92350512D02*
X176632121Y-92269560D01*
X176632121Y-92269560D02*
X176774978Y-92026702D01*
X176774978Y-92026702D02*
X176846407Y-91864798D01*
X176846407Y-91864798D02*
X176917835Y-91621941D01*
X176917835Y-91621941D02*
X176989264Y-91217179D01*
X176989264Y-91217179D02*
X176989264Y-90893369D01*
X176989264Y-90893369D02*
X176917835Y-90488607D01*
X176917835Y-90488607D02*
X176846407Y-90245750D01*
X176846407Y-90245750D02*
X176774978Y-90083845D01*
X176774978Y-90083845D02*
X176632121Y-89840988D01*
X176632121Y-89840988D02*
X176560692Y-89760036D01*
X175989264Y-91702893D02*
X175989264Y-90002893D01*
X175989264Y-90002893D02*
X175632121Y-90002893D01*
X175632121Y-90002893D02*
X175417835Y-90083845D01*
X175417835Y-90083845D02*
X175274978Y-90245750D01*
X175274978Y-90245750D02*
X175203549Y-90407655D01*
X175203549Y-90407655D02*
X175132121Y-90731464D01*
X175132121Y-90731464D02*
X175132121Y-90974321D01*
X175132121Y-90974321D02*
X175203549Y-91298131D01*
X175203549Y-91298131D02*
X175274978Y-91460036D01*
X175274978Y-91460036D02*
X175417835Y-91621941D01*
X175417835Y-91621941D02*
X175632121Y-91702893D01*
X175632121Y-91702893D02*
X175989264Y-91702893D01*
X174560692Y-91217179D02*
X173846407Y-91217179D01*
X174703549Y-91702893D02*
X174203549Y-90002893D01*
X174203549Y-90002893D02*
X173703549Y-91702893D01*
X173417835Y-90002893D02*
X172560693Y-90002893D01*
X172989264Y-91702893D02*
X172989264Y-90002893D01*
X172132121Y-91217179D02*
X171417836Y-91217179D01*
X172274978Y-91702893D02*
X171774978Y-90002893D01*
X171774978Y-90002893D02*
X171274978Y-91702893D01*
X170917836Y-92350512D02*
X170846407Y-92269560D01*
X170846407Y-92269560D02*
X170703550Y-92026702D01*
X170703550Y-92026702D02*
X170632122Y-91864798D01*
X170632122Y-91864798D02*
X170560693Y-91621941D01*
X170560693Y-91621941D02*
X170489264Y-91217179D01*
X170489264Y-91217179D02*
X170489264Y-90893369D01*
X170489264Y-90893369D02*
X170560693Y-90488607D01*
X170560693Y-90488607D02*
X170632122Y-90245750D01*
X170632122Y-90245750D02*
X170703550Y-90083845D01*
X170703550Y-90083845D02*
X170846407Y-89840988D01*
X170846407Y-89840988D02*
X170917836Y-89760036D01*
X182132121Y-93549322D02*
X181917835Y-93630274D01*
X181917835Y-93630274D02*
X181846406Y-93711226D01*
X181846406Y-93711226D02*
X181774978Y-93873131D01*
X181774978Y-93873131D02*
X181774978Y-94115988D01*
X181774978Y-94115988D02*
X181846406Y-94277893D01*
X181846406Y-94277893D02*
X181917835Y-94358846D01*
X181917835Y-94358846D02*
X182060692Y-94439798D01*
X182060692Y-94439798D02*
X182632121Y-94439798D01*
X182632121Y-94439798D02*
X182632121Y-92739798D01*
X182632121Y-92739798D02*
X182132121Y-92739798D01*
X182132121Y-92739798D02*
X181989264Y-92820750D01*
X181989264Y-92820750D02*
X181917835Y-92901703D01*
X181917835Y-92901703D02*
X181846406Y-93063607D01*
X181846406Y-93063607D02*
X181846406Y-93225512D01*
X181846406Y-93225512D02*
X181917835Y-93387417D01*
X181917835Y-93387417D02*
X181989264Y-93468369D01*
X181989264Y-93468369D02*
X182132121Y-93549322D01*
X182132121Y-93549322D02*
X182632121Y-93549322D01*
X181132121Y-92739798D02*
X181132121Y-94115988D01*
X181132121Y-94115988D02*
X181060692Y-94277893D01*
X181060692Y-94277893D02*
X180989264Y-94358846D01*
X180989264Y-94358846D02*
X180846406Y-94439798D01*
X180846406Y-94439798D02*
X180560692Y-94439798D01*
X180560692Y-94439798D02*
X180417835Y-94358846D01*
X180417835Y-94358846D02*
X180346406Y-94277893D01*
X180346406Y-94277893D02*
X180274978Y-94115988D01*
X180274978Y-94115988D02*
X180274978Y-92739798D01*
X179632120Y-94358846D02*
X179417835Y-94439798D01*
X179417835Y-94439798D02*
X179060692Y-94439798D01*
X179060692Y-94439798D02*
X178917835Y-94358846D01*
X178917835Y-94358846D02*
X178846406Y-94277893D01*
X178846406Y-94277893D02*
X178774977Y-94115988D01*
X178774977Y-94115988D02*
X178774977Y-93954084D01*
X178774977Y-93954084D02*
X178846406Y-93792179D01*
X178846406Y-93792179D02*
X178917835Y-93711226D01*
X178917835Y-93711226D02*
X179060692Y-93630274D01*
X179060692Y-93630274D02*
X179346406Y-93549322D01*
X179346406Y-93549322D02*
X179489263Y-93468369D01*
X179489263Y-93468369D02*
X179560692Y-93387417D01*
X179560692Y-93387417D02*
X179632120Y-93225512D01*
X179632120Y-93225512D02*
X179632120Y-93063607D01*
X179632120Y-93063607D02*
X179560692Y-92901703D01*
X179560692Y-92901703D02*
X179489263Y-92820750D01*
X179489263Y-92820750D02*
X179346406Y-92739798D01*
X179346406Y-92739798D02*
X178989263Y-92739798D01*
X178989263Y-92739798D02*
X178774977Y-92820750D01*
X176560692Y-95087417D02*
X176632121Y-95006465D01*
X176632121Y-95006465D02*
X176774978Y-94763607D01*
X176774978Y-94763607D02*
X176846407Y-94601703D01*
X176846407Y-94601703D02*
X176917835Y-94358846D01*
X176917835Y-94358846D02*
X176989264Y-93954084D01*
X176989264Y-93954084D02*
X176989264Y-93630274D01*
X176989264Y-93630274D02*
X176917835Y-93225512D01*
X176917835Y-93225512D02*
X176846407Y-92982655D01*
X176846407Y-92982655D02*
X176774978Y-92820750D01*
X176774978Y-92820750D02*
X176632121Y-92577893D01*
X176632121Y-92577893D02*
X176560692Y-92496941D01*
X176060692Y-93954084D02*
X175346407Y-93954084D01*
X176203549Y-94439798D02*
X175703549Y-92739798D01*
X175703549Y-92739798D02*
X175203549Y-94439798D01*
X174703550Y-94439798D02*
X174703550Y-92739798D01*
X174703550Y-92739798D02*
X174346407Y-92739798D01*
X174346407Y-92739798D02*
X174132121Y-92820750D01*
X174132121Y-92820750D02*
X173989264Y-92982655D01*
X173989264Y-92982655D02*
X173917835Y-93144560D01*
X173917835Y-93144560D02*
X173846407Y-93468369D01*
X173846407Y-93468369D02*
X173846407Y-93711226D01*
X173846407Y-93711226D02*
X173917835Y-94035036D01*
X173917835Y-94035036D02*
X173989264Y-94196941D01*
X173989264Y-94196941D02*
X174132121Y-94358846D01*
X174132121Y-94358846D02*
X174346407Y-94439798D01*
X174346407Y-94439798D02*
X174703550Y-94439798D01*
X173203550Y-94439798D02*
X173203550Y-92739798D01*
X173203550Y-92739798D02*
X172846407Y-92739798D01*
X172846407Y-92739798D02*
X172632121Y-92820750D01*
X172632121Y-92820750D02*
X172489264Y-92982655D01*
X172489264Y-92982655D02*
X172417835Y-93144560D01*
X172417835Y-93144560D02*
X172346407Y-93468369D01*
X172346407Y-93468369D02*
X172346407Y-93711226D01*
X172346407Y-93711226D02*
X172417835Y-94035036D01*
X172417835Y-94035036D02*
X172489264Y-94196941D01*
X172489264Y-94196941D02*
X172632121Y-94358846D01*
X172632121Y-94358846D02*
X172846407Y-94439798D01*
X172846407Y-94439798D02*
X173203550Y-94439798D01*
X170846407Y-94439798D02*
X171346407Y-93630274D01*
X171703550Y-94439798D02*
X171703550Y-92739798D01*
X171703550Y-92739798D02*
X171132121Y-92739798D01*
X171132121Y-92739798D02*
X170989264Y-92820750D01*
X170989264Y-92820750D02*
X170917835Y-92901703D01*
X170917835Y-92901703D02*
X170846407Y-93063607D01*
X170846407Y-93063607D02*
X170846407Y-93306465D01*
X170846407Y-93306465D02*
X170917835Y-93468369D01*
X170917835Y-93468369D02*
X170989264Y-93549322D01*
X170989264Y-93549322D02*
X171132121Y-93630274D01*
X171132121Y-93630274D02*
X171703550Y-93630274D01*
X170346407Y-95087417D02*
X170274978Y-95006465D01*
X170274978Y-95006465D02*
X170132121Y-94763607D01*
X170132121Y-94763607D02*
X170060693Y-94601703D01*
X170060693Y-94601703D02*
X169989264Y-94358846D01*
X169989264Y-94358846D02*
X169917835Y-93954084D01*
X169917835Y-93954084D02*
X169917835Y-93630274D01*
X169917835Y-93630274D02*
X169989264Y-93225512D01*
X169989264Y-93225512D02*
X170060693Y-92982655D01*
X170060693Y-92982655D02*
X170132121Y-92820750D01*
X170132121Y-92820750D02*
X170274978Y-92577893D01*
X170274978Y-92577893D02*
X170346407Y-92496941D01*
X182132121Y-96286227D02*
X182632121Y-96286227D01*
X182632121Y-97176703D02*
X182632121Y-95476703D01*
X182632121Y-95476703D02*
X181917835Y-95476703D01*
X180489264Y-97176703D02*
X180989264Y-96367179D01*
X181346407Y-97176703D02*
X181346407Y-95476703D01*
X181346407Y-95476703D02*
X180774978Y-95476703D01*
X180774978Y-95476703D02*
X180632121Y-95557655D01*
X180632121Y-95557655D02*
X180560692Y-95638608D01*
X180560692Y-95638608D02*
X180489264Y-95800512D01*
X180489264Y-95800512D02*
X180489264Y-96043370D01*
X180489264Y-96043370D02*
X180560692Y-96205274D01*
X180560692Y-96205274D02*
X180632121Y-96286227D01*
X180632121Y-96286227D02*
X180774978Y-96367179D01*
X180774978Y-96367179D02*
X181346407Y-96367179D01*
X179846407Y-96286227D02*
X179346407Y-96286227D01*
X179132121Y-97176703D02*
X179846407Y-97176703D01*
X179846407Y-97176703D02*
X179846407Y-95476703D01*
X179846407Y-95476703D02*
X179132121Y-95476703D01*
X177489264Y-97338608D02*
X177632121Y-97257655D01*
X177632121Y-97257655D02*
X177774978Y-97095751D01*
X177774978Y-97095751D02*
X177989264Y-96852893D01*
X177989264Y-96852893D02*
X178132121Y-96771941D01*
X178132121Y-96771941D02*
X178274978Y-96771941D01*
X178203549Y-97176703D02*
X178346407Y-97095751D01*
X178346407Y-97095751D02*
X178489264Y-96933846D01*
X178489264Y-96933846D02*
X178560692Y-96610036D01*
X178560692Y-96610036D02*
X178560692Y-96043370D01*
X178560692Y-96043370D02*
X178489264Y-95719560D01*
X178489264Y-95719560D02*
X178346407Y-95557655D01*
X178346407Y-95557655D02*
X178203549Y-95476703D01*
X178203549Y-95476703D02*
X177917835Y-95476703D01*
X177917835Y-95476703D02*
X177774978Y-95557655D01*
X177774978Y-95557655D02*
X177632121Y-95719560D01*
X177632121Y-95719560D02*
X177560692Y-96043370D01*
X177560692Y-96043370D02*
X177560692Y-96610036D01*
X177560692Y-96610036D02*
X177632121Y-96933846D01*
X177632121Y-96933846D02*
X177774978Y-97095751D01*
X177774978Y-97095751D02*
X177917835Y-97176703D01*
X177917835Y-97176703D02*
X178203549Y-97176703D01*
X175346406Y-97824322D02*
X175417835Y-97743370D01*
X175417835Y-97743370D02*
X175560692Y-97500512D01*
X175560692Y-97500512D02*
X175632121Y-97338608D01*
X175632121Y-97338608D02*
X175703549Y-97095751D01*
X175703549Y-97095751D02*
X175774978Y-96690989D01*
X175774978Y-96690989D02*
X175774978Y-96367179D01*
X175774978Y-96367179D02*
X175703549Y-95962417D01*
X175703549Y-95962417D02*
X175632121Y-95719560D01*
X175632121Y-95719560D02*
X175560692Y-95557655D01*
X175560692Y-95557655D02*
X175417835Y-95314798D01*
X175417835Y-95314798D02*
X175346406Y-95233846D01*
X173917835Y-97014798D02*
X173989263Y-97095751D01*
X173989263Y-97095751D02*
X174203549Y-97176703D01*
X174203549Y-97176703D02*
X174346406Y-97176703D01*
X174346406Y-97176703D02*
X174560692Y-97095751D01*
X174560692Y-97095751D02*
X174703549Y-96933846D01*
X174703549Y-96933846D02*
X174774978Y-96771941D01*
X174774978Y-96771941D02*
X174846406Y-96448131D01*
X174846406Y-96448131D02*
X174846406Y-96205274D01*
X174846406Y-96205274D02*
X174774978Y-95881465D01*
X174774978Y-95881465D02*
X174703549Y-95719560D01*
X174703549Y-95719560D02*
X174560692Y-95557655D01*
X174560692Y-95557655D02*
X174346406Y-95476703D01*
X174346406Y-95476703D02*
X174203549Y-95476703D01*
X174203549Y-95476703D02*
X173989263Y-95557655D01*
X173989263Y-95557655D02*
X173917835Y-95638608D01*
X172560692Y-97176703D02*
X173274978Y-97176703D01*
X173274978Y-97176703D02*
X173274978Y-95476703D01*
X172060692Y-97176703D02*
X172060692Y-95476703D01*
X171203549Y-97176703D02*
X171846406Y-96205274D01*
X171203549Y-95476703D02*
X172060692Y-96448131D01*
X170703549Y-97824322D02*
X170632120Y-97743370D01*
X170632120Y-97743370D02*
X170489263Y-97500512D01*
X170489263Y-97500512D02*
X170417835Y-97338608D01*
X170417835Y-97338608D02*
X170346406Y-97095751D01*
X170346406Y-97095751D02*
X170274977Y-96690989D01*
X170274977Y-96690989D02*
X170274977Y-96367179D01*
X170274977Y-96367179D02*
X170346406Y-95962417D01*
X170346406Y-95962417D02*
X170417835Y-95719560D01*
X170417835Y-95719560D02*
X170489263Y-95557655D01*
X170489263Y-95557655D02*
X170632120Y-95314798D01*
X170632120Y-95314798D02*
X170703549Y-95233846D01*
X182132121Y-99023132D02*
X182632121Y-99023132D01*
X182632121Y-99913608D02*
X182632121Y-98213608D01*
X182632121Y-98213608D02*
X181917835Y-98213608D01*
X180489264Y-99913608D02*
X180989264Y-99104084D01*
X181346407Y-99913608D02*
X181346407Y-98213608D01*
X181346407Y-98213608D02*
X180774978Y-98213608D01*
X180774978Y-98213608D02*
X180632121Y-98294560D01*
X180632121Y-98294560D02*
X180560692Y-98375513D01*
X180560692Y-98375513D02*
X180489264Y-98537417D01*
X180489264Y-98537417D02*
X180489264Y-98780275D01*
X180489264Y-98780275D02*
X180560692Y-98942179D01*
X180560692Y-98942179D02*
X180632121Y-99023132D01*
X180632121Y-99023132D02*
X180774978Y-99104084D01*
X180774978Y-99104084D02*
X181346407Y-99104084D01*
X179846407Y-99023132D02*
X179346407Y-99023132D01*
X179132121Y-99913608D02*
X179846407Y-99913608D01*
X179846407Y-99913608D02*
X179846407Y-98213608D01*
X179846407Y-98213608D02*
X179132121Y-98213608D01*
X177489264Y-100075513D02*
X177632121Y-99994560D01*
X177632121Y-99994560D02*
X177774978Y-99832656D01*
X177774978Y-99832656D02*
X177989264Y-99589798D01*
X177989264Y-99589798D02*
X178132121Y-99508846D01*
X178132121Y-99508846D02*
X178274978Y-99508846D01*
X178203549Y-99913608D02*
X178346407Y-99832656D01*
X178346407Y-99832656D02*
X178489264Y-99670751D01*
X178489264Y-99670751D02*
X178560692Y-99346941D01*
X178560692Y-99346941D02*
X178560692Y-98780275D01*
X178560692Y-98780275D02*
X178489264Y-98456465D01*
X178489264Y-98456465D02*
X178346407Y-98294560D01*
X178346407Y-98294560D02*
X178203549Y-98213608D01*
X178203549Y-98213608D02*
X177917835Y-98213608D01*
X177917835Y-98213608D02*
X177774978Y-98294560D01*
X177774978Y-98294560D02*
X177632121Y-98456465D01*
X177632121Y-98456465D02*
X177560692Y-98780275D01*
X177560692Y-98780275D02*
X177560692Y-99346941D01*
X177560692Y-99346941D02*
X177632121Y-99670751D01*
X177632121Y-99670751D02*
X177774978Y-99832656D01*
X177774978Y-99832656D02*
X177917835Y-99913608D01*
X177917835Y-99913608D02*
X178203549Y-99913608D01*
X175346406Y-100561227D02*
X175417835Y-100480275D01*
X175417835Y-100480275D02*
X175560692Y-100237417D01*
X175560692Y-100237417D02*
X175632121Y-100075513D01*
X175632121Y-100075513D02*
X175703549Y-99832656D01*
X175703549Y-99832656D02*
X175774978Y-99427894D01*
X175774978Y-99427894D02*
X175774978Y-99104084D01*
X175774978Y-99104084D02*
X175703549Y-98699322D01*
X175703549Y-98699322D02*
X175632121Y-98456465D01*
X175632121Y-98456465D02*
X175560692Y-98294560D01*
X175560692Y-98294560D02*
X175417835Y-98051703D01*
X175417835Y-98051703D02*
X175346406Y-97970751D01*
X174489263Y-98213608D02*
X174203549Y-98213608D01*
X174203549Y-98213608D02*
X174060692Y-98294560D01*
X174060692Y-98294560D02*
X173917835Y-98456465D01*
X173917835Y-98456465D02*
X173846406Y-98780275D01*
X173846406Y-98780275D02*
X173846406Y-99346941D01*
X173846406Y-99346941D02*
X173917835Y-99670751D01*
X173917835Y-99670751D02*
X174060692Y-99832656D01*
X174060692Y-99832656D02*
X174203549Y-99913608D01*
X174203549Y-99913608D02*
X174489263Y-99913608D01*
X174489263Y-99913608D02*
X174632121Y-99832656D01*
X174632121Y-99832656D02*
X174774978Y-99670751D01*
X174774978Y-99670751D02*
X174846406Y-99346941D01*
X174846406Y-99346941D02*
X174846406Y-98780275D01*
X174846406Y-98780275D02*
X174774978Y-98456465D01*
X174774978Y-98456465D02*
X174632121Y-98294560D01*
X174632121Y-98294560D02*
X174489263Y-98213608D01*
X173274977Y-99832656D02*
X173060692Y-99913608D01*
X173060692Y-99913608D02*
X172703549Y-99913608D01*
X172703549Y-99913608D02*
X172560692Y-99832656D01*
X172560692Y-99832656D02*
X172489263Y-99751703D01*
X172489263Y-99751703D02*
X172417834Y-99589798D01*
X172417834Y-99589798D02*
X172417834Y-99427894D01*
X172417834Y-99427894D02*
X172489263Y-99265989D01*
X172489263Y-99265989D02*
X172560692Y-99185036D01*
X172560692Y-99185036D02*
X172703549Y-99104084D01*
X172703549Y-99104084D02*
X172989263Y-99023132D01*
X172989263Y-99023132D02*
X173132120Y-98942179D01*
X173132120Y-98942179D02*
X173203549Y-98861227D01*
X173203549Y-98861227D02*
X173274977Y-98699322D01*
X173274977Y-98699322D02*
X173274977Y-98537417D01*
X173274977Y-98537417D02*
X173203549Y-98375513D01*
X173203549Y-98375513D02*
X173132120Y-98294560D01*
X173132120Y-98294560D02*
X172989263Y-98213608D01*
X172989263Y-98213608D02*
X172632120Y-98213608D01*
X172632120Y-98213608D02*
X172417834Y-98294560D01*
X170917835Y-99751703D02*
X170989263Y-99832656D01*
X170989263Y-99832656D02*
X171203549Y-99913608D01*
X171203549Y-99913608D02*
X171346406Y-99913608D01*
X171346406Y-99913608D02*
X171560692Y-99832656D01*
X171560692Y-99832656D02*
X171703549Y-99670751D01*
X171703549Y-99670751D02*
X171774978Y-99508846D01*
X171774978Y-99508846D02*
X171846406Y-99185036D01*
X171846406Y-99185036D02*
X171846406Y-98942179D01*
X171846406Y-98942179D02*
X171774978Y-98618370D01*
X171774978Y-98618370D02*
X171703549Y-98456465D01*
X171703549Y-98456465D02*
X171560692Y-98294560D01*
X171560692Y-98294560D02*
X171346406Y-98213608D01*
X171346406Y-98213608D02*
X171203549Y-98213608D01*
X171203549Y-98213608D02*
X170989263Y-98294560D01*
X170989263Y-98294560D02*
X170917835Y-98375513D01*
X170417835Y-100561227D02*
X170346406Y-100480275D01*
X170346406Y-100480275D02*
X170203549Y-100237417D01*
X170203549Y-100237417D02*
X170132121Y-100075513D01*
X170132121Y-100075513D02*
X170060692Y-99832656D01*
X170060692Y-99832656D02*
X169989263Y-99427894D01*
X169989263Y-99427894D02*
X169989263Y-99104084D01*
X169989263Y-99104084D02*
X170060692Y-98699322D01*
X170060692Y-98699322D02*
X170132121Y-98456465D01*
X170132121Y-98456465D02*
X170203549Y-98294560D01*
X170203549Y-98294560D02*
X170346406Y-98051703D01*
X170346406Y-98051703D02*
X170417835Y-97970751D01*
X181774978Y-102488608D02*
X181846406Y-102569561D01*
X181846406Y-102569561D02*
X182060692Y-102650513D01*
X182060692Y-102650513D02*
X182203549Y-102650513D01*
X182203549Y-102650513D02*
X182417835Y-102569561D01*
X182417835Y-102569561D02*
X182560692Y-102407656D01*
X182560692Y-102407656D02*
X182632121Y-102245751D01*
X182632121Y-102245751D02*
X182703549Y-101921941D01*
X182703549Y-101921941D02*
X182703549Y-101679084D01*
X182703549Y-101679084D02*
X182632121Y-101355275D01*
X182632121Y-101355275D02*
X182560692Y-101193370D01*
X182560692Y-101193370D02*
X182417835Y-101031465D01*
X182417835Y-101031465D02*
X182203549Y-100950513D01*
X182203549Y-100950513D02*
X182060692Y-100950513D01*
X182060692Y-100950513D02*
X181846406Y-101031465D01*
X181846406Y-101031465D02*
X181774978Y-101112418D01*
X181132121Y-102488608D02*
X181060692Y-102569561D01*
X181060692Y-102569561D02*
X181132121Y-102650513D01*
X181132121Y-102650513D02*
X181203549Y-102569561D01*
X181203549Y-102569561D02*
X181132121Y-102488608D01*
X181132121Y-102488608D02*
X181132121Y-102650513D01*
X179560692Y-102488608D02*
X179632120Y-102569561D01*
X179632120Y-102569561D02*
X179846406Y-102650513D01*
X179846406Y-102650513D02*
X179989263Y-102650513D01*
X179989263Y-102650513D02*
X180203549Y-102569561D01*
X180203549Y-102569561D02*
X180346406Y-102407656D01*
X180346406Y-102407656D02*
X180417835Y-102245751D01*
X180417835Y-102245751D02*
X180489263Y-101921941D01*
X180489263Y-101921941D02*
X180489263Y-101679084D01*
X180489263Y-101679084D02*
X180417835Y-101355275D01*
X180417835Y-101355275D02*
X180346406Y-101193370D01*
X180346406Y-101193370D02*
X180203549Y-101031465D01*
X180203549Y-101031465D02*
X179989263Y-100950513D01*
X179989263Y-100950513D02*
X179846406Y-100950513D01*
X179846406Y-100950513D02*
X179632120Y-101031465D01*
X179632120Y-101031465D02*
X179560692Y-101112418D01*
X178417835Y-101760037D02*
X178917835Y-101760037D01*
X178917835Y-102650513D02*
X178917835Y-100950513D01*
X178917835Y-100950513D02*
X178203549Y-100950513D01*
X176846406Y-101031465D02*
X176989264Y-100950513D01*
X176989264Y-100950513D02*
X177203549Y-100950513D01*
X177203549Y-100950513D02*
X177417835Y-101031465D01*
X177417835Y-101031465D02*
X177560692Y-101193370D01*
X177560692Y-101193370D02*
X177632121Y-101355275D01*
X177632121Y-101355275D02*
X177703549Y-101679084D01*
X177703549Y-101679084D02*
X177703549Y-101921941D01*
X177703549Y-101921941D02*
X177632121Y-102245751D01*
X177632121Y-102245751D02*
X177560692Y-102407656D01*
X177560692Y-102407656D02*
X177417835Y-102569561D01*
X177417835Y-102569561D02*
X177203549Y-102650513D01*
X177203549Y-102650513D02*
X177060692Y-102650513D01*
X177060692Y-102650513D02*
X176846406Y-102569561D01*
X176846406Y-102569561D02*
X176774978Y-102488608D01*
X176774978Y-102488608D02*
X176774978Y-101921941D01*
X176774978Y-101921941D02*
X177060692Y-101921941D01*
X174989264Y-102650513D02*
X174989264Y-100950513D01*
X174989264Y-100950513D02*
X174417835Y-100950513D01*
X174417835Y-100950513D02*
X174274978Y-101031465D01*
X174274978Y-101031465D02*
X174203549Y-101112418D01*
X174203549Y-101112418D02*
X174132121Y-101274322D01*
X174132121Y-101274322D02*
X174132121Y-101517180D01*
X174132121Y-101517180D02*
X174203549Y-101679084D01*
X174203549Y-101679084D02*
X174274978Y-101760037D01*
X174274978Y-101760037D02*
X174417835Y-101840989D01*
X174417835Y-101840989D02*
X174989264Y-101840989D01*
X173203549Y-100950513D02*
X172917835Y-100950513D01*
X172917835Y-100950513D02*
X172774978Y-101031465D01*
X172774978Y-101031465D02*
X172632121Y-101193370D01*
X172632121Y-101193370D02*
X172560692Y-101517180D01*
X172560692Y-101517180D02*
X172560692Y-102083846D01*
X172560692Y-102083846D02*
X172632121Y-102407656D01*
X172632121Y-102407656D02*
X172774978Y-102569561D01*
X172774978Y-102569561D02*
X172917835Y-102650513D01*
X172917835Y-102650513D02*
X173203549Y-102650513D01*
X173203549Y-102650513D02*
X173346407Y-102569561D01*
X173346407Y-102569561D02*
X173489264Y-102407656D01*
X173489264Y-102407656D02*
X173560692Y-102083846D01*
X173560692Y-102083846D02*
X173560692Y-101517180D01*
X173560692Y-101517180D02*
X173489264Y-101193370D01*
X173489264Y-101193370D02*
X173346407Y-101031465D01*
X173346407Y-101031465D02*
X173203549Y-100950513D01*
X171060692Y-102650513D02*
X171560692Y-101840989D01*
X171917835Y-102650513D02*
X171917835Y-100950513D01*
X171917835Y-100950513D02*
X171346406Y-100950513D01*
X171346406Y-100950513D02*
X171203549Y-101031465D01*
X171203549Y-101031465D02*
X171132120Y-101112418D01*
X171132120Y-101112418D02*
X171060692Y-101274322D01*
X171060692Y-101274322D02*
X171060692Y-101517180D01*
X171060692Y-101517180D02*
X171132120Y-101679084D01*
X171132120Y-101679084D02*
X171203549Y-101760037D01*
X171203549Y-101760037D02*
X171346406Y-101840989D01*
X171346406Y-101840989D02*
X171917835Y-101840989D01*
X170632120Y-100950513D02*
X169774978Y-100950513D01*
X170203549Y-102650513D02*
X170203549Y-100950513D01*
D17*
X165989669Y-82578000D02*
X165732527Y-82673238D01*
X165732527Y-82673238D02*
X165303955Y-82673238D01*
X165303955Y-82673238D02*
X165132527Y-82578000D01*
X165132527Y-82578000D02*
X165046812Y-82482761D01*
X165046812Y-82482761D02*
X164961098Y-82292285D01*
X164961098Y-82292285D02*
X164961098Y-82101809D01*
X164961098Y-82101809D02*
X165046812Y-81911333D01*
X165046812Y-81911333D02*
X165132527Y-81816095D01*
X165132527Y-81816095D02*
X165303955Y-81720857D01*
X165303955Y-81720857D02*
X165646812Y-81625619D01*
X165646812Y-81625619D02*
X165818241Y-81530380D01*
X165818241Y-81530380D02*
X165903955Y-81435142D01*
X165903955Y-81435142D02*
X165989669Y-81244666D01*
X165989669Y-81244666D02*
X165989669Y-81054190D01*
X165989669Y-81054190D02*
X165903955Y-80863714D01*
X165903955Y-80863714D02*
X165818241Y-80768476D01*
X165818241Y-80768476D02*
X165646812Y-80673238D01*
X165646812Y-80673238D02*
X165218241Y-80673238D01*
X165218241Y-80673238D02*
X164961098Y-80768476D01*
X164361098Y-80673238D02*
X163932526Y-82673238D01*
X163932526Y-82673238D02*
X163589669Y-81244666D01*
X163589669Y-81244666D02*
X163246812Y-82673238D01*
X163246812Y-82673238D02*
X162818241Y-80673238D01*
X162218240Y-80863714D02*
X162132526Y-80768476D01*
X162132526Y-80768476D02*
X161961098Y-80673238D01*
X161961098Y-80673238D02*
X161532526Y-80673238D01*
X161532526Y-80673238D02*
X161361098Y-80768476D01*
X161361098Y-80768476D02*
X161275383Y-80863714D01*
X161275383Y-80863714D02*
X161189669Y-81054190D01*
X161189669Y-81054190D02*
X161189669Y-81244666D01*
X161189669Y-81244666D02*
X161275383Y-81530380D01*
X161275383Y-81530380D02*
X162303955Y-82673238D01*
X162303955Y-82673238D02*
X161189669Y-82673238D01*
X158532525Y-83435142D02*
X158618240Y-83339904D01*
X158618240Y-83339904D02*
X158789668Y-83054190D01*
X158789668Y-83054190D02*
X158875383Y-82863714D01*
X158875383Y-82863714D02*
X158961097Y-82578000D01*
X158961097Y-82578000D02*
X159046811Y-82101809D01*
X159046811Y-82101809D02*
X159046811Y-81720857D01*
X159046811Y-81720857D02*
X158961097Y-81244666D01*
X158961097Y-81244666D02*
X158875383Y-80958952D01*
X158875383Y-80958952D02*
X158789668Y-80768476D01*
X158789668Y-80768476D02*
X158618240Y-80482761D01*
X158618240Y-80482761D02*
X158532525Y-80387523D01*
X157846811Y-82673238D02*
X157846811Y-80673238D01*
X157846811Y-80673238D02*
X157161097Y-80673238D01*
X157161097Y-80673238D02*
X156989668Y-80768476D01*
X156989668Y-80768476D02*
X156903954Y-80863714D01*
X156903954Y-80863714D02*
X156818240Y-81054190D01*
X156818240Y-81054190D02*
X156818240Y-81339904D01*
X156818240Y-81339904D02*
X156903954Y-81530380D01*
X156903954Y-81530380D02*
X156989668Y-81625619D01*
X156989668Y-81625619D02*
X157161097Y-81720857D01*
X157161097Y-81720857D02*
X157846811Y-81720857D01*
X155703954Y-80673238D02*
X155361097Y-80673238D01*
X155361097Y-80673238D02*
X155189668Y-80768476D01*
X155189668Y-80768476D02*
X155018240Y-80958952D01*
X155018240Y-80958952D02*
X154932525Y-81339904D01*
X154932525Y-81339904D02*
X154932525Y-82006571D01*
X154932525Y-82006571D02*
X155018240Y-82387523D01*
X155018240Y-82387523D02*
X155189668Y-82578000D01*
X155189668Y-82578000D02*
X155361097Y-82673238D01*
X155361097Y-82673238D02*
X155703954Y-82673238D01*
X155703954Y-82673238D02*
X155875383Y-82578000D01*
X155875383Y-82578000D02*
X156046811Y-82387523D01*
X156046811Y-82387523D02*
X156132525Y-82006571D01*
X156132525Y-82006571D02*
X156132525Y-81339904D01*
X156132525Y-81339904D02*
X156046811Y-80958952D01*
X156046811Y-80958952D02*
X155875383Y-80768476D01*
X155875383Y-80768476D02*
X155703954Y-80673238D01*
X154246811Y-82578000D02*
X153989669Y-82673238D01*
X153989669Y-82673238D02*
X153561097Y-82673238D01*
X153561097Y-82673238D02*
X153389669Y-82578000D01*
X153389669Y-82578000D02*
X153303954Y-82482761D01*
X153303954Y-82482761D02*
X153218240Y-82292285D01*
X153218240Y-82292285D02*
X153218240Y-82101809D01*
X153218240Y-82101809D02*
X153303954Y-81911333D01*
X153303954Y-81911333D02*
X153389669Y-81816095D01*
X153389669Y-81816095D02*
X153561097Y-81720857D01*
X153561097Y-81720857D02*
X153903954Y-81625619D01*
X153903954Y-81625619D02*
X154075383Y-81530380D01*
X154075383Y-81530380D02*
X154161097Y-81435142D01*
X154161097Y-81435142D02*
X154246811Y-81244666D01*
X154246811Y-81244666D02*
X154246811Y-81054190D01*
X154246811Y-81054190D02*
X154161097Y-80863714D01*
X154161097Y-80863714D02*
X154075383Y-80768476D01*
X154075383Y-80768476D02*
X153903954Y-80673238D01*
X153903954Y-80673238D02*
X153475383Y-80673238D01*
X153475383Y-80673238D02*
X153218240Y-80768476D01*
X152703954Y-80673238D02*
X151675383Y-80673238D01*
X152189668Y-82673238D02*
X152189668Y-80673238D01*
X149703953Y-82673238D02*
X149703953Y-80673238D01*
X148503953Y-80673238D02*
X148161096Y-80673238D01*
X148161096Y-80673238D02*
X147989667Y-80768476D01*
X147989667Y-80768476D02*
X147818239Y-80958952D01*
X147818239Y-80958952D02*
X147732524Y-81339904D01*
X147732524Y-81339904D02*
X147732524Y-82006571D01*
X147732524Y-82006571D02*
X147818239Y-82387523D01*
X147818239Y-82387523D02*
X147989667Y-82578000D01*
X147989667Y-82578000D02*
X148161096Y-82673238D01*
X148161096Y-82673238D02*
X148503953Y-82673238D01*
X148503953Y-82673238D02*
X148675382Y-82578000D01*
X148675382Y-82578000D02*
X148846810Y-82387523D01*
X148846810Y-82387523D02*
X148932524Y-82006571D01*
X148932524Y-82006571D02*
X148932524Y-81339904D01*
X148932524Y-81339904D02*
X148846810Y-80958952D01*
X148846810Y-80958952D02*
X148675382Y-80768476D01*
X148675382Y-80768476D02*
X148503953Y-80673238D01*
X145589667Y-82673238D02*
X145589667Y-80673238D01*
X145589667Y-80673238D02*
X144903953Y-80673238D01*
X144903953Y-80673238D02*
X144732524Y-80768476D01*
X144732524Y-80768476D02*
X144646810Y-80863714D01*
X144646810Y-80863714D02*
X144561096Y-81054190D01*
X144561096Y-81054190D02*
X144561096Y-81339904D01*
X144561096Y-81339904D02*
X144646810Y-81530380D01*
X144646810Y-81530380D02*
X144732524Y-81625619D01*
X144732524Y-81625619D02*
X144903953Y-81720857D01*
X144903953Y-81720857D02*
X145589667Y-81720857D01*
X143446810Y-80673238D02*
X143103953Y-80673238D01*
X143103953Y-80673238D02*
X142932524Y-80768476D01*
X142932524Y-80768476D02*
X142761096Y-80958952D01*
X142761096Y-80958952D02*
X142675381Y-81339904D01*
X142675381Y-81339904D02*
X142675381Y-82006571D01*
X142675381Y-82006571D02*
X142761096Y-82387523D01*
X142761096Y-82387523D02*
X142932524Y-82578000D01*
X142932524Y-82578000D02*
X143103953Y-82673238D01*
X143103953Y-82673238D02*
X143446810Y-82673238D01*
X143446810Y-82673238D02*
X143618239Y-82578000D01*
X143618239Y-82578000D02*
X143789667Y-82387523D01*
X143789667Y-82387523D02*
X143875381Y-82006571D01*
X143875381Y-82006571D02*
X143875381Y-81339904D01*
X143875381Y-81339904D02*
X143789667Y-80958952D01*
X143789667Y-80958952D02*
X143618239Y-80768476D01*
X143618239Y-80768476D02*
X143446810Y-80673238D01*
X140875382Y-82673238D02*
X141475382Y-81720857D01*
X141903953Y-82673238D02*
X141903953Y-80673238D01*
X141903953Y-80673238D02*
X141218239Y-80673238D01*
X141218239Y-80673238D02*
X141046810Y-80768476D01*
X141046810Y-80768476D02*
X140961096Y-80863714D01*
X140961096Y-80863714D02*
X140875382Y-81054190D01*
X140875382Y-81054190D02*
X140875382Y-81339904D01*
X140875382Y-81339904D02*
X140961096Y-81530380D01*
X140961096Y-81530380D02*
X141046810Y-81625619D01*
X141046810Y-81625619D02*
X141218239Y-81720857D01*
X141218239Y-81720857D02*
X141903953Y-81720857D01*
X140361096Y-80673238D02*
X139332525Y-80673238D01*
X139846810Y-82673238D02*
X139846810Y-80673238D01*
X138903953Y-83435142D02*
X138818238Y-83339904D01*
X138818238Y-83339904D02*
X138646810Y-83054190D01*
X138646810Y-83054190D02*
X138561096Y-82863714D01*
X138561096Y-82863714D02*
X138475381Y-82578000D01*
X138475381Y-82578000D02*
X138389667Y-82101809D01*
X138389667Y-82101809D02*
X138389667Y-81720857D01*
X138389667Y-81720857D02*
X138475381Y-81244666D01*
X138475381Y-81244666D02*
X138561096Y-80958952D01*
X138561096Y-80958952D02*
X138646810Y-80768476D01*
X138646810Y-80768476D02*
X138818238Y-80482761D01*
X138818238Y-80482761D02*
X138903953Y-80387523D01*
D18*
%TO.C,G\u002A\u002A\u002A*%
G36*
X192861916Y-131348043D02*
G01*
X192861916Y-131785884D01*
X192861916Y-132495149D01*
X192286621Y-132491954D01*
X192236402Y-132491669D01*
X192130892Y-132491008D01*
X192039513Y-132490323D01*
X191961089Y-132489585D01*
X191894443Y-132488763D01*
X191838399Y-132487827D01*
X191791779Y-132486747D01*
X191753409Y-132485494D01*
X191722110Y-132484037D01*
X191696708Y-132482347D01*
X191676024Y-132480392D01*
X191658883Y-132478144D01*
X191644108Y-132475573D01*
X191581675Y-132461465D01*
X191471973Y-132426515D01*
X191372573Y-132380851D01*
X191284046Y-132324861D01*
X191206963Y-132258934D01*
X191141897Y-132183457D01*
X191089418Y-132098820D01*
X191062881Y-132047419D01*
X191060289Y-131860735D01*
X191059822Y-131800753D01*
X191059979Y-131789011D01*
X191615439Y-131789011D01*
X191625054Y-131858303D01*
X191650124Y-131924622D01*
X191663035Y-131946572D01*
X191700020Y-131987983D01*
X191750171Y-132021983D01*
X191814127Y-132049057D01*
X191821963Y-132051658D01*
X191840999Y-132057584D01*
X191859047Y-132062154D01*
X191878507Y-132065588D01*
X191901782Y-132068103D01*
X191931269Y-132069918D01*
X191969371Y-132071251D01*
X192018486Y-132072321D01*
X192081017Y-132073346D01*
X192284644Y-132076473D01*
X192284644Y-131785884D01*
X192284644Y-131495295D01*
X192073109Y-131500637D01*
X192005630Y-131502652D01*
X191938086Y-131505512D01*
X191884324Y-131508851D01*
X191845019Y-131512626D01*
X191820850Y-131516793D01*
X191796903Y-131524044D01*
X191739621Y-131549747D01*
X191691930Y-131583854D01*
X191655762Y-131624778D01*
X191633051Y-131670933D01*
X191621316Y-131717299D01*
X191615439Y-131789011D01*
X191059979Y-131789011D01*
X191060890Y-131721099D01*
X191064491Y-131654037D01*
X191071058Y-131597681D01*
X191081021Y-131550150D01*
X191094813Y-131509557D01*
X191112865Y-131474021D01*
X191135610Y-131441656D01*
X191163479Y-131410578D01*
X191203956Y-131373804D01*
X191275931Y-131323543D01*
X191356628Y-131282596D01*
X191442458Y-131252989D01*
X191456878Y-131248864D01*
X191477744Y-131241749D01*
X191488889Y-131236320D01*
X191488215Y-131231960D01*
X191477084Y-131222286D01*
X191457175Y-131210635D01*
X191416618Y-131187704D01*
X191345997Y-131134344D01*
X191285765Y-131069797D01*
X191237104Y-130995439D01*
X191201194Y-130912644D01*
X191196040Y-130895256D01*
X191192566Y-130877417D01*
X191762951Y-130877417D01*
X191770446Y-130932279D01*
X191787888Y-130982232D01*
X191815274Y-131023582D01*
X191822846Y-131031423D01*
X191864766Y-131062779D01*
X191917304Y-131086874D01*
X191976919Y-131101991D01*
X191987484Y-131103399D01*
X192019423Y-131106101D01*
X192060980Y-131108278D01*
X192107954Y-131109736D01*
X192156141Y-131110280D01*
X192284644Y-131110340D01*
X192284644Y-130865197D01*
X192284644Y-130620053D01*
X192171957Y-130620194D01*
X192165144Y-130620209D01*
X192081358Y-130621731D01*
X192011496Y-130625960D01*
X191953955Y-130633255D01*
X191907135Y-130643975D01*
X191869432Y-130658481D01*
X191839246Y-130677132D01*
X191814974Y-130700286D01*
X191800185Y-130720360D01*
X191777817Y-130767761D01*
X191765407Y-130821346D01*
X191762951Y-130877417D01*
X191192566Y-130877417D01*
X191185895Y-130843161D01*
X191179896Y-130783180D01*
X191178258Y-130720642D01*
X191181196Y-130660876D01*
X191188925Y-130609212D01*
X191205891Y-130549968D01*
X191240854Y-130474286D01*
X191288666Y-130407760D01*
X191349217Y-130350508D01*
X191422397Y-130302651D01*
X191508096Y-130264307D01*
X191529768Y-130256691D01*
X191562466Y-130246456D01*
X191596594Y-130237521D01*
X191633351Y-130229803D01*
X191673936Y-130223217D01*
X191719546Y-130217680D01*
X191771381Y-130213107D01*
X191830639Y-130209413D01*
X191898519Y-130206515D01*
X191976219Y-130204329D01*
X192064938Y-130202770D01*
X192165874Y-130201754D01*
X192280226Y-130201196D01*
X192409192Y-130201014D01*
X192861916Y-130200938D01*
X192861916Y-130865197D01*
X192861916Y-131348043D01*
G37*
G36*
X196989812Y-131362605D02*
G01*
X196989789Y-131519900D01*
X196989712Y-131669220D01*
X196989576Y-131803985D01*
X196989375Y-131924836D01*
X196989104Y-132032418D01*
X196988758Y-132127374D01*
X196988330Y-132210348D01*
X196987816Y-132281981D01*
X196987209Y-132342919D01*
X196986506Y-132393803D01*
X196985699Y-132435278D01*
X196984783Y-132467987D01*
X196983754Y-132492573D01*
X196982605Y-132509679D01*
X196981331Y-132519948D01*
X196979927Y-132524025D01*
X196972387Y-132528835D01*
X196954226Y-132536105D01*
X196952888Y-132536343D01*
X196937883Y-132537303D01*
X196909691Y-132538084D01*
X196870455Y-132538662D01*
X196822318Y-132539013D01*
X196767427Y-132539111D01*
X196707924Y-132538933D01*
X196662403Y-132538667D01*
X196605046Y-132538188D01*
X196560503Y-132537513D01*
X196526959Y-132536521D01*
X196502603Y-132535094D01*
X196485622Y-132533112D01*
X196474203Y-132530456D01*
X196466535Y-132527005D01*
X196460804Y-132522642D01*
X196459375Y-132521328D01*
X196455908Y-132517545D01*
X196453013Y-132512413D01*
X196450638Y-132504618D01*
X196448732Y-132492844D01*
X196447242Y-132475777D01*
X196446119Y-132452100D01*
X196445309Y-132420499D01*
X196444762Y-132379658D01*
X196444426Y-132328262D01*
X196444250Y-132264997D01*
X196444182Y-132188546D01*
X196444170Y-132097595D01*
X196444170Y-131687612D01*
X196264267Y-131687584D01*
X196181261Y-131686989D01*
X196079570Y-131684632D01*
X195984048Y-131680605D01*
X195897095Y-131675041D01*
X195821113Y-131668071D01*
X195758505Y-131659828D01*
X195707314Y-131649810D01*
X195607729Y-131619202D01*
X195515412Y-131575617D01*
X195431550Y-131519907D01*
X195357329Y-131452927D01*
X195293937Y-131375532D01*
X195242561Y-131288576D01*
X195225349Y-131250472D01*
X195193466Y-131155014D01*
X195173453Y-131053284D01*
X195165280Y-130948102D01*
X195165517Y-130941203D01*
X195732900Y-130941203D01*
X195736004Y-130986213D01*
X195744111Y-131022744D01*
X195745875Y-131027576D01*
X195774257Y-131081094D01*
X195815082Y-131126555D01*
X195866386Y-131162196D01*
X195926206Y-131186254D01*
X195943913Y-131190345D01*
X195966021Y-131193692D01*
X195994419Y-131196407D01*
X196031013Y-131198601D01*
X196077707Y-131200391D01*
X196136407Y-131201890D01*
X196209017Y-131203213D01*
X196444380Y-131206947D01*
X196442298Y-130935247D01*
X196440216Y-130663546D01*
X196309737Y-130661253D01*
X196275036Y-130660811D01*
X196189359Y-130661211D01*
X196110086Y-130663711D01*
X196039086Y-130668175D01*
X195978229Y-130674463D01*
X195929385Y-130682437D01*
X195894424Y-130691960D01*
X195878942Y-130698575D01*
X195836385Y-130724600D01*
X195797341Y-130758926D01*
X195765791Y-130797671D01*
X195745717Y-130836951D01*
X195741478Y-130851765D01*
X195734743Y-130894219D01*
X195732900Y-130941203D01*
X195165517Y-130941203D01*
X195168917Y-130842289D01*
X195184333Y-130738666D01*
X195211500Y-130640054D01*
X195250387Y-130549273D01*
X195257246Y-130536452D01*
X195311715Y-130453170D01*
X195377712Y-130379821D01*
X195453846Y-130317762D01*
X195538722Y-130268350D01*
X195543754Y-130265942D01*
X195571635Y-130253050D01*
X195598507Y-130241739D01*
X195625572Y-130231898D01*
X195654031Y-130223414D01*
X195685086Y-130216175D01*
X195719940Y-130210068D01*
X195759793Y-130204982D01*
X195805848Y-130200802D01*
X195859306Y-130197418D01*
X195921369Y-130194716D01*
X195993239Y-130192585D01*
X196076117Y-130190911D01*
X196171206Y-130189582D01*
X196279708Y-130188487D01*
X196402823Y-130187512D01*
X196506753Y-130186779D01*
X196599639Y-130186195D01*
X196678919Y-130185805D01*
X196745714Y-130185625D01*
X196801147Y-130185673D01*
X196846339Y-130185966D01*
X196882413Y-130186522D01*
X196910491Y-130187360D01*
X196931695Y-130188495D01*
X196947146Y-130189946D01*
X196957968Y-130191730D01*
X196965282Y-130193864D01*
X196970211Y-130196367D01*
X196989812Y-130209210D01*
X196989812Y-131206947D01*
X196989812Y-131362605D01*
G37*
G36*
X194105810Y-130209344D02*
G01*
X194238799Y-130236429D01*
X194369146Y-130278142D01*
X194495737Y-130334487D01*
X194617458Y-130405467D01*
X194646124Y-130425911D01*
X194692571Y-130463700D01*
X194742389Y-130508579D01*
X194792309Y-130557322D01*
X194839065Y-130606698D01*
X194879387Y-130653481D01*
X194910007Y-130694442D01*
X194928469Y-130722973D01*
X194989127Y-130833091D01*
X195035694Y-130947827D01*
X195068517Y-131068382D01*
X195087943Y-131195960D01*
X195094322Y-131331759D01*
X195093821Y-131372279D01*
X195083930Y-131511070D01*
X195061195Y-131640966D01*
X195025375Y-131762554D01*
X194976230Y-131876420D01*
X194913519Y-131983147D01*
X194837001Y-132083323D01*
X194746434Y-132177533D01*
X194689360Y-132227263D01*
X194584478Y-132302214D01*
X194470864Y-132364323D01*
X194349274Y-132413258D01*
X194220462Y-132448684D01*
X194085184Y-132470266D01*
X194008212Y-132476088D01*
X193872585Y-132476036D01*
X193737743Y-132463450D01*
X193608508Y-132438651D01*
X193592013Y-132434496D01*
X193498726Y-132407009D01*
X193414783Y-132374306D01*
X193334791Y-132334035D01*
X193253355Y-132283845D01*
X193230764Y-132268441D01*
X193184446Y-132234941D01*
X193137958Y-132199093D01*
X193093501Y-132162778D01*
X193053279Y-132127877D01*
X193019494Y-132096272D01*
X192994351Y-132069844D01*
X192980052Y-132050473D01*
X192976309Y-132038772D01*
X192977099Y-132018107D01*
X192980252Y-132012819D01*
X192993249Y-131996532D01*
X193014430Y-131972251D01*
X193041941Y-131941915D01*
X193073930Y-131907467D01*
X193108541Y-131870845D01*
X193143922Y-131833990D01*
X193178220Y-131798843D01*
X193209579Y-131767343D01*
X193236147Y-131741431D01*
X193256070Y-131723048D01*
X193267495Y-131714133D01*
X193281313Y-131709423D01*
X193297856Y-131711206D01*
X193318104Y-131721354D01*
X193344312Y-131741027D01*
X193378739Y-131771389D01*
X193396461Y-131787091D01*
X193441717Y-131823637D01*
X193492067Y-131860492D01*
X193543386Y-131894839D01*
X193591552Y-131923859D01*
X193632440Y-131944736D01*
X193645437Y-131950272D01*
X193730744Y-131977837D01*
X193823537Y-131994553D01*
X193920319Y-132000376D01*
X194017591Y-131995259D01*
X194111853Y-131979158D01*
X194199609Y-131952029D01*
X194267386Y-131920680D01*
X194346686Y-131870602D01*
X194417416Y-131810422D01*
X194477356Y-131742086D01*
X194524286Y-131667537D01*
X194550297Y-131613313D01*
X194571298Y-131558212D01*
X194585613Y-131502853D01*
X194594534Y-131442135D01*
X194599353Y-131370956D01*
X194598019Y-131267243D01*
X194584629Y-131172380D01*
X194558571Y-131085372D01*
X194519257Y-131004709D01*
X194466096Y-130928882D01*
X194398501Y-130856382D01*
X194369570Y-130830054D01*
X194302327Y-130778625D01*
X194231083Y-130738430D01*
X194150895Y-130706475D01*
X194124958Y-130698154D01*
X194092014Y-130689315D01*
X194059735Y-130683496D01*
X194022628Y-130679784D01*
X193975200Y-130677267D01*
X193910443Y-130676359D01*
X193825619Y-130682091D01*
X193746784Y-130697022D01*
X193669265Y-130722132D01*
X193588386Y-130758403D01*
X193575392Y-130765073D01*
X193508925Y-130804221D01*
X193440738Y-130853078D01*
X193367886Y-130913721D01*
X193356917Y-130923272D01*
X193325178Y-130948744D01*
X193301809Y-130963341D01*
X193285389Y-130967999D01*
X193284478Y-130967969D01*
X193274303Y-130964883D01*
X193259551Y-130955961D01*
X193238903Y-130940131D01*
X193211040Y-130916323D01*
X193174643Y-130883464D01*
X193128392Y-130840483D01*
X193120440Y-130833027D01*
X193074408Y-130789808D01*
X193038479Y-130755829D01*
X193011400Y-130729725D01*
X192991922Y-130710133D01*
X192978791Y-130695689D01*
X192970757Y-130685029D01*
X192966568Y-130676788D01*
X192964972Y-130669604D01*
X192964718Y-130662112D01*
X192968469Y-130647913D01*
X192983589Y-130622907D01*
X193008662Y-130592052D01*
X193041929Y-130557072D01*
X193081629Y-130519691D01*
X193126002Y-130481634D01*
X193173287Y-130444625D01*
X193221723Y-130410388D01*
X193314824Y-130353793D01*
X193440255Y-130293195D01*
X193569732Y-130247201D01*
X193702141Y-130215815D01*
X193836367Y-130199041D01*
X193971294Y-130196882D01*
X194105810Y-130209344D01*
G37*
G36*
X187990138Y-131992671D02*
G01*
X187988860Y-132047896D01*
X187985084Y-132097435D01*
X187978810Y-132136323D01*
X187970738Y-132166440D01*
X187938158Y-132248503D01*
X187892670Y-132323114D01*
X187835668Y-132388830D01*
X187768545Y-132444212D01*
X187692695Y-132487819D01*
X187609512Y-132518208D01*
X187600209Y-132520490D01*
X187556150Y-132527477D01*
X187502707Y-132531524D01*
X187444048Y-132532717D01*
X187384342Y-132531140D01*
X187327758Y-132526879D01*
X187278464Y-132520020D01*
X187240631Y-132510647D01*
X187228605Y-132506439D01*
X187154529Y-132477133D01*
X187090003Y-132444432D01*
X187029567Y-132405250D01*
X186967759Y-132356502D01*
X186957900Y-132348201D01*
X186935491Y-132329852D01*
X186919019Y-132317107D01*
X186911501Y-132312332D01*
X186909939Y-132318922D01*
X186908573Y-132338360D01*
X186907649Y-132367551D01*
X186907309Y-132403378D01*
X186907309Y-132494423D01*
X186640419Y-132492341D01*
X186373529Y-132490259D01*
X186371206Y-131893216D01*
X186371093Y-131861329D01*
X186907309Y-131861329D01*
X186907309Y-132042953D01*
X186948825Y-132073951D01*
X186989005Y-132101646D01*
X187040334Y-132128990D01*
X187096555Y-132149349D01*
X187099739Y-132150240D01*
X187131374Y-132156030D01*
X187171524Y-132159809D01*
X187214175Y-132161340D01*
X187253315Y-132160384D01*
X187282931Y-132156705D01*
X187333192Y-132142272D01*
X187371593Y-132123460D01*
X187400528Y-132098909D01*
X187401959Y-132097311D01*
X187422506Y-132069166D01*
X187435750Y-132037539D01*
X187442859Y-131998473D01*
X187444998Y-131948012D01*
X187443771Y-131918667D01*
X187434916Y-131871480D01*
X187416746Y-131830978D01*
X187388362Y-131796567D01*
X187348864Y-131767653D01*
X187297354Y-131743643D01*
X187232930Y-131723942D01*
X187154694Y-131707958D01*
X187061744Y-131695095D01*
X187026760Y-131691134D01*
X186985588Y-131686580D01*
X186951742Y-131682959D01*
X186928015Y-131680568D01*
X186917204Y-131679705D01*
X186916768Y-131679751D01*
X186913538Y-131684210D01*
X186911078Y-131696994D01*
X186909306Y-131719601D01*
X186908142Y-131753528D01*
X186907503Y-131800271D01*
X186907309Y-131861329D01*
X186371093Y-131861329D01*
X186370814Y-131782633D01*
X186370557Y-131673995D01*
X186370536Y-131579007D01*
X186370802Y-131496529D01*
X186371407Y-131425421D01*
X186372402Y-131364545D01*
X186373837Y-131312762D01*
X186375764Y-131268932D01*
X186378235Y-131231917D01*
X186381300Y-131200577D01*
X186385011Y-131173773D01*
X186389419Y-131150366D01*
X186394574Y-131129218D01*
X186400529Y-131109188D01*
X186407334Y-131089138D01*
X186420372Y-131055936D01*
X186459098Y-130983912D01*
X186509253Y-130920843D01*
X186571281Y-130866434D01*
X186645626Y-130820390D01*
X186732731Y-130782414D01*
X186833040Y-130752211D01*
X186946996Y-130729486D01*
X186960661Y-130727628D01*
X187005217Y-130723848D01*
X187065322Y-130721180D01*
X187140814Y-130719629D01*
X187231530Y-130719201D01*
X187251368Y-130719245D01*
X187326001Y-130719868D01*
X187389652Y-130721507D01*
X187446080Y-130724569D01*
X187499045Y-130729461D01*
X187552306Y-130736589D01*
X187609625Y-130746361D01*
X187674760Y-130759183D01*
X187751471Y-130775462D01*
X187848342Y-130796447D01*
X187848342Y-131004794D01*
X187848342Y-131213142D01*
X187824825Y-131213142D01*
X187823099Y-131213089D01*
X187802912Y-131209482D01*
X187774524Y-131201321D01*
X187743507Y-131190181D01*
X187690980Y-131170119D01*
X187587562Y-131136125D01*
X187491082Y-131112607D01*
X187398790Y-131098961D01*
X187307936Y-131094584D01*
X187253276Y-131095538D01*
X187173371Y-131101367D01*
X187106177Y-131112821D01*
X187050268Y-131130279D01*
X187004214Y-131154116D01*
X186966587Y-131184711D01*
X186959487Y-131192073D01*
X186929283Y-131231949D01*
X186912498Y-131274106D01*
X186907309Y-131322792D01*
X186907327Y-131325443D01*
X186910135Y-131347955D01*
X186917705Y-131355483D01*
X186919565Y-131355560D01*
X186934824Y-131356709D01*
X186962547Y-131359063D01*
X187000258Y-131362403D01*
X187045479Y-131366512D01*
X187095736Y-131371171D01*
X187096190Y-131371214D01*
X187193539Y-131380818D01*
X187277327Y-131390262D01*
X187349790Y-131399951D01*
X187413162Y-131410290D01*
X187469679Y-131421684D01*
X187521577Y-131434539D01*
X187571089Y-131449258D01*
X187620452Y-131466248D01*
X187631316Y-131470302D01*
X187720592Y-131511292D01*
X187798036Y-131561397D01*
X187863113Y-131620060D01*
X187915292Y-131686723D01*
X187954041Y-131760827D01*
X187978827Y-131841815D01*
X187978978Y-131842543D01*
X187985197Y-131885029D01*
X187988917Y-131936727D01*
X187989163Y-131948012D01*
X187990138Y-131992671D01*
G37*
G36*
X188615036Y-130946252D02*
G01*
X188637163Y-131048628D01*
X188662343Y-131165146D01*
X188684521Y-131267742D01*
X188703893Y-131357272D01*
X188720657Y-131434596D01*
X188735009Y-131500568D01*
X188747146Y-131556047D01*
X188757266Y-131601889D01*
X188765565Y-131638953D01*
X188772240Y-131668094D01*
X188777489Y-131690169D01*
X188781507Y-131706037D01*
X188784493Y-131716555D01*
X188786643Y-131722578D01*
X188788153Y-131724965D01*
X188789222Y-131724573D01*
X188790045Y-131722258D01*
X188790820Y-131718878D01*
X188791744Y-131715290D01*
X188791975Y-131714471D01*
X188795208Y-131701560D01*
X188801769Y-131674583D01*
X188811397Y-131634639D01*
X188823829Y-131582824D01*
X188838804Y-131520235D01*
X188856059Y-131447968D01*
X188875333Y-131367121D01*
X188896364Y-131278790D01*
X188918889Y-131184072D01*
X188942647Y-131084063D01*
X188967377Y-130979860D01*
X188972014Y-130960311D01*
X188996677Y-130856386D01*
X189020372Y-130756604D01*
X189042833Y-130662091D01*
X189063791Y-130573970D01*
X189082978Y-130493367D01*
X189100126Y-130421406D01*
X189114968Y-130359212D01*
X189127235Y-130307909D01*
X189136659Y-130268621D01*
X189142973Y-130242474D01*
X189145908Y-130230592D01*
X189153746Y-130200938D01*
X189440101Y-130200964D01*
X189726456Y-130200991D01*
X189915555Y-130954186D01*
X189944457Y-131069200D01*
X189974480Y-131188372D01*
X190001055Y-131293466D01*
X190024365Y-131385169D01*
X190044592Y-131464165D01*
X190061917Y-131531141D01*
X190076522Y-131586780D01*
X190088590Y-131631769D01*
X190098302Y-131666793D01*
X190105840Y-131692537D01*
X190111387Y-131709687D01*
X190115123Y-131718928D01*
X190117231Y-131720946D01*
X190117894Y-131716425D01*
X190118158Y-131714794D01*
X190120964Y-131700348D01*
X190126662Y-131671914D01*
X190135034Y-131630560D01*
X190145862Y-131577351D01*
X190158927Y-131513353D01*
X190174012Y-131439634D01*
X190190899Y-131357259D01*
X190209368Y-131267295D01*
X190229203Y-131170807D01*
X190250186Y-131068864D01*
X190272097Y-130962529D01*
X190281107Y-130918816D01*
X190302669Y-130814111D01*
X190323214Y-130714215D01*
X190342522Y-130620196D01*
X190360375Y-130533123D01*
X190376556Y-130454062D01*
X190390847Y-130384082D01*
X190403028Y-130324252D01*
X190412882Y-130275638D01*
X190420191Y-130239309D01*
X190424736Y-130216333D01*
X190426300Y-130207777D01*
X190426524Y-130207512D01*
X190436646Y-130206002D01*
X190460578Y-130204617D01*
X190496604Y-130203396D01*
X190543008Y-130202379D01*
X190598075Y-130201604D01*
X190660088Y-130201111D01*
X190727331Y-130200938D01*
X190729933Y-130200938D01*
X190806442Y-130200976D01*
X190868627Y-130201134D01*
X190917937Y-130201478D01*
X190955820Y-130202076D01*
X190983723Y-130202995D01*
X191003095Y-130204304D01*
X191015382Y-130206068D01*
X191022033Y-130208357D01*
X191024497Y-130211237D01*
X191024220Y-130214776D01*
X191024177Y-130214923D01*
X191021528Y-130225083D01*
X191015225Y-130249655D01*
X191005489Y-130287779D01*
X190992538Y-130338594D01*
X190976590Y-130401239D01*
X190957865Y-130474855D01*
X190936580Y-130558581D01*
X190912955Y-130651556D01*
X190887208Y-130752922D01*
X190859558Y-130861816D01*
X190830224Y-130977379D01*
X190799423Y-131098750D01*
X190767375Y-131225069D01*
X190734299Y-131355476D01*
X190731664Y-131365866D01*
X190698689Y-131495826D01*
X190666764Y-131621537D01*
X190636106Y-131742145D01*
X190606935Y-131856798D01*
X190579467Y-131964644D01*
X190553920Y-132064830D01*
X190530512Y-132156504D01*
X190509462Y-132238814D01*
X190490986Y-132310906D01*
X190475302Y-132371929D01*
X190462630Y-132421030D01*
X190453185Y-132457356D01*
X190447186Y-132480055D01*
X190444852Y-132488275D01*
X190443954Y-132488662D01*
X190431239Y-132489941D01*
X190404916Y-132491112D01*
X190366696Y-132492143D01*
X190318293Y-132493000D01*
X190261416Y-132493652D01*
X190197779Y-132494067D01*
X190129093Y-132494213D01*
X189817004Y-132494213D01*
X189810332Y-132476420D01*
X189807658Y-132467011D01*
X189801373Y-132443232D01*
X189791805Y-132406309D01*
X189779240Y-132357367D01*
X189763963Y-132297529D01*
X189746259Y-132227918D01*
X189726416Y-132149660D01*
X189704718Y-132063877D01*
X189681452Y-131971694D01*
X189656903Y-131874234D01*
X189631356Y-131772622D01*
X189606232Y-131672793D01*
X189581794Y-131576086D01*
X189558665Y-131484949D01*
X189537125Y-131400467D01*
X189517453Y-131323728D01*
X189499931Y-131255816D01*
X189484838Y-131197817D01*
X189472455Y-131150820D01*
X189463062Y-131115908D01*
X189456939Y-131094169D01*
X189454366Y-131086688D01*
X189454251Y-131086806D01*
X189451158Y-131096109D01*
X189444432Y-131119522D01*
X189434356Y-131155974D01*
X189421217Y-131204395D01*
X189405299Y-131263714D01*
X189386889Y-131332860D01*
X189366270Y-131410762D01*
X189343729Y-131496348D01*
X189319551Y-131588549D01*
X189294020Y-131686293D01*
X189267423Y-131788510D01*
X189085165Y-132490259D01*
X188773671Y-132492329D01*
X188754318Y-132492445D01*
X188686756Y-132492650D01*
X188624609Y-132492535D01*
X188569609Y-132492123D01*
X188523491Y-132491438D01*
X188487988Y-132490503D01*
X188464832Y-132489342D01*
X188455758Y-132487979D01*
X188454327Y-132483407D01*
X188449203Y-132464643D01*
X188440645Y-132432348D01*
X188428917Y-132387549D01*
X188414281Y-132331275D01*
X188397001Y-132264555D01*
X188377338Y-132188418D01*
X188355555Y-132103891D01*
X188331917Y-132012004D01*
X188306684Y-131913784D01*
X188280121Y-131810261D01*
X188252489Y-131702463D01*
X188224052Y-131591418D01*
X188195073Y-131478155D01*
X188165814Y-131363703D01*
X188136538Y-131249090D01*
X188107508Y-131135344D01*
X188078986Y-131023495D01*
X188051236Y-130914570D01*
X188024521Y-130809598D01*
X187999102Y-130709608D01*
X187975243Y-130615628D01*
X187953207Y-130528687D01*
X187933257Y-130449813D01*
X187915654Y-130380035D01*
X187900663Y-130320381D01*
X187888546Y-130271880D01*
X187879566Y-130235561D01*
X187873984Y-130212451D01*
X187872066Y-130203580D01*
X187872083Y-130203551D01*
X187880407Y-130202953D01*
X187902718Y-130202403D01*
X187937272Y-130201918D01*
X187982321Y-130201513D01*
X188036122Y-130201204D01*
X188096928Y-130201007D01*
X188162994Y-130200938D01*
X188453922Y-130200938D01*
X188615036Y-130946252D01*
G37*
G36*
X185138767Y-130823680D02*
G01*
X185185831Y-130973032D01*
X185232865Y-131122438D01*
X185275194Y-131257065D01*
X185312865Y-131377066D01*
X185345926Y-131482593D01*
X185374424Y-131573800D01*
X185398407Y-131650839D01*
X185417923Y-131713863D01*
X185433019Y-131763024D01*
X185443743Y-131798475D01*
X185450142Y-131820369D01*
X185452265Y-131828858D01*
X185452267Y-131829380D01*
X185453180Y-131836314D01*
X185455944Y-131836475D01*
X185460834Y-131829110D01*
X185468125Y-131813468D01*
X185478093Y-131788797D01*
X185491012Y-131754345D01*
X185507160Y-131709360D01*
X185526810Y-131653091D01*
X185550239Y-131584784D01*
X185577721Y-131503690D01*
X185609533Y-131409055D01*
X185645949Y-131300128D01*
X185825360Y-130762395D01*
X186110175Y-130762395D01*
X186169083Y-130762415D01*
X186232537Y-130762543D01*
X186282798Y-130762851D01*
X186321343Y-130763413D01*
X186349654Y-130764303D01*
X186369208Y-130765594D01*
X186381486Y-130767359D01*
X186387968Y-130769672D01*
X186390132Y-130772606D01*
X186389459Y-130776233D01*
X186388052Y-130779825D01*
X186380958Y-130798326D01*
X186369049Y-130829644D01*
X186352757Y-130872630D01*
X186332516Y-130926132D01*
X186308759Y-130989000D01*
X186281920Y-131060084D01*
X186252431Y-131138232D01*
X186220727Y-131222294D01*
X186187239Y-131311120D01*
X186152402Y-131403558D01*
X186116649Y-131498459D01*
X186080413Y-131594671D01*
X186044127Y-131691043D01*
X186008225Y-131786426D01*
X185973139Y-131879668D01*
X185939304Y-131969619D01*
X185907152Y-132055129D01*
X185877116Y-132135046D01*
X185849630Y-132208219D01*
X185825128Y-132273499D01*
X185804042Y-132329735D01*
X185786805Y-132375776D01*
X185773852Y-132410471D01*
X185765614Y-132432669D01*
X185762526Y-132441221D01*
X185763196Y-132447880D01*
X185768650Y-132468211D01*
X185778684Y-132499456D01*
X185792557Y-132539426D01*
X185809523Y-132585927D01*
X185828841Y-132636769D01*
X185850430Y-132692289D01*
X185867725Y-132735928D01*
X185881098Y-132768166D01*
X185891397Y-132790715D01*
X185899471Y-132805285D01*
X185906168Y-132813589D01*
X185912338Y-132817337D01*
X185918828Y-132818241D01*
X185919233Y-132818239D01*
X185932548Y-132817454D01*
X185959591Y-132815366D01*
X185998487Y-132812136D01*
X186047364Y-132807926D01*
X186104348Y-132802896D01*
X186167565Y-132797209D01*
X186235142Y-132791024D01*
X186639185Y-132755964D01*
X187168348Y-132717089D01*
X187690229Y-132687034D01*
X188208077Y-132665671D01*
X188725146Y-132652871D01*
X189244686Y-132648509D01*
X189769949Y-132652457D01*
X189864290Y-132653962D01*
X190027725Y-132656967D01*
X190180881Y-132660376D01*
X190326650Y-132664303D01*
X190467925Y-132668863D01*
X190607597Y-132674169D01*
X190748558Y-132680335D01*
X190893702Y-132687474D01*
X191045921Y-132695701D01*
X191208105Y-132705128D01*
X191383149Y-132715870D01*
X191419161Y-132718142D01*
X192104549Y-132766806D01*
X192791782Y-132825802D01*
X193478337Y-132894841D01*
X194161697Y-132973633D01*
X194839340Y-133061888D01*
X195508746Y-133159318D01*
X196167396Y-133265631D01*
X196220419Y-133274689D01*
X196293656Y-133287363D01*
X196372624Y-133301177D01*
X196455193Y-133315750D01*
X196539231Y-133330696D01*
X196622605Y-133345633D01*
X196703185Y-133360176D01*
X196778838Y-133373943D01*
X196847434Y-133386550D01*
X196906839Y-133397613D01*
X196954924Y-133406748D01*
X196989556Y-133413573D01*
X197040701Y-133423994D01*
X197074184Y-133581846D01*
X197076567Y-133593092D01*
X197086477Y-133640086D01*
X197095077Y-133681245D01*
X197101871Y-133714161D01*
X197106361Y-133736425D01*
X197108048Y-133745629D01*
X197108123Y-133746855D01*
X197107604Y-133749131D01*
X197104602Y-133750327D01*
X197097254Y-133750173D01*
X197083695Y-133748394D01*
X197062062Y-133744719D01*
X197030489Y-133738873D01*
X196987114Y-133730585D01*
X196930072Y-133719582D01*
X196714886Y-133678342D01*
X196198755Y-133582043D01*
X195695547Y-133491983D01*
X195204184Y-133408021D01*
X194723585Y-133330015D01*
X194252671Y-133257823D01*
X193790362Y-133191304D01*
X193335578Y-133130317D01*
X192887240Y-133074718D01*
X192444267Y-133024368D01*
X192005580Y-132979125D01*
X191570100Y-132938846D01*
X191136745Y-132903390D01*
X190704438Y-132872616D01*
X190272097Y-132846382D01*
X189995878Y-132831961D01*
X189620876Y-132815503D01*
X189259373Y-132803430D01*
X188910382Y-132795735D01*
X188572913Y-132792409D01*
X188245981Y-132793445D01*
X187928595Y-132798835D01*
X187619770Y-132808571D01*
X187318517Y-132822645D01*
X187255685Y-132826230D01*
X187178876Y-132830936D01*
X187095097Y-132836350D01*
X187005770Y-132842362D01*
X186912317Y-132848861D01*
X186816160Y-132855737D01*
X186718721Y-132862878D01*
X186621421Y-132870176D01*
X186525683Y-132877519D01*
X186432929Y-132884797D01*
X186344580Y-132891900D01*
X186262058Y-132898717D01*
X186186785Y-132905137D01*
X186120182Y-132911052D01*
X186063673Y-132916349D01*
X186018678Y-132920919D01*
X185986620Y-132924651D01*
X185968920Y-132927435D01*
X185943888Y-132933098D01*
X185978805Y-133019735D01*
X185991866Y-133052890D01*
X186003214Y-133083233D01*
X186010896Y-133105573D01*
X186013722Y-133116606D01*
X186013715Y-133116766D01*
X186010540Y-133119510D01*
X186000706Y-133121737D01*
X185982903Y-133123492D01*
X185955824Y-133124822D01*
X185918162Y-133125776D01*
X185868608Y-133126398D01*
X185805855Y-133126738D01*
X185728595Y-133126840D01*
X185443468Y-133126840D01*
X185429499Y-133093232D01*
X185424999Y-133082330D01*
X185412215Y-133050896D01*
X185399885Y-133020084D01*
X185393592Y-133004839D01*
X185384791Y-132989081D01*
X185375112Y-132982741D01*
X185360920Y-132982292D01*
X185360537Y-132982321D01*
X185346578Y-132983422D01*
X185318883Y-132985639D01*
X185279357Y-132988821D01*
X185229907Y-132992812D01*
X185172436Y-132997459D01*
X185108851Y-133002609D01*
X185041057Y-133008108D01*
X184985878Y-133012584D01*
X184910434Y-133018696D01*
X184835886Y-133024727D01*
X184765207Y-133030438D01*
X184701372Y-133035588D01*
X184647354Y-133039937D01*
X184606126Y-133043244D01*
X184467738Y-133054313D01*
X184424717Y-133025337D01*
X184381696Y-132996361D01*
X184452547Y-132986939D01*
X184471017Y-132984578D01*
X184505424Y-132980337D01*
X184551950Y-132974701D01*
X184608665Y-132967898D01*
X184673643Y-132960161D01*
X184744955Y-132951718D01*
X184820673Y-132942800D01*
X184898868Y-132933638D01*
X184971260Y-132925171D01*
X185044590Y-132916579D01*
X185112613Y-132908593D01*
X185173594Y-132901418D01*
X185225800Y-132895259D01*
X185267498Y-132890318D01*
X185296954Y-132886802D01*
X185312434Y-132884913D01*
X185315467Y-132884519D01*
X185336838Y-132880593D01*
X185345761Y-132875321D01*
X185345285Y-132867043D01*
X185341853Y-132858000D01*
X185333306Y-132835141D01*
X185320070Y-132799611D01*
X185302525Y-132752427D01*
X185281046Y-132694609D01*
X185256012Y-132627175D01*
X185227799Y-132551143D01*
X185196786Y-132467533D01*
X185163348Y-132377362D01*
X185127863Y-132281649D01*
X185090709Y-132181413D01*
X185052264Y-132077672D01*
X185012903Y-131971445D01*
X184973005Y-131863750D01*
X184932947Y-131755607D01*
X184893105Y-131648032D01*
X184853859Y-131542045D01*
X184815583Y-131438665D01*
X184778657Y-131338910D01*
X184743457Y-131243799D01*
X184710360Y-131154349D01*
X184679744Y-131071580D01*
X184651986Y-130996510D01*
X184627464Y-130930158D01*
X184606554Y-130873543D01*
X184589634Y-130827682D01*
X184577081Y-130793594D01*
X184569273Y-130772298D01*
X184566586Y-130764812D01*
X184572370Y-130764321D01*
X184592277Y-130763797D01*
X184624652Y-130763334D01*
X184667704Y-130762947D01*
X184719643Y-130762650D01*
X184778677Y-130762461D01*
X184843017Y-130762395D01*
X185119447Y-130762395D01*
X185138767Y-130823680D01*
G37*
%TD*%
M02*
