%TF.GenerationSoftware,KiCad,Pcbnew,9.0.2+1*%
%TF.CreationDate,2025-06-30T02:26:09+02:00*%
%TF.ProjectId,isa_debug_card,6973615f-6465-4627-9567-5f636172642e,rev?*%
%TF.SameCoordinates,Original*%
%TF.FileFunction,Soldermask,Top*%
%TF.FilePolarity,Negative*%
%FSLAX46Y46*%
G04 Gerber Fmt 4.6, Leading zero omitted, Abs format (unit mm)*
G04 Created by KiCad (PCBNEW 9.0.2+1) date 2025-06-30 02:26:09*
%MOMM*%
%LPD*%
G01*
G04 APERTURE LIST*
G04 Aperture macros list*
%AMRoundRect*
0 Rectangle with rounded corners*
0 $1 Rounding radius*
0 $2 $3 $4 $5 $6 $7 $8 $9 X,Y pos of 4 corners*
0 Add a 4 corners polygon primitive as box body*
4,1,4,$2,$3,$4,$5,$6,$7,$8,$9,$2,$3,0*
0 Add four circle primitives for the rounded corners*
1,1,$1+$1,$2,$3*
1,1,$1+$1,$4,$5*
1,1,$1+$1,$6,$7*
1,1,$1+$1,$8,$9*
0 Add four rect primitives between the rounded corners*
20,1,$1+$1,$2,$3,$4,$5,0*
20,1,$1+$1,$4,$5,$6,$7,0*
20,1,$1+$1,$6,$7,$8,$9,0*
20,1,$1+$1,$8,$9,$2,$3,0*%
G04 Aperture macros list end*
%ADD10C,0.100000*%
%ADD11C,1.600000*%
%ADD12R,1.500000X1.000000*%
%ADD13R,1.600000X1.600000*%
%ADD14C,1.400000*%
%ADD15RoundRect,0.250000X0.550000X-0.550000X0.550000X0.550000X-0.550000X0.550000X-0.550000X-0.550000X0*%
%ADD16R,1.800000X1.800000*%
%ADD17C,1.800000*%
%ADD18C,3.500000*%
%ADD19R,1.905000X2.000000*%
%ADD20O,1.905000X2.000000*%
%ADD21R,1.000000X1.500000*%
%ADD22R,1.700000X1.700000*%
%ADD23C,1.700000*%
%ADD24R,1.050000X1.500000*%
%ADD25O,1.050000X1.500000*%
%ADD26R,2.000000X2.000000*%
%ADD27R,1.500000X1.500000*%
%ADD28C,1.500000*%
%ADD29R,1.780000X6.820000*%
%ADD30RoundRect,0.075000X-0.662500X-0.075000X0.662500X-0.075000X0.662500X0.075000X-0.662500X0.075000X0*%
%ADD31RoundRect,0.075000X-0.075000X-0.662500X0.075000X-0.662500X0.075000X0.662500X-0.075000X0.662500X0*%
%ADD32RoundRect,0.250000X-0.550000X-0.550000X0.550000X-0.550000X0.550000X0.550000X-0.550000X0.550000X0*%
G04 APERTURE END LIST*
D10*
X183524026Y-143138026D02*
X102244026Y-143138026D01*
X102244026Y-135518026D01*
X183524026Y-135518026D01*
X183524026Y-143138026D01*
G36*
X183524026Y-143138026D02*
G01*
X102244026Y-143138026D01*
X102244026Y-135518026D01*
X183524026Y-135518026D01*
X183524026Y-143138026D01*
G37*
%TO.C,JP3*%
G36*
X111518000Y-126677000D02*
G01*
X113018000Y-126677000D01*
X113018000Y-126377000D01*
X111518000Y-126377000D01*
X111518000Y-126677000D01*
G37*
%TO.C,JP1*%
G36*
X108978000Y-126677000D02*
G01*
X110478000Y-126677000D01*
X110478000Y-126377000D01*
X108978000Y-126377000D01*
X108978000Y-126677000D01*
G37*
%TO.C,JP4*%
G36*
X114058000Y-126677000D02*
G01*
X115558000Y-126677000D01*
X115558000Y-126377000D01*
X114058000Y-126377000D01*
X114058000Y-126677000D01*
G37*
%TO.C,JP2*%
G36*
X104580000Y-119138000D02*
G01*
X106180000Y-119138000D01*
X106180000Y-120638000D01*
X104580000Y-120638000D01*
X104580000Y-119138000D01*
G37*
%TO.C,JP8*%
G36*
X109406000Y-119138000D02*
G01*
X111006000Y-119138000D01*
X111006000Y-120638000D01*
X109406000Y-120638000D01*
X109406000Y-119138000D01*
G37*
%TO.C,JP6*%
G36*
X119138000Y-126677000D02*
G01*
X120638000Y-126677000D01*
X120638000Y-126377000D01*
X119138000Y-126377000D01*
X119138000Y-126677000D01*
G37*
%TO.C,JP7*%
G36*
X121678000Y-126677000D02*
G01*
X123178000Y-126677000D01*
X123178000Y-126377000D01*
X121678000Y-126377000D01*
X121678000Y-126677000D01*
G37*
%TO.C,JP5*%
G36*
X116598000Y-126677000D02*
G01*
X118098000Y-126677000D01*
X118098000Y-126377000D01*
X116598000Y-126377000D01*
X116598000Y-126677000D01*
G37*
%TO.C,JP9*%
G36*
X124218000Y-126677000D02*
G01*
X125718000Y-126677000D01*
X125718000Y-126377000D01*
X124218000Y-126377000D01*
X124218000Y-126677000D01*
G37*
%TO.C,JP10*%
G36*
X126758000Y-126677000D02*
G01*
X128258000Y-126677000D01*
X128258000Y-126377000D01*
X126758000Y-126377000D01*
X126758000Y-126677000D01*
G37*
%TD*%
D11*
%TO.C,C9*%
X129540000Y-103358000D03*
X129540000Y-100858000D03*
%TD*%
D12*
%TO.C,JP3*%
X112268000Y-127177000D03*
X112268000Y-125877000D03*
%TD*%
D11*
%TO.C,C6*%
X132588000Y-127782000D03*
X132588000Y-130282000D03*
%TD*%
%TO.C,Y1*%
X116586000Y-86868000D03*
X116586000Y-94488000D03*
D13*
X108966000Y-94488000D03*
D11*
X124206000Y-94488000D03*
X124206000Y-86868000D03*
X108966000Y-86868000D03*
%TD*%
D12*
%TO.C,JP1*%
X109728000Y-127177000D03*
X109728000Y-125877000D03*
%TD*%
D14*
%TO.C,R24*%
X181252000Y-119126000D03*
X181252000Y-111506000D03*
%TD*%
D12*
%TO.C,JP4*%
X114808000Y-127177000D03*
X114808000Y-125877000D03*
%TD*%
D15*
%TO.C,U5*%
X136398000Y-131084000D03*
D11*
X138938000Y-131084000D03*
X141478000Y-131084000D03*
X144018000Y-131084000D03*
X146558000Y-131084000D03*
X149098000Y-131084000D03*
X151638000Y-131084000D03*
X154178000Y-131084000D03*
X156718000Y-131084000D03*
X159258000Y-131084000D03*
X159258000Y-123464000D03*
X156718000Y-123464000D03*
X154178000Y-123464000D03*
X151638000Y-123464000D03*
X149098000Y-123464000D03*
X146558000Y-123464000D03*
X144018000Y-123464000D03*
X141478000Y-123464000D03*
X138938000Y-123464000D03*
X136398000Y-123464000D03*
%TD*%
D14*
%TO.C,R11*%
X128778000Y-88340000D03*
X136398000Y-88340000D03*
%TD*%
D11*
%TO.C,C8*%
X133096000Y-114808000D03*
X133096000Y-112308000D03*
%TD*%
D16*
%TO.C,D3*%
X148077000Y-96266000D03*
D17*
X150617000Y-96266000D03*
%TD*%
D14*
%TO.C,R21*%
X200558000Y-119126000D03*
X200558000Y-111506000D03*
%TD*%
%TO.C,R3*%
X114300000Y-82296000D03*
X114300000Y-74676000D03*
%TD*%
D18*
%TO.C,U2*%
X172974000Y-112966000D03*
D19*
X170434000Y-129626000D03*
D20*
X172974000Y-129626000D03*
X175514000Y-129626000D03*
%TD*%
D14*
%TO.C,R12*%
X128778000Y-91490000D03*
X136398000Y-91490000D03*
%TD*%
D21*
%TO.C,JP2*%
X104080000Y-119888000D03*
X105380000Y-119888000D03*
X106680000Y-119888000D03*
%TD*%
D22*
%TO.C,J2*%
X106426000Y-102870000D03*
D23*
X106426000Y-105410000D03*
X106426000Y-107950000D03*
X106426000Y-110490000D03*
X106426000Y-113030000D03*
X106426000Y-115570000D03*
%TD*%
D14*
%TO.C,R2*%
X110490000Y-82296000D03*
X110490000Y-74676000D03*
%TD*%
D11*
%TO.C,C10*%
X129794000Y-112328000D03*
X129794000Y-114828000D03*
%TD*%
%TO.C,C2*%
X162834000Y-115316000D03*
X165334000Y-115316000D03*
%TD*%
D24*
%TO.C,Q5*%
X133970000Y-70358000D03*
D25*
X135240000Y-70358000D03*
X136510000Y-70358000D03*
%TD*%
D14*
%TO.C,R16*%
X196646000Y-119126000D03*
X196646000Y-111506000D03*
%TD*%
%TO.C,R28*%
X154178000Y-67818000D03*
X161798000Y-67818000D03*
%TD*%
%TO.C,R10*%
X133350000Y-82296000D03*
X133350000Y-74676000D03*
%TD*%
D21*
%TO.C,JP8*%
X108906000Y-119888000D03*
X110206000Y-119888000D03*
X111506000Y-119888000D03*
%TD*%
D14*
%TO.C,R26*%
X199746000Y-82296000D03*
X199746000Y-74676000D03*
%TD*%
%TO.C,R20*%
X196088000Y-82296000D03*
X196088000Y-74676000D03*
%TD*%
D16*
%TO.C,D10*%
X148082000Y-78486000D03*
D17*
X150622000Y-78486000D03*
%TD*%
D14*
%TO.C,R19*%
X185166000Y-46990000D03*
X185166000Y-54610000D03*
%TD*%
D16*
%TO.C,D6*%
X188717000Y-78486000D03*
D17*
X191257000Y-78486000D03*
%TD*%
D14*
%TO.C,R25*%
X188874000Y-119126000D03*
X188874000Y-111506000D03*
%TD*%
D26*
%TO.C,TP2*%
X132334000Y-120142000D03*
%TD*%
D27*
%TO.C,U6*%
X119380000Y-63500000D03*
D28*
X121920000Y-63500000D03*
X124460000Y-63500000D03*
X127000000Y-63500000D03*
X129540000Y-63500000D03*
X132080000Y-63500000D03*
X132080000Y-48260000D03*
X129540000Y-48260000D03*
X127000000Y-48260000D03*
X124460000Y-48260000D03*
X121920000Y-48260000D03*
X119380000Y-48260000D03*
%TD*%
D14*
%TO.C,R23*%
X128778000Y-97790000D03*
X136398000Y-97790000D03*
%TD*%
D29*
%TO.C,J1*%
X180984026Y-138928026D03*
X178444026Y-138928026D03*
X175904026Y-138928026D03*
X173364026Y-138928026D03*
X170824026Y-138928026D03*
X168284026Y-138928026D03*
X165744026Y-138928026D03*
X163204026Y-138928026D03*
X160664026Y-138928026D03*
X158124026Y-138928026D03*
X155584026Y-138928026D03*
X153044026Y-138928026D03*
X150504026Y-138928026D03*
X147964026Y-138928026D03*
X145424026Y-138928026D03*
X142884026Y-138928026D03*
X140344026Y-138928026D03*
X137804026Y-138928026D03*
X135264026Y-138928026D03*
X132724026Y-138928026D03*
X130184026Y-138928026D03*
X127644026Y-138928026D03*
X125104026Y-138928026D03*
X122564026Y-138928026D03*
X120024026Y-138928026D03*
X117484026Y-138928026D03*
X114944026Y-138928026D03*
X112404026Y-138928026D03*
X109864026Y-138928026D03*
X107324026Y-138928026D03*
X104784026Y-138928026D03*
%TD*%
D14*
%TO.C,R27*%
X195326000Y-121920000D03*
X187706000Y-121920000D03*
%TD*%
D30*
%TO.C,U3*%
X110773500Y-102669500D03*
X110773500Y-103169500D03*
X110773500Y-103669500D03*
X110773500Y-104169500D03*
X110773500Y-104669500D03*
X110773500Y-105169500D03*
X110773500Y-105669500D03*
X110773500Y-106169500D03*
X110773500Y-106669500D03*
X110773500Y-107169500D03*
X110773500Y-107669500D03*
X110773500Y-108169500D03*
X110773500Y-108669500D03*
X110773500Y-109169500D03*
X110773500Y-109669500D03*
X110773500Y-110169500D03*
X110773500Y-110669500D03*
X110773500Y-111169500D03*
X110773500Y-111669500D03*
X110773500Y-112169500D03*
X110773500Y-112669500D03*
X110773500Y-113169500D03*
X110773500Y-113669500D03*
X110773500Y-114169500D03*
X110773500Y-114669500D03*
D31*
X112436000Y-116332000D03*
X112936000Y-116332000D03*
X113436000Y-116332000D03*
X113936000Y-116332000D03*
X114436000Y-116332000D03*
X114936000Y-116332000D03*
X115436000Y-116332000D03*
X115936000Y-116332000D03*
X116436000Y-116332000D03*
X116936000Y-116332000D03*
X117436000Y-116332000D03*
X117936000Y-116332000D03*
X118436000Y-116332000D03*
X118936000Y-116332000D03*
X119436000Y-116332000D03*
X119936000Y-116332000D03*
X120436000Y-116332000D03*
X120936000Y-116332000D03*
X121436000Y-116332000D03*
X121936000Y-116332000D03*
X122436000Y-116332000D03*
X122936000Y-116332000D03*
X123436000Y-116332000D03*
X123936000Y-116332000D03*
X124436000Y-116332000D03*
D30*
X126098500Y-114669500D03*
X126098500Y-114169500D03*
X126098500Y-113669500D03*
X126098500Y-113169500D03*
X126098500Y-112669500D03*
X126098500Y-112169500D03*
X126098500Y-111669500D03*
X126098500Y-111169500D03*
X126098500Y-110669500D03*
X126098500Y-110169500D03*
X126098500Y-109669500D03*
X126098500Y-109169500D03*
X126098500Y-108669500D03*
X126098500Y-108169500D03*
X126098500Y-107669500D03*
X126098500Y-107169500D03*
X126098500Y-106669500D03*
X126098500Y-106169500D03*
X126098500Y-105669500D03*
X126098500Y-105169500D03*
X126098500Y-104669500D03*
X126098500Y-104169500D03*
X126098500Y-103669500D03*
X126098500Y-103169500D03*
X126098500Y-102669500D03*
D31*
X124436000Y-101007000D03*
X123936000Y-101007000D03*
X123436000Y-101007000D03*
X122936000Y-101007000D03*
X122436000Y-101007000D03*
X121936000Y-101007000D03*
X121436000Y-101007000D03*
X120936000Y-101007000D03*
X120436000Y-101007000D03*
X119936000Y-101007000D03*
X119436000Y-101007000D03*
X118936000Y-101007000D03*
X118436000Y-101007000D03*
X117936000Y-101007000D03*
X117436000Y-101007000D03*
X116936000Y-101007000D03*
X116436000Y-101007000D03*
X115936000Y-101007000D03*
X115436000Y-101007000D03*
X114936000Y-101007000D03*
X114436000Y-101007000D03*
X113936000Y-101007000D03*
X113436000Y-101007000D03*
X112936000Y-101007000D03*
X112436000Y-101007000D03*
%TD*%
D16*
%TO.C,D11*%
X163317000Y-96266000D03*
D17*
X165857000Y-96266000D03*
%TD*%
D12*
%TO.C,JP6*%
X119888000Y-127177000D03*
X119888000Y-125877000D03*
%TD*%
D14*
%TO.C,R1*%
X106680000Y-82296000D03*
X106680000Y-74676000D03*
%TD*%
D15*
%TO.C,SW1*%
X192278000Y-55202500D03*
D11*
X194818000Y-55202500D03*
X197358000Y-55202500D03*
X197358000Y-47582500D03*
X194818000Y-47582500D03*
X192278000Y-47582500D03*
%TD*%
D12*
%TO.C,JP7*%
X122428000Y-127177000D03*
X122428000Y-125877000D03*
%TD*%
D26*
%TO.C,TP3*%
X181610000Y-121666000D03*
%TD*%
D32*
%TO.C,C1*%
X162814000Y-121412000D03*
D11*
X165314000Y-121412000D03*
%TD*%
D24*
%TO.C,Q6*%
X140970000Y-70358000D03*
D25*
X142240000Y-70358000D03*
X143510000Y-70358000D03*
%TD*%
D14*
%TO.C,R29*%
X154178000Y-71628000D03*
X161798000Y-71628000D03*
%TD*%
D15*
%TO.C,U4*%
X136398000Y-119146000D03*
D11*
X138938000Y-119146000D03*
X141478000Y-119146000D03*
X144018000Y-119146000D03*
X146558000Y-119146000D03*
X149098000Y-119146000D03*
X151638000Y-119146000D03*
X154178000Y-119146000D03*
X156718000Y-119146000D03*
X156718000Y-111526000D03*
X154178000Y-111526000D03*
X151638000Y-111526000D03*
X149098000Y-111526000D03*
X146558000Y-111526000D03*
X144018000Y-111526000D03*
X141478000Y-111526000D03*
X138938000Y-111526000D03*
X136398000Y-111526000D03*
%TD*%
D16*
%TO.C,D5*%
X155702000Y-78486000D03*
D17*
X158242000Y-78486000D03*
%TD*%
D27*
%TO.C,U7*%
X157480000Y-63500000D03*
D28*
X160020000Y-63500000D03*
X162560000Y-63500000D03*
X165100000Y-63500000D03*
X167640000Y-63500000D03*
X170180000Y-63500000D03*
X170180000Y-48260000D03*
X167640000Y-48260000D03*
X165100000Y-48260000D03*
X162560000Y-48260000D03*
X160020000Y-48260000D03*
X157480000Y-48260000D03*
%TD*%
D16*
%TO.C,D1*%
X155697000Y-96266000D03*
D17*
X158237000Y-96266000D03*
%TD*%
D14*
%TO.C,R17*%
X171704000Y-67818000D03*
X164084000Y-67818000D03*
%TD*%
%TO.C,R31*%
X192734000Y-119126000D03*
X192734000Y-111506000D03*
%TD*%
D11*
%TO.C,C5*%
X106720000Y-99314000D03*
X109220000Y-99314000D03*
%TD*%
D15*
%TO.C,U1*%
X105918000Y-131084000D03*
D11*
X108458000Y-131084000D03*
X110998000Y-131084000D03*
X113538000Y-131084000D03*
X116078000Y-131084000D03*
X118618000Y-131084000D03*
X121158000Y-131084000D03*
X123698000Y-131084000D03*
X126238000Y-131084000D03*
X128778000Y-131084000D03*
X128778000Y-123464000D03*
X126238000Y-123464000D03*
X123698000Y-123464000D03*
X121158000Y-123464000D03*
X118618000Y-123464000D03*
X116078000Y-123464000D03*
X113538000Y-123464000D03*
X110998000Y-123464000D03*
X108458000Y-123464000D03*
X105918000Y-123464000D03*
%TD*%
D16*
%TO.C,D8*%
X165857000Y-78486000D03*
D17*
X168397000Y-78486000D03*
%TD*%
D14*
%TO.C,R14*%
X181610000Y-71628000D03*
X173990000Y-71628000D03*
%TD*%
%TO.C,R30*%
X185064000Y-119126000D03*
X185064000Y-111506000D03*
%TD*%
D16*
%TO.C,D2*%
X181097000Y-78486000D03*
D17*
X183637000Y-78486000D03*
%TD*%
D14*
%TO.C,R8*%
X125730000Y-82296000D03*
X125730000Y-74676000D03*
%TD*%
%TO.C,R18*%
X185166000Y-57150000D03*
X185166000Y-64770000D03*
%TD*%
D11*
%TO.C,C3*%
X179832000Y-128544000D03*
X179832000Y-131044000D03*
%TD*%
%TO.C,C7*%
X119868000Y-119126000D03*
X117368000Y-119126000D03*
%TD*%
D16*
%TO.C,D7*%
X140457000Y-96266000D03*
D17*
X142997000Y-96266000D03*
%TD*%
D15*
%TO.C,SW2*%
X192290500Y-68791500D03*
D11*
X194830500Y-68791500D03*
X197370500Y-68791500D03*
X197370500Y-61171500D03*
X194830500Y-61171500D03*
X192290500Y-61171500D03*
%TD*%
D24*
%TO.C,Q1*%
X105970000Y-70358000D03*
D25*
X107240000Y-70358000D03*
X108510000Y-70358000D03*
%TD*%
D12*
%TO.C,JP5*%
X117348000Y-127177000D03*
X117348000Y-125877000D03*
%TD*%
D14*
%TO.C,R7*%
X121920000Y-82296000D03*
X121920000Y-74676000D03*
%TD*%
%TO.C,R13*%
X181610000Y-67818000D03*
X173990000Y-67818000D03*
%TD*%
D24*
%TO.C,Q2*%
X112970000Y-70358000D03*
D25*
X114240000Y-70358000D03*
X115510000Y-70358000D03*
%TD*%
D26*
%TO.C,TP1*%
X132334000Y-124714000D03*
%TD*%
D14*
%TO.C,R9*%
X129540000Y-82296000D03*
X129540000Y-74676000D03*
%TD*%
D22*
%TO.C,J3*%
X199517000Y-105664000D03*
%TD*%
D14*
%TO.C,R22*%
X128778000Y-94640000D03*
X136398000Y-94640000D03*
%TD*%
%TO.C,R6*%
X128778000Y-85190000D03*
X136398000Y-85190000D03*
%TD*%
D32*
%TO.C,C4*%
X162854000Y-129032000D03*
D11*
X165354000Y-129032000D03*
%TD*%
D14*
%TO.C,R15*%
X171704000Y-71628000D03*
X164084000Y-71628000D03*
%TD*%
%TO.C,R5*%
X137160000Y-82042000D03*
X137160000Y-74422000D03*
%TD*%
%TO.C,R4*%
X118110000Y-82296000D03*
X118110000Y-74676000D03*
%TD*%
D16*
%TO.C,D4*%
X140462000Y-78486000D03*
D17*
X143002000Y-78486000D03*
%TD*%
D12*
%TO.C,JP9*%
X124968000Y-127177000D03*
X124968000Y-125877000D03*
%TD*%
D24*
%TO.C,Q4*%
X126970000Y-70358000D03*
D25*
X128240000Y-70358000D03*
X129510000Y-70358000D03*
%TD*%
D12*
%TO.C,JP10*%
X127508000Y-127177000D03*
X127508000Y-125877000D03*
%TD*%
D16*
%TO.C,D9*%
X173477000Y-78486000D03*
D17*
X176017000Y-78486000D03*
%TD*%
D24*
%TO.C,Q3*%
X119970000Y-70358000D03*
D25*
X121240000Y-70358000D03*
X122510000Y-70358000D03*
%TD*%
M02*
